<svg width="873" height="941" viewBox="0 0 873 941" fill="none" xmlns="http://www.w3.org/2000/svg">
<path fill-rule="evenodd" clip-rule="evenodd" d="M428.586 0.978636C401.297 3.99604 383.27 23.9029 379.429 55.2589C378.908 59.5077 378.067 66.3932 377.559 70.5621C377.007 75.0694 375.627 80.4979 374.149 83.9571C367.746 98.9548 368.56 106.684 377.635 117.111C383.325 123.649 386.082 129.949 387.556 139.781C391.511 166.181 391.792 164.245 383.233 169.652C374.679 175.057 372.344 180.986 376.303 187.265C379.045 191.615 379.032 191.763 375.897 191.763C374.313 191.763 372.202 190.732 370.447 189.098C358.253 177.757 336.15 166.346 319.187 162.637C299.536 158.342 272.365 163.051 280.137 169.408C281.968 170.905 283.435 175.022 283.435 178.664C283.435 182.664 282.456 182.077 279.596 176.357C270.372 157.926 248.128 151.256 216.291 157.381C202.781 159.98 202.967 160.013 206.566 155.592C209.993 151.383 210.359 150.605 218.392 130.367C231.457 97.4532 239.412 84.6128 253.216 74.1647C261.001 68.2709 262.991 68.2168 268.474 73.7464C270.756 76.047 274.368 78.8036 276.503 79.8705C278.637 80.9374 281.66 82.6928 283.223 83.7691L286.066 85.7267L288.569 82.8362C293.114 77.5933 292.584 72.9074 287.326 71.8452C285.654 71.5068 284.074 70.8559 283.81 70.3976C283.182 69.3025 283.365 69.3237 289.245 70.9734C302.15 74.5971 308.147 72.6184 313.519 62.9622C315.869 58.7369 317.89 58.0225 317.125 61.6862C315.474 69.5939 315.466 70.5457 317.024 72.4045C318.568 74.2422 318.502 74.2634 311.256 74.2681C299.17 74.2775 293.027 77.7837 293.027 84.6762C293.027 89.5454 295.586 91.1834 303.186 91.1834H309.859L314.452 86.0698C317.868 82.2675 319.902 80.7917 322.387 80.3123C341.135 76.6862 342.96 65.7 328.541 43.2434C316.305 24.1872 315.838 23.9475 292.225 24.716C265.02 25.5996 260.977 27.4208 196.235 67.956C143.028 101.272 118.088 130.426 111.636 166.853C111.054 170.143 109.462 174.451 107.816 177.193C94.2196 199.859 108.278 217.823 146.095 226.109C165.222 230.301 164.843 230.198 164.843 231.166C164.843 231.622 159.846 232.306 153.738 232.684L142.631 233.375L149.153 239.962C190.654 281.867 244.044 294.146 273.165 268.479C281.905 260.778 294.856 237.664 289.099 240.044C288.377 240.345 280.038 241.05 270.569 241.616C243.589 243.226 226.432 240.921 212.982 233.878C204.678 229.53 207.689 229.502 227.326 233.751C256.625 240.086 275.513 238.839 290.25 229.594C292.388 228.252 294.326 227.591 294.738 228.061C296.319 229.878 302.043 248.262 307.068 267.659C320.957 321.258 325.119 334.606 333.209 351.493C339.239 364.077 339.265 365.038 333.357 357.011C318.539 336.876 309.974 315.89 299.096 273.073C293.38 250.577 294.006 251.644 289.992 257.538C288.174 260.207 284.64 264.021 282.142 266.012C273.734 272.707 272.783 279.752 277.693 298.999C284.952 327.457 295.828 353.065 311.592 378.823C335.319 417.591 340.946 459.372 330.12 516.423C326.564 535.164 325.282 538.313 320.009 541.251L316.135 543.408L207.571 543.131C92.19 542.837 96.3952 542.684 94.1455 547.215C92.4625 550.604 92.9182 706.521 94.6186 709.32C96.6808 712.714 83.8755 712.601 437.637 712.319L773.654 712.053L775.319 709.835C776.932 707.687 776.987 704.985 776.987 627.778V547.939L774.846 545.631C772.198 542.773 786.546 543.114 662.319 542.973C549.942 542.846 552.737 542.95 548.211 538.724C545.369 536.069 543.282 530.398 539.592 515.293C531.074 480.442 535.303 454.977 553.67 430.523C562.588 418.651 566.094 404.864 561.66 399.106C558.725 395.294 565.642 395.029 572.311 398.697C579.793 402.812 637.216 423.765 645.393 425.365C668.477 429.879 676.96 375.851 664.915 300.998C661.159 277.646 660.605 278.807 679.759 270.002C694.563 263.199 708.245 253.256 720.089 240.702C728.543 231.739 728.659 231.904 714.203 232.331C696.619 232.853 698.976 231.436 724.56 226.109C758.71 218.995 775.548 199.89 764.452 180.843C762.682 177.802 760.247 171.718 759.041 167.323C753.517 147.177 750.618 140.193 742.966 128.595C727.017 104.426 703.259 84.8384 657.316 57.9779C643.761 50.0537 629.054 41.1519 624.633 38.1979C609.155 27.8556 604.111 26.2952 579.915 24.3541C561.878 22.9065 558.248 23.7525 550.731 31.1597C543.633 38.1509 531.955 57.2846 531.955 61.9188C531.955 71.6361 537.893 81.0314 544.211 81.3087C546.343 81.4027 548.713 81.5484 549.478 81.6306C550.243 81.7152 553.09 83.8796 555.806 86.4411C565.741 95.8129 580.791 92.0153 576.255 81.2828C574.288 76.6275 569.316 74.7757 558.551 74.6793C542.502 74.5383 541.248 73.8169 552.083 70.9546C563.447 67.9513 570.059 69.9229 577.816 78.625C584.475 86.098 590.549 84.7984 601.504 73.5584C606.511 68.4213 609.179 68.3226 615.678 73.0249C628.651 82.4132 641.086 101.841 650.856 127.98C656.474 143.013 658.051 146.439 662.23 152.725C666.228 158.734 665.487 159.618 657.739 158.069C629.658 152.457 622.087 153.054 604.867 162.247C595.123 167.448 591 167.697 583.366 163.545C576.168 159.625 572.161 159.261 558.348 161.26L546.45 162.983L544.215 159.747C532.772 143.172 516.368 134.705 494.468 134.076C482.454 133.728 480.936 126.097 491.211 117.694C500.591 110.021 502.281 101.096 497.027 86.9651C494.193 79.3464 492.741 72.1155 490.98 56.8734C486.594 18.8856 462.426 -2.76491 428.586 0.978636ZM555.872 60.7932C556.504 62.5721 554.614 64.2853 553.428 63.0069C552.523 62.0316 553.323 59.2234 554.507 59.2234C554.95 59.2234 555.564 59.9307 555.872 60.7932ZM444.108 127.66C448.666 130.078 451.543 132.621 457.15 139.175C465.413 148.831 466.958 149.341 476.664 145.598C492.211 139.6 511.786 143.297 527.619 155.214C534.937 160.722 536.873 165.15 537.645 178.133C539.062 201.96 539.424 203.56 543.88 205.791L546.343 207.024L542.43 208.291C535.343 210.585 534.78 213.71 539.445 224.849C543.385 234.254 543.134 235.433 535.476 243.492C526.832 252.591 524.493 258.971 526.642 267.577C529.363 278.476 516.599 281.167 501.121 272.956C491.296 267.744 489.251 269.562 493.238 279.964C497.969 292.306 501.282 295.163 510.866 295.163C526.577 295.163 535.672 299.786 551.599 315.869C575.686 340.192 590.706 351.253 609.559 358.557C617.644 361.69 618.49 362.507 620.844 369.47C624.08 379.03 624.976 377.08 625.51 359.318C625.771 350.659 626.451 337.228 627.023 329.473C628.178 313.794 627.674 299.238 625.706 291.403C624.993 288.56 624.402 284.255 624.398 281.837C624.38 274.946 622.588 273.957 613.626 275.886C610.679 276.521 601.567 274.434 597.44 272.18C573.931 259.338 582.237 220.903 608.521 220.903C615.094 220.903 611.562 218.227 604.542 217.888C595.554 217.458 595.09 210.225 603.402 200.047C606.6 196.13 606.757 195.624 607.067 188.302C608.159 162.393 644.683 159.124 656.156 183.91C660.466 193.22 659.143 202.724 651.739 215.625C645.385 226.706 645.692 233.807 655.323 298.453C660.104 330.545 660.568 336.215 660.562 362.373C660.551 393.389 658.661 405.045 652.518 411.958C648.827 416.111 645.396 415.54 619.746 406.488C554.69 383.53 543.184 377.211 533.222 358.971L530.974 354.853L531.552 358.143C532.622 364.237 536.136 372.342 544.704 388.47C558.634 414.689 556.558 423.234 535.585 426.016C531.909 426.505 527.333 427.203 525.415 427.567L521.927 428.227L525.929 430.787C528.131 432.194 532.153 433.827 534.867 434.415C537.582 435.002 539.803 435.992 539.803 436.612C539.803 438.52 531.824 452.186 522.143 466.854C502.78 496.201 498.869 510.595 504.249 532.708C506.157 540.55 506.161 540.71 504.517 542.005C502.891 543.288 385.459 544.143 385.459 542.872C385.459 542.625 387.284 540.616 389.512 538.407C398.055 529.945 397.939 521.238 389.095 507.359C387.7 505.166 381.552 493.856 375.437 482.223C369.323 470.591 361.758 456.467 358.628 450.837C348.957 433.444 347.919 425.852 351.95 401.98C371.483 286.262 373.89 281.63 411.314 287.733C443.602 292.997 459.95 284.454 459.98 262.306C459.993 253.672 458.857 251.084 451.195 242.293C445.178 235.391 443.079 231.608 440.927 223.787C438.293 214.208 439.83 188.652 443.392 182.789C446.405 177.835 441.093 171.652 435.717 173.854C429.909 176.235 429.722 180.42 433.465 224.212C435.442 247.355 435.316 252.619 432.458 266.451C430.594 275.475 429.726 277.303 427.302 277.303C426.452 277.303 425.532 277.938 425.255 278.713C424.98 279.489 424.3 280.123 423.748 280.123C423.066 280.123 423.018 279.745 423.6 278.948C426.657 274.765 425.216 261.688 421.106 256.316C417.649 251.792 417.442 251.862 414.082 258.738C407.8 271.6 398.759 278.243 387.532 278.243C381.034 278.243 381.134 277.113 388.027 272.7C393.645 269.102 397.667 264.785 397.667 262.353C397.667 260.943 397.475 260.987 391.319 263.812C372.841 272.293 365.375 272.763 355.567 266.059C348.846 261.464 344.926 253.498 343.869 242.288C343.254 235.762 344.795 234.999 348.373 240.054C352.909 246.467 363.554 250.809 370.269 248.986C382.527 245.658 388.646 231.624 394.689 192.976C396.451 181.71 398.203 170.526 398.585 168.122C404.612 130.156 421.141 115.464 444.108 127.66ZM592.097 170.58C593.795 172.787 588.827 179.924 586.315 178.885C584.51 178.138 584.918 175.99 587.545 172.444C590.246 168.794 590.608 168.646 592.097 170.58ZM383.166 194.793C383.857 195.975 383.833 196.712 383.078 197.526C381.722 198.987 379.355 196.999 379.355 194.4C379.355 192.17 381.779 192.419 383.166 194.793ZM571.995 244.45C574.288 255.982 572.773 268.771 566.384 291.763C562.359 306.241 561.453 308.323 559.168 308.323C555.231 308.323 553.642 302.987 555.525 296.096C557.675 288.236 566.778 252.727 568.237 246.518C570.131 238.448 570.735 238.117 571.995 244.45ZM606.278 284.92C609.763 285.491 613.487 286.13 614.555 286.341C620.657 287.554 619.236 349.683 613.105 349.683C609.328 349.683 585.794 335.823 584.231 332.676C582.779 329.753 593.263 289.474 596.607 285.134C597.771 283.62 598.257 283.608 606.278 284.92ZM411.458 345.688C401.99 356.651 388.753 389.091 384.587 411.542C382.394 423.365 382.701 424.897 389.117 434.079C394.988 442.482 400.3 453.234 408.135 472.565C411.431 480.698 414.531 487.499 415.024 487.678C418.059 488.768 431.104 474.884 434.659 466.779C444.269 444.887 436.273 402.859 417.832 378.332C406.958 363.87 406.398 361.826 411.248 354.282C414.398 349.383 416.051 349.039 422.192 352.01C429.789 355.685 430.04 354.553 422.966 348.478C415.866 342.38 414.584 342.069 411.458 345.688ZM501.871 419.904C495.641 427.311 490.507 427.856 472.659 423.015L466.119 421.241L469.607 424.46C486.45 440.006 506.759 437.435 505.627 419.901L505.359 415.758L501.871 419.904ZM359.299 578.923C359.299 580.019 347.211 592.351 342.526 596.036C333.032 603.504 321.465 608.052 310.829 608.498C305.935 608.703 304.819 609.055 304.234 610.58C303.848 611.589 298.385 627.641 292.094 646.253C285.805 664.865 280.254 680.622 279.759 681.268C278.696 682.66 246.353 682.986 245.566 681.614C245.305 681.156 250.765 663.968 257.7 643.415C264.637 622.864 270.102 605.683 269.845 605.236C269.276 604.242 230.487 604.139 229.994 605.128C229.803 605.516 230.382 610.909 231.287 617.113C237.653 660.779 240.43 681.13 240.105 681.738C239.532 682.819 208.637 682.601 208.011 681.513C207.717 681 206.749 676.526 205.86 671.57C204.968 666.614 204.089 662.398 203.906 662.2C203.723 662.003 201.528 664.734 199.027 668.268C196.527 671.803 192.66 676.503 190.434 678.716L186.386 682.739L162.829 682.121C149.873 681.781 132.485 681.503 124.19 681.503H109.109L130.654 651.623C142.504 635.19 159.247 611.925 167.862 599.923L183.528 578.103H271.412C320.89 578.103 359.299 578.463 359.299 578.923ZM0.03488 628.403V650.502L12.7639 667.516C32.2902 693.615 32.5234 690.433 8.81374 720.953L0 732.299L0.23544 751.933L0.47088 771.567L16.6029 765.993C54.7987 752.798 74.0023 753.571 91.4793 769.017C106.43 782.227 107.947 780.854 108.259 753.836C108.557 728.08 108.435 727.881 93.0402 728.985C83.3632 729.678 79.7422 728.691 78.4408 725.004C77.9895 723.726 77.6429 698.108 77.6429 666.078C77.6429 612.378 77.56 609.332 76.0493 607.859C74.617 606.463 70.6451 606.303 37.2453 606.303H0.03488V628.403ZM794.054 607.781C792.838 609.09 792.683 615.764 792.683 667.044V724.828L790.542 727.136C788.094 729.775 787.68 729.817 777.876 728.393C768.258 726.999 764.317 728.156 762.473 732.912C760.892 736.989 761.681 773.574 763.377 774.784C766.525 777.033 771.615 775.503 776.699 770.78C795.443 753.366 818.991 752.415 858.39 767.483C864.518 769.826 870.097 771.743 870.784 771.743C871.828 771.743 872.033 768.681 872.026 753.178L872.02 734.613L860.193 719.573C836.069 688.892 836.231 695.061 858.781 665.594L872.035 648.274V627.289V606.303H833.73C800.069 606.303 795.258 606.482 794.054 607.781ZM540.311 612.15C547.152 615.508 545.545 624.72 533.908 648.871C526.808 663.606 522.476 665.561 495.573 666.17C465.413 666.851 461.458 664.113 468.578 647.492C470.265 643.56 472.905 637.229 474.449 633.427C480.884 617.579 486.944 612.157 499.663 610.881C508.509 609.995 537.78 610.907 540.311 612.15ZM182.431 632.153C174.199 644.044 167.463 654.091 167.461 654.478C167.461 654.866 175.706 655.183 185.788 655.183H204.116L203.669 653.068C203.422 651.905 202.025 642.282 200.564 631.683C199.102 621.085 197.791 611.99 197.652 611.473C197.512 610.956 190.663 620.262 182.431 632.153ZM393.749 611.955C394.554 613.358 390.641 620.399 387.796 622.671C385.555 624.459 383.826 624.676 368.27 625.103C353.358 625.515 351.08 625.778 350.256 627.193C348.085 630.913 350.415 631.517 367.297 631.611C386.717 631.721 389.769 635.605 382.817 651.374C376.168 666.459 376.29 666.409 343.793 666.44C317.155 666.466 317.282 666.501 320.565 660.041C324.048 653.184 325.069 652.869 344.896 652.53C360.973 652.255 362.772 652.06 364.123 650.45C367.672 646.22 362.63 644.865 343.317 644.85C332.917 644.843 329.734 643.158 328.275 636.893C327.46 633.399 334.545 617.983 338.824 613.931L341.92 611.003H367.561C383.946 611.003 393.401 611.346 393.749 611.955ZM470.741 612.131C474.29 615.957 467.198 634.858 459.252 642.754C452.66 649.304 448.099 650.481 429.244 650.497C410.496 650.514 411.758 650.067 407.978 658.01C404.706 664.889 402.565 666.482 396.795 666.339C386.239 666.076 386.117 665.678 392.088 650.984C398.391 635.467 395.422 636.933 421.664 636.383L444.077 635.913L446.628 632.623C451.884 625.837 451.319 625.606 428.693 625.32C415.739 625.157 408.297 624.701 407.547 624.029C405.537 622.232 406.114 615.91 408.528 613.311L410.668 611.003H440.181C461.973 611.003 469.969 611.299 470.741 612.131ZM620.084 611.976C622.56 613.405 622.192 616.787 618.569 625.942C612.983 640.047 610.193 643.466 600.132 648.528C594.623 651.301 594.604 650.667 600.411 657.684C606.882 665.505 606.762 666.466 599.317 666.459C589.684 666.449 587.211 665.293 580.571 657.691L574.687 650.953H567.927H561.167L558.392 656.586C554.309 664.877 552.238 666.463 545.493 666.463C535.554 666.463 535.589 666.593 541.582 651.604C548.039 635.457 546.262 636.383 570.766 636.383C593.638 636.383 594.809 636.122 597.494 630.447C599.977 625.202 599.851 625.167 577.741 624.887L557.744 624.633L556.502 622.243C555.388 620.105 555.449 619.386 557.073 615.428L558.889 611.003H588.644C607.485 611.003 619.015 611.361 620.084 611.976ZM694.598 611.969C695.555 613.64 691.413 621.449 688.577 623.313C686.519 624.664 684.202 625.096 678.989 625.101C669.753 625.106 662.755 630.718 662.755 638.122C662.755 641.154 651.212 664.384 649.217 665.364C646.865 666.52 637.718 666.868 635.359 665.892C632.706 664.795 633.905 661.124 645.701 634.264C649.64 625.289 649.535 625.103 640.53 625.103C632.81 625.103 630.491 624.015 630.491 620.396C630.491 617.689 632.159 613.48 633.748 612.178C635.601 610.663 693.733 610.461 694.598 611.969ZM760.984 612.437C761.633 614.26 757.666 620.782 754.577 622.965C752.593 624.37 749.543 624.709 735.266 625.103C720.126 625.524 718.21 625.754 717.349 627.272C715.352 630.788 718.567 631.683 733.202 631.683C753.94 631.683 757.16 635.356 750.35 651.247C743.91 666.268 743.428 666.463 712.995 666.463C683.639 666.463 683.615 666.456 688.496 658.715C691.96 653.219 692.832 652.998 711.873 652.807C728.266 652.643 729.26 652.53 731.03 650.622C734.73 646.634 731.998 645.663 715.409 645.074C694.701 644.336 692.137 641.257 698.967 625.322C705.224 610.726 704.5 611.01 735.377 611.006C757.064 611.003 760.543 611.198 760.984 612.437ZM498.189 626.062C495.76 627.117 488.22 643.868 488.043 648.603L487.919 651.893L499.148 652.157C513.017 652.483 513.05 652.464 518.33 640.609C523.196 629.681 523.898 627.073 522.263 625.956C520.689 624.882 500.707 624.972 498.189 626.062ZM406.387 762.936C376.578 767.29 349.825 780.915 343.52 794.954C339.539 803.821 341.201 812.746 355.53 859.497C362.362 881.789 362.401 883.171 356.467 892.186C348.752 903.907 341.192 923.26 339.694 935.125L339.064 940.114L343.228 939.825L347.39 939.533L348.606 932.953C350.95 920.277 354.66 912.269 367.96 891.194C372.207 884.463 371.79 881.693 361.533 848.534C348.678 806.975 348.161 801.56 356.23 792.863C362.608 785.987 380.013 777.759 385.622 778.97C389.339 779.771 388.842 780.25 378.261 786.041C356.618 797.885 354.823 803.13 363.164 830.174C369.905 852.029 378.178 879.867 378.823 882.861C379.562 886.303 377.801 891.422 373.543 898.185C366.177 909.89 358.636 927.097 356.349 937.418L355.778 940.003H443.43C528.809 940.003 531.083 939.956 531.083 938.227C531.083 929.44 522.38 905.87 514.652 893.725C507.665 882.741 507.552 880.861 512.808 863.405C530.795 803.692 531.34 789.359 516.017 778.925C495.911 765.236 443.222 757.552 406.387 762.936ZM813.611 773.167C813.611 773.323 814.771 776.237 816.19 779.642C827.672 807.228 827.67 863.809 816.186 924.963C814.777 932.46 813.622 938.911 813.618 939.298C813.615 939.686 826.774 940.003 842.86 940.003H872.109L871.854 892.298C871.614 847.686 871.113 837.868 869.327 842.781C868.966 843.778 868.641 847.977 868.604 852.113C868.538 859.457 867.629 864.81 865.975 867.595C864.64 869.844 864.279 868.491 863.653 858.881C862.975 848.483 862.151 847.385 860.865 855.168C858.733 868.067 856.376 869.268 856.252 857.518C856.11 844.076 853.74 840.145 851.107 848.986L849.799 853.375L847.741 851.57C844.82 849.007 843.261 849.277 843.248 852.348C843.194 863.769 840.105 860.808 839.3 848.562C837.822 826.104 833.584 820.179 832.383 838.895C831.849 847.209 830.669 851.136 827.986 853.535C826.678 854.705 826.612 854.489 827.238 851.117C829.71 837.792 827.554 800.425 823.484 786.057C821.731 779.874 821.601 779.982 829.477 781.162C839.725 782.699 843.582 780.657 834.975 778.251C826.678 775.933 813.611 772.824 813.611 773.167ZM44.5069 776.013C39.9507 777.261 31.7168 779.174 26.2123 780.269C9.94952 783.498 0.03488 788.811 0.03488 794.296V797.018L2.834 794.261C7.34224 789.822 11.6652 788.193 29.9946 784.027C50.0354 779.47 48.59 779.174 46.3206 787.39C43.9096 796.125 43.0463 802.782 41.4527 824.966C39.2727 855.328 38.9283 856.186 36.212 838.035C33.9513 822.915 33.2297 824.16 31.0672 846.901C30.1799 856.231 29.1553 863.863 28.7891 863.863C27.8146 863.863 27.0691 861.307 27.0538 857.911C27.0342 853.711 26.1687 852.703 22.7461 852.891C19.9492 853.042 19.6636 852.781 18.3927 848.901C15.853 841.144 14.0981 843.811 13.8844 855.756C13.8277 858.924 13.5225 862.782 13.2064 864.333L12.6309 867.153L10.9109 863.445C8.6437 858.555 7.23106 858.209 6.62502 862.392C6.35688 864.235 5.89036 867.33 5.58734 869.268L5.0358 872.793L3.8586 869.785C3.21114 868.131 2.13204 862.42 1.4606 857.095C0.30302 847.912 0.23544 849.789 0.13734 893.708L0.03488 940.003H28.4686H56.9045L56.4228 937.888C42.6081 877.122 42.1459 807.106 55.348 775.268C56.2527 773.083 54.8684 773.179 44.5069 776.013ZM796.906 776.42C780.44 781.78 756.722 828.959 742.863 883.909C736.666 908.48 739.214 907.263 705.115 901.957C654.94 894.15 561.259 884.6 534.399 884.553L529.431 884.543L530.357 887.413C532.206 893.128 525.781 892.228 617.411 899.619C665.473 903.496 695.095 907.176 773.063 918.964C782.474 920.388 784.51 922.376 783.167 928.827C781.75 935.623 779.821 936.885 773.761 934.974C767.452 932.986 725.027 926.044 687.171 920.806C668.384 918.207 635.158 914.32 618.283 912.75C598.558 910.915 543.762 906.185 542.088 906.175C538.432 906.149 542.399 920.388 547.056 924C550.982 927.045 555.719 927.943 574.683 929.243C599.89 930.97 618.44 932.794 651.419 936.784L678.015 940.001L742.266 940.003C802.704 940.003 806.543 939.905 806.973 938.358C809.349 929.767 814.686 891.704 816.757 868.563C822.198 807.814 814.219 770.782 796.906 776.42ZM66.7429 777.068C48.904 782.241 46.3817 847.789 61.0357 925.391C62.4963 933.125 63.6909 939.576 63.6909 939.726C63.6909 939.879 87.8191 940.003 117.31 940.003H170.932L193.828 937.204C237.731 931.837 261.088 929.574 295.344 927.36C324.247 925.494 329.651 922.343 329.651 907.357V905.132L318.533 905.684C252.858 908.936 173.855 917.89 108.198 929.518C88.8895 932.939 85.4974 931.738 85.4931 921.495C85.4909 917.497 84.7148 917.772 104.851 914.59C171.331 904.081 248.115 896.072 311.775 893.006C338.183 891.734 340.987 890.865 340.987 883.932C340.987 882.628 299.026 884.713 261.635 887.873C227.095 890.794 183.637 895.955 155.251 900.507C132.662 904.128 132.749 904.187 126.575 881.159C116.798 844.678 106.031 818.109 91.3965 794.339C81.4753 778.225 75.9948 774.387 66.7429 777.068ZM457.146 793.464C486.138 796.83 502.719 807.376 497.031 818.833C496.526 819.848 494.764 827.02 493.114 834.768C487.243 862.331 483.568 865.386 466.581 856.827C446.671 846.795 420.725 847.355 396.893 858.331C386.298 863.21 385.376 862.881 382.839 853.326C381.838 849.557 379.272 840.692 377.136 833.626C370.663 812.217 372.135 807.964 388.286 801.41C407.523 793.605 433.016 790.663 457.146 793.464ZM868.547 793.777C868.547 795.189 870.112 796.689 870.805 795.941C871.414 795.286 870.21 792.423 869.325 792.423C868.898 792.423 868.547 793.032 868.547 793.777ZM512.695 807.101C515.452 810.883 514.999 815.705 510.212 833.391C499.301 873.715 498.712 875.143 492.998 875.143C489.094 875.143 489.14 874.765 495.366 855.986C502.553 834.312 504.925 824.047 505.54 811.975L506.052 801.917L508.463 803.262C509.789 804.002 511.692 805.729 512.695 807.101ZM17.501 835.24C17.525 837.67 17.6427 837.799 18.4646 836.277C19.1339 835.034 19.1273 834.249 18.4363 833.504C17.7365 832.749 17.4814 833.217 17.501 835.24ZM851.107 834.723C851.107 835.757 851.499 836.603 851.979 836.603C852.459 836.603 852.851 835.757 852.851 834.723C852.851 833.689 852.459 832.843 851.979 832.843C851.499 832.843 851.107 833.689 851.107 834.723ZM787.926 855.831C790.363 858.458 791.004 875.578 789.186 889.532C785.509 917.772 786.751 916.17 771.28 912.649C766.506 911.561 762.47 910.541 762.311 910.379C761.123 909.169 770.122 880.008 775.631 867.214C781.255 854.151 784.007 851.603 787.926 855.831ZM88.6672 855.838C91.0979 857.673 95.5821 868.986 104.891 896.763C108.008 906.067 103.472 910.8 91.3965 910.842C83.7949 910.87 82.9185 909.592 81.8721 896.961C81.4579 891.941 80.7276 884.736 80.2524 880.95C77.632 860.101 81.0001 850.048 88.6672 855.838ZM418.595 864.258C415.478 865.487 409.592 867.988 405.515 869.811C392.74 875.529 387.288 875.494 396.141 869.75C404.052 864.618 411.329 862.181 419.031 862.087L424.263 862.023L418.595 864.258Z" fill="#0D0D0D"/>
<path fill-rule="evenodd" clip-rule="evenodd" d="M292.809 24.1791C294.368 24.3883 296.918 24.3883 298.477 24.1791C300.036 23.9723 298.76 23.8008 295.643 23.8008C292.526 23.8008 291.25 23.9723 292.809 24.1791ZM621.771 78.3137C621.771 78.4759 623.046 79.8506 624.605 81.3687L627.439 84.13L624.877 81.075C622.49 78.2268 621.771 77.5876 621.771 78.3137ZM301.093 91.8286C301.932 92.0636 303.306 92.0636 304.145 91.8286C304.984 91.5912 304.298 91.3985 302.619 91.3985C300.94 91.3985 300.254 91.5912 301.093 91.8286ZM728.155 110.45C730.76 113.293 733.088 115.62 733.328 115.62C733.568 115.62 731.632 113.293 729.027 110.45C726.422 107.606 724.094 105.28 723.854 105.28C723.614 105.28 725.55 107.606 728.155 110.45ZM450.822 241.815C452.961 244.271 454.824 246.28 454.964 246.28C455.62 246.28 454.927 245.436 451.077 241.54L446.935 237.35L450.822 241.815ZM251.415 242.273C253.709 242.466 257.24 242.464 259.263 242.266C261.286 242.069 259.411 241.911 255.095 241.914C250.779 241.916 249.122 242.078 251.415 242.273ZM509.501 295.844C511.299 296.048 514.242 296.048 516.041 295.844C517.839 295.642 516.368 295.475 512.771 295.475C509.174 295.475 507.702 295.642 509.501 295.844ZM617.697 304.09C617.701 307.709 617.858 309.074 618.048 307.124C618.237 305.173 618.233 302.212 618.041 300.544C617.847 298.875 617.692 300.471 617.697 304.09ZM627.206 326.18C627.206 327.99 627.384 328.73 627.605 327.825C627.823 326.92 627.823 325.44 627.605 324.535C627.384 323.63 627.206 324.371 627.206 326.18ZM617.69 333.7C617.69 337.061 617.849 338.435 618.041 336.755C618.235 335.075 618.235 332.325 618.041 330.645C617.849 328.965 617.69 330.34 617.69 333.7ZM660.438 351.09C660.442 355.226 660.595 356.801 660.778 354.589C660.963 352.38 660.961 348.996 660.773 347.069C660.586 345.145 660.435 346.954 660.438 351.09ZM660.359 378.35C660.368 380.418 660.547 381.154 660.756 379.983C660.965 378.815 660.956 377.123 660.738 376.223C660.52 375.326 660.348 376.282 660.359 378.35ZM438.921 445.09C438.926 448.192 439.089 449.348 439.283 447.659C439.477 445.969 439.473 443.431 439.274 442.019C439.076 440.606 438.917 441.988 438.921 445.09ZM335.103 461.07C335.112 463.138 335.291 463.874 335.5 462.703C335.709 461.535 335.7 459.843 335.482 458.943C335.264 458.046 335.092 459.002 335.103 461.07ZM335.103 471.41C335.112 473.478 335.291 474.214 335.5 473.043C335.709 471.875 335.7 470.183 335.482 469.283C335.264 468.386 335.092 469.342 335.103 471.41ZM501.655 516.53C501.664 518.598 501.843 519.334 502.052 518.163C502.261 516.995 502.252 515.303 502.034 514.403C501.816 513.506 501.644 514.462 501.655 516.53ZM173.345 543.073C175.863 543.264 179.983 543.264 182.501 543.073C185.019 542.883 182.959 542.728 177.923 542.728C172.887 542.728 170.827 542.883 173.345 543.073ZM237.38 543.083C245.383 543.238 258.725 543.238 267.028 543.083C275.332 542.93 268.785 542.803 252.479 542.803C236.173 542.801 229.378 542.928 237.38 543.083ZM607.23 543.085C630.648 543.224 668.711 543.224 691.814 543.085C714.92 542.946 695.76 542.831 649.239 542.831C602.718 542.831 583.815 542.946 607.23 543.085ZM777.273 557.89C777.277 561.509 777.434 562.874 777.623 560.924C777.813 558.973 777.809 556.012 777.617 554.344C777.423 552.675 777.268 554.271 777.273 557.89ZM92.7809 571.52C92.7809 576.432 92.9292 578.441 93.1079 575.985C93.2867 573.529 93.2867 569.511 93.1079 567.055C92.9292 564.599 92.7809 566.609 92.7809 571.52ZM225.011 579.197C225.011 581.891 227.921 602.197 228.466 603.311C228.944 604.291 233.341 604.533 249.209 604.455C260.283 604.401 269.561 604.737 269.827 605.2C270.093 605.666 264.637 622.861 257.7 643.411C250.766 663.964 245.305 681.152 245.566 681.611C246.353 682.983 278.696 682.656 279.76 681.265C280.254 680.619 285.805 664.862 292.094 646.25C298.385 627.638 303.849 611.585 304.234 610.577C304.819 609.052 305.935 608.699 310.829 608.495C321.465 608.048 333.032 603.501 342.526 596.033C347.211 592.348 359.299 580.015 359.299 578.92C359.299 578.46 329.817 578.1 292.155 578.1C241.548 578.1 225.011 578.37 225.011 579.197ZM510.406 610.756C513.181 610.944 517.497 610.941 519.998 610.751C522.498 610.563 520.227 610.41 514.951 610.413C509.675 610.415 507.631 610.568 510.406 610.756ZM337.281 653.06C341.717 653.232 348.977 653.232 353.413 653.06C357.849 652.889 354.22 652.75 345.347 652.75C336.474 652.75 332.845 652.889 337.281 653.06ZM720.976 653.042C722.544 653.251 724.898 653.246 726.208 653.032C727.518 652.818 726.237 652.647 723.359 652.652C720.481 652.656 719.409 652.832 720.976 653.042ZM176.833 655.88C181.749 656.05 189.793 656.05 194.709 655.88C199.625 655.714 195.603 655.577 185.771 655.577C175.939 655.577 171.917 655.714 176.833 655.88ZM350.361 666.218C353.838 666.397 359.528 666.397 363.005 666.218C366.482 666.039 363.637 665.894 356.683 665.894C349.729 665.894 346.884 666.039 350.361 666.218ZM394.397 666.195C395.716 666.408 397.874 666.408 399.193 666.195C400.512 665.978 399.433 665.802 396.795 665.802C394.157 665.802 393.078 665.978 394.397 666.195ZM499.473 666.209C501.511 666.406 504.847 666.406 506.885 666.209C508.923 666.011 507.256 665.849 503.179 665.849C499.102 665.849 497.435 666.011 499.473 666.209ZM638.557 666.204C640.355 666.408 643.298 666.408 645.097 666.204C646.895 666.002 645.424 665.835 641.827 665.835C638.23 665.835 636.758 666.002 638.557 666.204ZM689.133 666.169C689.972 666.404 691.346 666.404 692.185 666.169C693.024 665.931 692.338 665.739 690.659 665.739C688.98 665.739 688.294 665.931 689.133 666.169ZM714.377 666.22C718.55 666.392 725.613 666.392 730.073 666.22C734.534 666.051 731.12 665.91 722.487 665.908C713.854 665.908 710.205 666.046 714.377 666.22ZM92.7853 686.67C92.7875 691.84 92.9335 693.835 93.1101 691.105C93.2867 688.372 93.2867 684.142 93.1058 681.705C92.927 679.265 92.7831 681.5 92.7853 686.67ZM777.286 697.95C777.29 702.086 777.443 703.661 777.626 701.449C777.811 699.24 777.809 695.856 777.621 693.929C777.434 692.005 777.283 693.814 777.286 697.95ZM114.973 713.223C121.838 713.383 132.825 713.383 139.389 713.223C145.955 713.063 140.34 712.934 126.911 712.934C113.482 712.934 108.111 713.065 114.973 713.223ZM420.407 725.384C142.566 725.666 126.955 725.769 125.341 727.327C123.691 728.916 123.652 730.053 124.127 761.87C124.895 813.138 128.84 841.646 139.208 870.847C144.451 885.614 142.681 885.109 174.439 880.879C223.483 874.346 261.288 870.67 310.467 867.658C338.229 865.956 341.142 865.651 340.723 864.476C319.42 804.513 322.339 780.959 353.195 763.839C389.414 743.745 437.275 738.593 483.908 749.775C544.732 764.356 553.875 783.337 532.422 850.482C527.532 865.785 528.321 867.098 542.94 868.015C587.233 870.79 617.23 873.918 696.824 884.063C726.149 887.8 725.611 887.87 727.429 880.059C728 877.612 730.193 870.323 732.306 863.86C745.713 822.846 745.597 823.595 746.205 773.493C746.729 730.298 746.622 729.271 741.357 726.869C737.143 724.947 757.43 725.041 420.407 725.384ZM429.713 761.149C431.751 761.346 435.087 761.346 437.125 761.149C439.163 760.951 437.496 760.789 433.419 760.789C429.342 760.789 427.675 760.951 429.713 761.149ZM421.211 810.365C394.497 814.071 389.084 817.636 392.431 829.315C395.297 839.319 396.989 839.937 410.451 835.919C422.294 832.382 445.354 832.175 459.435 835.479C472.533 838.555 476.52 837.131 478.674 828.61C480.306 822.155 479.921 817.102 477.673 815.542C471.004 810.91 438.651 807.944 421.211 810.365ZM824.278 849.76C824.278 851.57 824.456 852.31 824.677 851.405C824.895 850.5 824.895 849.02 824.677 848.115C824.456 847.21 824.278 847.951 824.278 849.76ZM842.59 853.52C842.59 855.33 842.768 856.07 842.989 855.165C843.207 854.26 843.207 852.78 842.989 851.875C842.768 850.97 842.59 851.711 842.59 853.52ZM79.7009 868.56C79.7009 873.472 79.8492 875.481 80.0279 873.025C80.2067 870.569 80.2067 866.551 80.0279 864.095C79.8492 861.639 79.7009 863.649 79.7009 868.56ZM315.056 905.895C316.384 906.111 318.346 906.106 319.416 905.883C320.488 905.66 319.405 905.481 317.007 905.488C314.609 905.495 313.73 905.678 315.056 905.895Z" fill="#EB1C1C"/>
<path fill-rule="evenodd" clip-rule="evenodd" d="M0.0356445 303.15V606.3L37.3136 606.314C59.2684 606.324 75.1301 606.695 75.8996 607.219C77.0311 607.99 77.2665 615.97 77.6436 666.507L78.0796 724.905L80.434 727.085C82.686 729.175 83.2244 729.245 93.1064 728.754C103.232 728.251 103.477 728.289 106.014 730.641L108.6 733.038L108.417 752.853C108.157 780.788 106.762 782.383 93.0039 770.485C73.0351 753.215 56.3058 752.479 14.2056 767.017L0.0356445 771.909V781.744V791.576L2.9067 789.215C7.92724 785.088 15.0057 782.268 25.3236 780.287C30.839 779.227 39.9623 777.14 45.5976 775.65C51.2329 774.161 55.8436 773.112 55.8436 773.319C55.8436 773.528 54.4702 777.949 52.7938 783.145C42.3712 815.422 42.9402 858.523 54.6926 927.075L56.9075 940H60.3955C63.7418 940 63.8573 939.899 63.2927 937.479C55.8044 905.314 51.9807 872.517 51.9654 840.36C51.9458 790.465 56.2404 776.44 71.5396 776.44C87.3098 776.44 112.426 824.617 127.404 883.6C132.037 901.843 134.823 904.212 148.374 901.439C163.732 898.295 225.943 890.765 260.328 887.886C296.714 884.841 302.707 884.451 321.714 883.884L341.247 883.302L340.624 886.037C339.305 891.83 341.855 891.364 297.388 893.907C239.295 897.23 164.765 905.248 108.6 914.218C83.7302 918.19 84.3035 917.919 86.2241 924.831C88.3474 932.466 89.795 932.753 108.6 929.254C163.653 919.008 259.351 908.04 315.046 905.591L329.652 904.95L329.612 908.141C329.458 921.207 323.526 925.566 304.096 926.906C262.939 929.742 221.609 933.723 188.388 938.05L174.872 939.81L256.763 939.671L338.655 939.53L339.793 933.519C342.426 919.595 347.127 907.488 354.944 894.478C362.354 882.148 362.352 882.23 355.53 860.1C338.644 805.331 337.971 798.34 348.544 787.619C374.66 761.139 442.018 752.743 494.848 769.381C533.048 781.413 534.419 788.164 513.543 861.421C507.823 881.494 507.904 883.24 515.035 893.94C521.742 904.005 529.337 923.989 530.72 935.206L531.308 940L602.483 939.875C641.932 939.807 671.129 939.424 667.988 939.013C634.198 934.604 600.423 931.169 575.992 929.655C547.22 927.872 542.542 925.364 540.948 910.86L540.434 906.16H543.218C550.44 906.16 625.722 913.161 654.908 916.547C695.403 921.247 766.698 932.182 774.25 934.851C780.29 936.987 783.092 934.142 783.092 925.872C783.092 920.754 782.924 920.695 755.659 916.488C697.056 907.448 660.042 903.204 591.688 897.686C527.881 892.535 532.113 893.221 530.166 887.703C528.936 884.216 529.8 883.544 534.842 884.058C537.332 884.312 546.235 884.972 554.628 885.527C606.856 888.982 664.633 895.324 712.322 902.837C737.299 906.773 737.347 906.748 742.055 886.89C756.167 827.39 783.399 775.477 800.486 775.502C820.673 775.535 824.464 844.395 808.938 929.004L806.902 940.096L810.023 939.814C813.616 939.488 813.485 939.894 817.455 916.5C827.629 856.54 827.102 806.217 816.025 779.953C812.975 772.722 813.027 772.422 817.148 773.561C818.8 774.017 824.762 775.519 830.398 776.898C836.033 778.275 840.644 779.775 840.644 780.228C840.644 781.753 834.76 782.263 828.78 781.26C821.501 780.038 821.961 779.138 824.459 789.753C828.137 805.38 829.353 826.613 827.697 846.235C827.359 850.242 827.376 853.52 827.738 853.52C829.733 853.52 831.385 848.037 832.009 839.361C832.425 833.576 833.184 829.27 834.012 827.997L835.344 825.945L836.275 828.688C836.787 830.196 837.402 832.022 837.64 832.746C837.879 833.47 838.464 838.334 838.939 843.556C840.003 855.198 840.548 858.22 841.585 858.22C842.026 858.22 842.388 856.58 842.388 854.575C842.388 849.339 844.132 848.15 847.426 851.14L850.044 853.513L850.58 850.43C852.498 839.401 855.679 842.414 856.324 855.87C856.869 867.23 857.949 867.768 860.087 857.75C862.354 847.13 863.01 847.288 863.728 858.62C864.072 864.086 864.696 868.56 865.11 868.56C866.566 868.56 868.548 858.744 868.609 851.233C868.681 842.339 869.712 838.142 870.704 842.71C871.042 844.261 871.447 845.953 871.606 846.47C871.768 846.987 871.929 835.933 871.966 821.906C872.033 797.158 871.983 796.384 870.292 795.907C869.332 795.637 868.548 794.742 868.548 793.917C868.548 791.929 869.98 792.011 871.109 794.065C871.761 795.249 871.957 792.434 871.807 784.002L871.6 772.292L855.032 766.462C816.358 752.846 796.122 753.842 777.52 770.278C771.318 775.759 768.13 777.051 764.494 775.561C761.66 774.4 762.085 777.512 761.63 754.59C761.093 727.515 761.852 726.293 777.938 728.326C793.867 730.342 792.684 735.388 792.684 665.492C792.684 609.858 792.732 608.218 794.371 607.273C795.459 606.645 809.526 606.3 834.047 606.3H872.036V303.15V0L655.126 0.12455C535.825 0.19035 440.79 0.57105 443.934 0.9682C468.755 4.0984 487.03 24.5974 490.839 53.58C491.349 57.4575 492.199 64.4088 492.731 69.0266C493.322 74.1496 494.828 80.5651 496.598 85.4766C502.951 103.116 501.527 109.115 488.314 120.391C485.881 122.468 485.465 123.434 485.391 127.159C485.273 133.012 486.006 133.532 494.989 133.938C516.911 134.935 533.996 143.529 543.061 158.124C545.956 162.789 546.806 162.956 558.273 161.144C571.03 159.126 577.117 159.678 583.711 163.457C591.3 167.804 594.868 167.515 605.64 161.68C621.708 152.976 632.986 152.181 657.596 158.026C665.173 159.826 666.176 158.891 662.501 153.455C658.703 147.836 655.963 141.971 650.999 128.82C640.694 101.527 627.597 81.3547 614.408 72.467C608.746 68.6506 606.289 68.7328 602.579 72.8594C592.442 84.1324 584.226 86.0641 577.672 78.7109C569.835 69.9196 560.697 67.6706 549.557 71.7949C543.364 74.0885 543.771 74.2342 557.324 74.5491C570.361 74.8546 573.65 75.9567 575.976 80.8095C578.178 85.3967 577.701 87.9417 574.317 89.6713C566.677 93.5794 562.079 92.8086 555.212 86.473C550.627 82.243 549.71 81.78 545.903 81.78C538.448 81.78 531.984 72.8688 531.964 62.5664C531.949 54.5811 547.684 31.2245 556.492 26.1579C568.567 19.2136 606.054 25.3706 623.516 37.17C628.551 40.5704 637.773 46.3373 644.008 49.9845C686.986 75.1201 694.675 80.0857 708.972 91.9344C736.241 114.534 751.181 135.884 757.429 161.187C760.077 171.919 761.054 174.532 765.142 181.834C775.954 201.153 756.517 220.693 719.795 227.421C701.353 230.801 700.053 232.034 714.858 232.114C729.444 232.192 729.252 231.87 720.207 241.04C705.292 256.166 689.759 266.749 672.548 273.514C661.958 277.676 661.67 278.835 665.33 302.49C676.854 376.942 668.626 428.915 645.861 425.505C640.816 424.748 590.373 406.844 577.71 401.312C567.54 396.873 565.43 396.217 562.301 396.532C560.952 396.666 560.932 396.969 562.083 399.939C565.41 408.522 563.014 418.168 554.837 429.126C545.703 441.365 540.606 451.449 537.504 463.42C532.023 484.57 540.222 533.774 550.268 540.014C553.272 541.882 555.014 541.917 663.05 542.38L772.778 542.85L774.884 545.487C776.042 546.939 777.003 548.843 777.023 549.717C777.04 550.593 777.079 586.616 777.105 629.769L777.158 708.231L774.908 710.316L772.658 712.4L438.013 712.696C253.958 712.858 101.855 712.722 100.004 712.393C92.4524 711.051 93.0606 718.426 93.0257 627.951L92.993 547.966L95.367 545.407L97.7432 542.85L207.811 542.81C310.391 542.772 318.071 542.66 320.705 541.146C331.304 535.053 338.577 471.589 332.804 435.565C329.057 412.185 324.662 401.173 307.525 372.24C291.34 344.914 274.646 298.969 274.552 281.499C274.513 274.078 276.126 270.793 282.365 265.574C284.853 263.494 288.334 259.764 290.1 257.29C294.105 251.678 293.712 251.062 298.663 270.72C309.692 314.517 317.572 334.349 332.18 355.057C337.683 362.856 338.875 363.27 335.106 356.067C327.341 341.236 320.103 319.224 310.134 280.12C302.077 248.513 295.445 226.954 294.009 227.675C293.708 227.828 290.514 229.517 286.911 231.435C270.6 240.107 256.486 240.139 216.983 231.6C203.347 228.65 210.364 234.138 226.379 238.946C233.723 241.15 271.661 242.104 284.962 240.419C291.613 239.578 291.632 239.672 286.969 249.718C268.817 288.815 219.352 292.852 171.532 259.137C161.203 251.857 142.189 234.669 143.227 233.55C143.375 233.39 148.3 232.958 154.17 232.587C165.931 231.844 167.416 230.993 159.83 229.341C132.039 223.285 130.273 222.785 123.267 218.973C101.613 207.188 97.4533 194.921 108.51 175.451C109.642 173.461 111.187 168.5 111.944 164.427C118.745 127.878 144.683 99.4027 204.956 62.3173C240.426 40.4952 250.627 34.4487 256.382 31.8425C276.811 22.5906 309.648 20.9526 318.25 28.7546C321.25 31.4759 335.324 53.1758 337.157 57.9064C341.4 68.855 336.791 76.3703 323.511 80.1562C319.826 81.2066 317.768 82.579 314.392 86.2333C306.947 94.2914 293.028 93.7932 293.028 85.4695C293.028 77.6346 298.257 74.2741 310.524 74.2295C317.553 74.2036 318.529 74.018 317.226 72.9511C315.508 71.5458 315.229 67.257 316.604 63.3584C318.479 58.038 315.905 58.8793 312.536 64.6838C307.887 72.702 301.061 74.5209 288.641 71.0476C283.032 69.4778 281.652 69.8491 286.85 71.527C291.724 73.1015 292.55 74.3517 291.338 78.3161C289.657 83.8034 286.47 86.3061 283.606 84.3862C282.313 83.519 279.294 81.679 276.896 80.2972C274.498 78.9154 270.689 75.9356 268.431 73.6725C262.519 67.7482 260.073 68.2581 249.351 77.6511C237.403 88.118 229.583 101.84 216.732 134.89C213.514 143.162 209.385 152.085 207.556 154.722L204.228 159.513L218.326 156.839C243.784 152.007 257.055 154.393 271.036 166.305C273.51 168.415 275.843 170.147 276.216 170.156C276.59 170.164 278.049 172.678 279.457 175.742C282.108 181.509 283.438 182.21 283.433 177.839C283.429 175.096 280.495 169.2 279.134 169.2C277.726 169.2 279.95 163.687 281.583 163.128C306.053 154.755 339.241 164.484 371.418 189.459C376.923 193.732 379.574 192.637 376.304 187.441C372.162 180.861 373.917 176.076 382.785 169.778C390.404 164.366 391.206 162.89 389.959 156.592C389.438 153.963 388.597 148.44 388.091 144.318C386.31 129.861 384.555 125.462 376.958 116.426C368.582 106.462 367.773 98.7212 373.644 84.7034C376.09 78.8637 376.927 75.3105 377.684 67.5719C381.98 23.5846 397.41 4.13835 430.804 0.62275C432.482 0.4465 336.246 0.23265 216.946 0.1504L0.0356445 0V303.15ZM553.457 59.8545C552.265 61.1423 552.951 62.98 554.628 62.98C555.587 62.98 556.372 62.6087 556.372 62.1552C556.372 60.9214 554.118 59.1425 553.457 59.8545ZM420.948 125.382C406.948 130.998 402.54 142.713 394.191 196.46C391.027 216.811 388.917 225.779 385.444 233.625C377.461 251.657 362.221 254.999 349.614 241.479C343.95 235.407 343.224 235.524 343.891 242.417C346.296 267.207 362.546 276.047 386.602 265.651C392.266 263.202 397.31 261.348 397.812 261.529C399.767 262.232 392.743 270.172 387.345 273.357C381.163 277.006 381.387 278.202 388.261 278.226C398.234 278.261 407.369 271.427 413.726 259.177C417.53 251.845 417.573 251.826 421.085 256.138C424.451 260.272 425.914 266.006 425.221 272.365C424.514 278.872 429.426 279.258 431.122 272.83C434.294 260.812 435.34 247.937 434.196 235C429.927 186.726 429.825 179.512 433.352 175.707C438.876 169.755 447.895 176.17 443.504 182.929C441.697 185.709 439.528 200.309 439.537 209.62C439.55 223.605 442.484 231.649 451.211 241.62C459.667 251.286 461.742 258.084 459.61 269.155C456.198 286.872 436.642 293.466 406.388 287.104C376.046 280.724 370.511 291.905 353.536 393.86C352.803 398.255 351.644 404.961 350.957 408.766C349.13 418.883 349.385 427.956 351.7 435.22C353.534 440.973 356.533 446.796 380.509 491.15C395.178 518.285 396.07 520.229 396.07 525.037C396.07 530.04 392.88 536.543 388.943 539.562C387.507 540.665 386.332 541.962 386.332 542.443C386.332 543.402 499.644 543.687 502.933 542.735C505.826 541.898 506.088 539.384 504.019 532.315C498.344 512.942 502.737 496.332 520.875 468.562C538.48 441.61 541.696 435.22 537.654 435.22C532.917 435.22 522.364 429.987 522.364 427.637C522.364 427.155 524.646 426.76 527.437 426.76C542.906 426.76 553.756 420.589 553.756 411.788C553.756 406.508 552.454 403.232 544.205 387.75C535.354 371.136 532.241 363.881 531.498 358.126L530.953 353.91L533.532 358.796C542.986 376.693 553.873 382.827 614.333 404.32C645.239 415.306 648.054 415.889 652.161 412.164C662.651 402.649 663.573 353.941 654.413 293.322C650.554 267.79 647.073 238.111 647.064 230.695C647.06 224.742 647.049 224.77 654.489 210.158C664.868 189.774 652.529 167.32 630.952 167.32C616.232 167.32 606.703 176.212 607.181 189.504C607.375 194.846 607.225 195.264 603.139 200.871C595.533 211.307 596.346 218.08 605.204 218.08C612.544 218.08 614.041 220.456 607.126 221.133C579.569 223.826 574.57 262.956 600.434 273.491C604.916 275.317 606.828 275.552 614.181 275.187C623.834 274.706 624.383 275.058 624.394 281.704C624.396 283.676 625.181 288.806 626.138 293.104C628.059 301.745 628.447 320.31 626.993 334.17C626.561 338.306 625.931 349.41 625.595 358.845C625.26 368.28 624.662 376 624.27 376C623.163 376 621.161 372.179 619.969 367.789C618.619 362.824 617.503 361.806 610.436 359.108C591.016 351.692 575.902 340.597 550.8 315.332C535.884 300.318 528.043 296.105 515.011 296.095C502.133 296.086 497.741 292.897 493.119 280.198C489.184 269.385 491.436 267.602 501.95 273.204C515.51 280.428 529.754 277.805 526.787 268.633C524.095 260.307 527.28 251.053 535.531 243.223C542.91 236.22 543.396 233.959 539.448 224.994C534.511 213.787 535.479 209.705 543.531 207.752L546.344 207.068L544.129 206.093C539.937 204.246 538.029 198.335 537.983 187.06C537.92 170.864 535.912 163.114 530.386 157.732C516.741 144.445 493.581 139.494 475.712 146.043C466.599 149.382 465.889 149.112 456.528 138.706C444.775 125.643 432.116 120.9 420.948 125.382ZM587.482 173.045C584.178 178.485 585.564 181.888 589.237 177.357C593.022 172.692 593.273 172.102 592.124 170.61C590.537 168.549 590.061 168.798 587.482 173.045ZM379.687 194.065C379.074 195.788 379.966 197.4 381.536 197.4C383.33 197.4 384.01 195.626 382.811 194.068C381.47 192.326 380.306 192.324 379.687 194.065ZM570.049 240.64C569.275 242.628 556.304 293.738 555.186 299.209C553.924 305.392 556.912 310.184 560.514 307.749C564.017 305.38 573.005 267.219 572.857 255.342C572.763 247.916 570.938 238.358 570.049 240.64ZM596.743 284.973C593.678 289.024 582.885 329.961 584.191 332.588C585.102 334.424 596.368 341.824 604.443 345.889C617.287 352.357 617.767 351.247 617.593 315.523C617.444 285.071 617.798 286.359 609.317 285.4C606.335 285.062 602.5 284.545 600.796 284.251C598.744 283.899 597.373 284.143 596.743 284.973ZM417.998 344.174C419.047 344.764 421.563 346.879 423.59 348.874C425.617 350.869 427.678 352.5 428.168 352.5C428.659 352.5 429.06 352.923 429.06 353.44C429.06 355.05 426.367 354.481 421.56 351.858C415.751 348.686 413.848 349.424 410.445 356.164C407.227 362.537 407.759 364.833 414.445 373.42C424.896 386.845 431.514 400.144 435.111 414.949C443.147 448.025 439.26 468.686 422.282 483.139C414.242 489.982 415.334 490.769 408.199 473.01C400.89 454.817 394.195 441.401 388.078 432.691C382.634 424.939 382.305 422.878 384.572 410.766C388.139 391.74 395.736 371.551 406.024 353.774C412.324 342.889 413.726 341.765 417.998 344.174ZM504.318 427.897C499.103 437.495 487.124 437.659 474.316 428.311C463.99 420.772 464.068 420.504 475.716 423.543C491.059 427.545 497.233 426.476 502.87 418.833L505.36 415.459L505.626 420.229C505.811 423.55 505.412 425.881 504.318 427.897ZM168.332 599.459C159.939 611.179 143.347 634.277 131.459 650.788C119.574 667.299 109.96 680.917 110.095 681.049C110.232 681.18 127.679 681.444 148.866 681.629L187.389 681.97L190.158 679.15C191.679 677.599 195.303 673.033 198.206 669.005C204.347 660.486 204.197 660.425 206.196 672.267C208.047 683.223 206.593 682.44 225.084 682.44C239.718 682.44 239.836 682.424 239.836 680.365C239.836 677.04 231.133 615.841 229.705 609.12C228.266 602.35 225.086 582.323 225.04 579.745C225.014 578.225 223.442 578.102 204.302 578.126L183.592 578.152L168.332 599.459ZM197.993 611.705C197.999 612.093 199.347 621.928 200.986 633.56C202.627 645.193 203.672 655.037 203.31 655.436C201.851 657.041 167.887 655.775 167.998 654.118C168.21 650.995 197.943 608.951 197.993 611.705ZM340.364 612.849C334.648 616.607 327.225 632.712 328.815 637.905C330.563 643.616 332.577 644.311 348.986 644.861C364.109 645.366 366.038 645.902 365.037 649.303C364.032 652.717 360.83 653.3 343.039 653.3H325.989L323.077 656.44C315.094 665.045 317.457 666.622 337.5 666.056C346.372 665.807 357.791 665.584 362.877 665.56C373.856 665.513 376.572 664.119 380.435 656.559C390.659 636.547 387.703 631.689 365.292 631.682C350.706 631.68 348.097 630.888 350.288 627.135C351.072 625.791 353.582 625.504 368.111 625.1C384.215 624.654 385.163 624.522 387.96 622.374C390.805 620.186 394.502 613.261 393.632 611.747C392.569 609.891 343.316 610.911 340.364 612.849ZM410.076 611.63C407.061 612.936 405.224 621.949 407.547 624.026C408.297 624.698 415.74 625.154 428.693 625.316L448.68 625.57L448.961 627.711C449.153 629.158 448.263 630.907 446.214 633.116L443.186 636.38H422.563C396.719 636.38 398.479 635.572 392.505 650.203C386.199 665.647 386.098 664.991 394.825 665.323C403.778 665.663 404.755 665.09 408.058 657.556C411.28 650.203 409.982 650.612 431.24 650.252C450.323 649.93 453.037 649.122 459.915 641.707C467.931 633.067 474.323 614.408 470.1 611.973C468.389 610.986 412.3 610.664 410.076 611.63ZM493.034 612.025C483.265 615.075 476.32 625.871 466.724 652.919C462.52 664.768 469.174 667.257 501.069 665.764C526.955 664.554 528.559 663.154 541.528 630.43C545.592 620.177 545.476 616.748 540.931 612.894C538.478 610.814 499.19 610.1 493.034 612.025ZM558.175 613.731C556.189 616.739 555.783 622.21 557.418 623.972C558.17 624.783 564.052 625.1 578.374 625.1C600.19 625.1 600.462 625.175 597.912 630.489C595.324 635.884 595.381 635.872 571.523 636.38C545.378 636.937 548.131 635.492 541.487 652.149C536.202 665.393 536.25 665.661 544.011 666.265C551.127 666.822 553.666 665.179 557.85 657.316L561.24 650.95L566.799 650.666C572.975 650.351 576.34 651.453 578.224 654.412C584.23 663.835 594.081 668.493 602.941 666.096C606.028 665.262 605.893 664.827 600.392 657.981C594.607 650.778 594.502 651.314 602.559 646.953C610.386 642.718 613.204 639.085 617.778 627.325C624.549 609.917 626.426 611 589.505 611H559.977L558.175 613.731ZM633.232 613.395C627.736 620.926 630.505 625.1 641.001 625.1C650.038 625.1 650.022 624.475 641.448 644.631C637.33 654.311 633.964 662.97 633.969 663.875C633.98 665.635 647.914 666.399 650.295 664.768C651.59 663.88 659.597 646.525 662.437 638.446C666.549 626.75 669.006 624.818 679.921 624.705C687.874 624.621 690.721 622.83 693.716 616.024C695.953 610.948 696.254 611 664.511 611H634.978L633.232 613.395ZM706.521 613.799C702.429 616.993 695.892 630.31 695.892 635.445C695.892 642.939 699.388 644.84 713.166 644.84C731.378 644.84 735.539 646.365 730.381 651.147C727.99 653.364 727.704 653.394 711.681 653.215C693.302 653.011 691.383 653.519 688.148 659.429C684.359 666.354 685.114 666.514 718.071 665.746L740.688 665.219L744.244 661.375C752.116 652.861 755.161 639.924 750.479 634.876L747.514 631.68H733.146C717.775 631.68 715.183 630.933 717.4 627.135C718.184 625.791 720.694 625.504 735.225 625.1C754.381 624.567 756.079 623.97 759.6 616.53C762.253 610.925 762.589 611 735.21 611H710.105L706.521 613.799ZM523.066 627.192C523.502 629.633 516.247 646.821 513.535 649.775C508.826 654.905 485.38 653.34 487.176 648.015C489.391 641.447 496.304 627.004 497.64 626.155C500.535 624.315 522.715 625.22 523.066 627.192ZM859.828 664.366C836.864 694.326 837.33 690.454 854.129 711.58C859.267 718.043 865.302 725.758 867.536 728.723L871.6 734.119L871.833 712.445C871.964 700.523 871.964 681.375 871.833 669.889L871.6 649.009L859.828 664.366ZM0.0356445 691.37C0.0356445 725.962 0.210045 731.527 1.25426 730.347C13.2508 716.804 27.0676 696.369 27.0676 692.169C27.0676 687.483 13.7718 667.024 1.2172 652.393C0.220945 651.234 0.0356445 657.377 0.0356445 691.37ZM741.358 726.869C746.622 729.271 746.729 730.298 746.206 773.493C745.598 823.595 745.713 822.846 732.306 863.86C730.194 870.323 728.001 877.612 727.43 880.059C725.612 887.87 726.15 887.799 696.825 884.063C617.231 873.918 587.234 870.79 542.941 868.015C528.322 867.098 527.532 865.785 532.422 850.482C553.876 783.337 544.733 764.356 483.908 749.775C437.276 738.593 389.414 743.744 353.196 763.839C322.34 780.959 319.421 804.513 340.724 864.476C341.142 865.651 338.23 865.956 310.468 867.658C261.289 870.67 223.483 874.346 174.44 880.879C142.682 885.109 144.452 885.614 139.209 870.847C128.841 841.645 124.895 813.138 124.128 761.87C123.653 730.053 123.692 728.916 125.342 727.327C126.955 725.769 142.566 725.666 420.407 725.384C757.431 725.041 737.144 724.947 741.358 726.869ZM381.1 779.072C376.796 779.655 359.727 789.36 356.071 793.301C348.297 801.681 348.759 806.278 361.539 847.88C372.837 884.655 372.84 884.679 364.514 896.786C356.3 908.731 347.964 929.101 347.964 937.229C347.964 939.864 348.147 940 351.681 940H355.397L357.076 933.681C359.252 925.491 365.648 911.455 372.798 899.176C380.433 886.065 380.614 888.18 368.456 848.164C354.037 800.704 354.329 798.817 378.065 786.08C389.615 779.883 390.519 777.794 381.1 779.072ZM44.3616 780.672C44.1218 780.931 36.6466 782.797 27.7522 784.818C10.7242 788.691 8.04714 789.732 3.09854 794.415L0.0356445 797.315L0.0421845 820.481C0.0530845 852.155 3.63046 881.971 5.67312 867.39C7.17514 856.664 7.9425 856.011 11.0185 862.84L12.8453 866.894L13.4099 860.443C13.7217 856.892 13.9789 852.007 13.9811 849.581C13.9855 847.156 14.3975 844.898 14.8989 844.564C16.2483 843.664 18.3476 845.93 18.3476 848.287C18.3476 852.148 20.3445 853.936 23.3791 852.796C26.4245 851.652 27.0219 852.418 27.1287 857.593C27.3925 870.365 29.2716 864.586 31.0527 845.53C33.1019 823.616 34.0851 822.641 36.7032 839.937C37.6232 846.012 38.5214 851.142 38.7023 851.335C39.1841 851.854 39.9405 844.085 41.4665 822.97C42.707 805.775 45.0461 789.379 47.0779 783.617C48.0632 780.823 46.147 778.745 44.3616 780.672ZM417.724 793.774C380.428 799.616 369.153 808.536 375.464 827.2C376.777 831.078 379.201 839.538 380.853 846C385.377 863.693 385.104 863.552 401.038 856.396C420.904 847.474 447.459 847.344 465.248 856.084C483.686 865.143 486.893 862.68 493.064 834.72C494.717 827.224 496.572 819.304 497.182 817.121C501.822 800.56 457.513 787.539 417.724 793.774ZM505.789 808.612C505.776 821.572 503.539 831.724 495.005 857.56C489.271 874.917 489.243 875.14 492.668 875.14C498.087 875.14 499.16 872.884 506.751 845.53C516.288 811.164 516.417 807.693 508.335 803.188L505.796 801.771L505.789 808.612ZM455.241 810.329C479.306 813.554 481.96 815.622 478.674 828.61C476.52 837.131 472.533 838.555 459.436 835.479C445.355 832.175 422.295 832.382 410.451 835.919C396.99 839.937 395.298 839.319 392.431 829.315C390.025 820.914 390.873 818.566 397.243 815.995C411.02 810.44 437.065 807.895 455.241 810.329ZM852.852 835.3C852.852 836.628 852.472 837.399 851.98 837.07C851.5 836.75 851.108 835.432 851.108 834.14C851.108 832.812 851.487 832.041 851.98 832.37C852.459 832.69 852.852 834.008 852.852 835.3ZM19.2196 834.664C19.2196 835.667 18.8272 836.75 18.3476 837.07C17.8528 837.399 17.4756 836.609 17.4756 835.246C17.4756 833.923 17.868 832.84 18.3476 832.84C18.8272 832.84 19.2196 833.66 19.2196 834.664ZM81.7028 856.178C79.4051 858.918 79.7364 877.109 82.5617 903.173C83.2659 909.678 85.3216 911.18 92.7925 910.658C104.275 909.854 107.852 905.697 104.83 896.661C91.5935 857.085 87.2814 849.534 81.7028 856.178ZM781.01 856.519C775.719 865.247 762.164 903.892 762.164 910.258C762.164 910.463 766.927 911.607 772.748 912.804L783.331 914.977L784.825 912.987C788.217 908.47 791.65 862.683 788.999 857.28C787.375 853.967 782.821 853.534 781.01 856.519ZM410.133 863.423C404.506 865.056 394.699 870.144 392.789 872.419C390.41 875.251 396.645 873.683 408.132 868.555C413.647 866.095 419.337 863.641 420.776 863.106C425.038 861.515 415.746 861.792 410.133 863.423Z" fill="#FBFBFB"/>
</svg>
