<svg width="1557" height="1036" viewBox="0 0 1557 1036" fill="none" xmlns="http://www.w3.org/2000/svg">
<path fill-rule="evenodd" clip-rule="evenodd" d="M1152.41 92.7087C1140.86 94.9846 1137.84 95.6972 1136.89 96.389C1136.28 96.8282 1134.04 97.8555 1131.9 98.6753C1129.77 99.4916 1126.74 101.041 1125.18 102.113C1123.62 103.186 1121.05 104.386 1119.47 104.784C1117.88 105.181 1115.46 106.71 1114.07 108.184C1112.69 109.657 1111.07 110.861 1110.48 110.861C1109.89 110.861 1106.49 113.732 1102.94 117.236C1093.37 126.672 1094.73 130.117 1105.85 124.572C1118.48 118.273 1132.2 124.804 1141.08 141.348L1144.65 147.999L1144.59 169.617L1144.53 191.235L1140.85 200.107C1134.87 214.534 1132.45 218.64 1126.4 224.697C1115.56 235.53 1099.81 237.104 1090.76 228.259C1084.87 222.497 1081.97 226.654 1086.91 233.78C1088.48 236.056 1089.77 238.442 1089.77 239.086C1089.77 239.729 1092.27 243.589 1095.32 247.667C1098.36 251.749 1100.86 255.463 1100.86 255.927C1100.86 259.545 1120.63 275.726 1126.23 276.694C1128.43 277.075 1132.38 278.081 1134.99 278.932C1147.36 282.962 1168.8 276.663 1183.27 264.747C1191.79 257.732 1192.78 257.871 1198.63 266.899C1217.03 295.272 1226.2 350.863 1220.64 400.211C1218.16 422.227 1217.28 432.967 1216.22 454.533C1215.09 477.524 1214.4 482.934 1212.41 484.19C1211.73 484.618 1197.95 484.826 1181.79 484.646C1151.66 484.311 1131.91 485.521 1122.94 488.247C1120.14 489.098 1114.4 490.16 1110.19 490.606C1105.42 491.111 1101.52 492.2 1099.88 493.487C1098.42 494.622 1096.24 495.552 1095.03 495.552C1093.82 495.552 1090.01 496.773 1086.59 498.267C1074.05 503.722 1049.79 504.009 1032.12 498.911C1028.16 497.766 1021.93 496.521 1018.27 496.144C1014.61 495.763 1006.99 494.635 1001.34 493.632C991.713 491.927 990.277 491.934 978.614 493.75C971.766 494.819 964.415 495.953 962.281 496.275C960.147 496.6 956.308 497.814 953.752 498.98C951.192 500.142 946.855 501.097 944.108 501.097C940.317 501.097 938.394 501.764 936.125 503.867C934.479 505.393 931.978 506.638 930.567 506.638C929.152 506.638 925.112 507.759 921.58 509.128C913.085 512.428 897.555 512.639 890.184 509.554C880.302 505.417 880.299 505.417 881.627 503.286C885.456 497.157 913.258 494.916 922.372 500C927.786 503.023 935.675 503.376 935.675 500.592C935.675 498.904 938.066 497.769 941.642 497.769C947.477 497.769 948.605 488.911 943.966 479.479C942.465 476.428 941.234 473.422 941.227 472.796C941.22 471.807 936.492 466.736 930.352 461.129C925.409 456.619 907.714 447.39 901.917 446.304C899.665 445.879 896.234 444.568 894.297 443.385C892.073 442.029 888.759 441.237 885.304 441.234C881.264 441.23 879.181 440.618 877.334 438.885C875.795 437.439 872.793 436.319 869.503 435.966C866.418 435.634 863.353 434.541 862.233 433.375C859.832 430.871 852.818 429.411 851.161 431.068C849.418 432.811 851.901 435.381 856.207 436.291C858.148 436.699 860.732 437.927 861.953 439.016C863.17 440.106 866.819 441.351 870.06 441.784C874.847 442.42 876.137 443.056 876.94 445.173C877.822 447.487 878.739 447.816 885.196 448.106C894.317 448.522 894.719 450.542 885.764 450.984C880.364 451.251 878.507 450.877 876.179 449.044C874.162 447.46 871.658 446.775 867.867 446.775C864.571 446.775 859.85 445.685 855.855 444.001C852.233 442.479 848.632 441.23 847.851 441.227C846.111 441.227 833.759 434.849 831.466 432.77C830.549 431.943 828.149 429.944 826.125 428.329C822.393 425.343 813.725 413.019 813.725 410.695C813.725 409.993 812.854 407.724 811.788 405.649C809.035 400.294 809.011 369.175 811.75 356.422C814.666 342.849 815.984 325.402 815.97 300.654C815.963 286.026 816.344 278.379 817.06 278.821C817.693 279.212 818.16 285.31 818.16 293.155C818.16 303.099 818.758 309.177 820.363 315.537C822.22 322.912 822.563 328.045 822.58 348.539C822.611 394.317 827.215 420.715 831.328 398.703C832.424 392.826 833.894 390.658 835.928 391.917C836.921 392.529 837.059 396.479 836.471 407.475L835.682 422.213L839.823 426.236C844.416 430.694 848.888 431.289 848.335 427.374C847.754 423.247 848.19 394.604 848.857 392.861C849.331 391.626 850.421 391.308 852.645 391.754C857.193 392.664 861.157 388.759 866.186 378.427C868.518 373.64 871.316 367.978 872.405 365.844C878.337 354.242 878.109 337.747 871.89 328.719C868.476 323.763 867.943 322.227 868.559 319.111C869.4 314.86 874.74 295.804 878.299 284.362C881.931 272.685 882.011 232.576 878.417 225.049C877.106 222.306 875.719 218.232 875.332 215.994C872.229 197.925 840.234 165.183 825.683 165.183C824.866 165.183 823.044 164.377 821.632 163.388C819.298 161.752 815.085 160.437 797.098 155.73C787.036 153.094 752.807 153.54 744.994 156.408C741.638 157.636 736.9 159.147 734.461 159.759C732.023 160.372 728.778 161.703 727.253 162.72C723.714 165.076 718.882 167.853 713.915 170.392C705.448 174.716 686.77 193.65 683.159 201.567C682.135 203.812 680.164 207.06 678.777 208.782C677.393 210.505 676.258 212.77 676.258 213.815C676.258 214.859 675.224 217.689 673.962 220.103C671.717 224.403 670.735 229.082 668.459 246.349C667.047 257.051 669.569 274.965 673.606 282.934C675.065 285.812 676.258 288.866 676.258 289.717C676.258 290.571 677.31 292.605 678.597 294.241C686.832 304.711 689.669 316.132 685.231 320.944C677.69 329.124 675.674 337.515 678.572 348.66C679.205 351.098 680.385 355.986 681.191 359.521C681.997 363.052 683.411 366.795 684.335 367.832C685.259 368.874 686.777 371.575 687.711 373.834C689.956 379.271 698.755 388.012 702.003 388.032C708.603 388.077 709.236 390.672 710.111 421.31C710.996 452.292 709.689 470.959 706.147 477.901C704.95 480.243 703.975 483.135 703.975 484.328C703.975 490.699 682.837 507.748 674.937 507.748C673.498 507.748 671.333 508.423 670.129 509.253C663.761 513.628 642.984 514.002 635.277 509.875C619.951 501.667 602.024 495.566 593.148 495.535C590.385 495.524 585.13 494.795 581.471 493.913C572.955 491.855 560.942 491.803 551.334 493.781C547.179 494.639 539.037 495.68 533.247 496.099C527.453 496.517 519.003 497.814 514.469 498.98C502.861 501.958 481.436 501.941 472.554 498.942C469.047 497.759 463.211 496.444 459.587 496.019C455.758 495.569 452.129 494.431 450.912 493.3C449.76 492.225 446.069 491.011 442.676 490.585C439.297 490.163 434.219 488.825 431.397 487.61C423.085 484.034 402.933 482.969 373.235 484.532C351.884 485.656 347.684 485.629 346.405 484.335C344.734 482.65 340.348 447.698 340.348 436.059C340.348 432.299 339.31 417.834 338.044 403.909C334.437 364.221 336.879 319.999 343.682 301.813C344.897 298.572 345.889 295.071 345.889 294.037C345.889 292.999 347.076 289.651 348.525 286.593C349.978 283.536 351.731 279.786 352.423 278.264C353.118 276.739 355.176 273.246 356.996 270.503C358.819 267.76 361.181 264.145 362.246 262.471C364.135 259.503 371.388 257.857 371.388 260.399C371.388 261.807 380.551 270.503 382.035 270.503C382.723 270.503 384.618 271.554 386.248 272.837C392.747 277.95 419.142 281.616 422.275 277.839C422.985 276.985 426.378 276.103 429.954 275.847C438.138 275.252 442.541 272.191 453.426 259.535C459.234 252.776 465.052 244.513 466.774 240.569C467.442 239.048 468.905 236.803 470.029 235.582C471.931 233.52 472.706 230.885 472.398 227.543C472.191 225.267 468.092 225.976 466.245 228.609C464.197 231.538 456.992 233.887 450.099 233.876C412.76 233.821 396.617 143.987 430.736 126.115C438.781 121.902 445.744 121.521 452.53 124.932C460.469 128.92 464.062 126.682 458.691 121.096C457.321 119.671 454.948 117.222 453.426 115.652C450.417 112.559 443.745 107.834 439.138 105.538C437.543 104.746 435.492 103.618 434.579 103.033C433.666 102.449 429.176 100.107 424.6 97.8244L416.288 93.6772H400.765C388.209 93.6772 384.612 94.0369 381.921 95.5623C380.091 96.5965 377.566 97.9213 376.31 98.5023C371.769 100.605 357.532 116.129 354.671 122.089C346.906 138.287 345.889 140.549 345.889 141.683C345.889 143.675 343.395 148.556 342.375 148.556C341.86 148.556 339.369 150.05 336.844 151.88C334.319 153.71 331.742 155.207 331.12 155.207C330.497 155.207 329.145 155.968 328.117 156.902C325.949 158.863 322.089 154.761 318.886 147.1C317.948 144.852 316.665 143.011 316.039 143.011C315.413 143.011 314.016 141.351 312.933 139.324C305.687 125.731 283.999 117.644 264.571 121.29C260.413 122.071 250.548 129.207 250.548 131.434C250.548 132.22 249.3 134.347 247.778 136.159C245.931 138.349 245.004 140.801 245.004 143.485C245.004 145.913 244.388 147.754 243.454 148.11C242.603 148.438 241.327 150.991 240.625 153.786C239.923 156.581 238.556 160.392 237.595 162.253C233.728 169.731 231.843 194.967 233.382 218.675C233.946 227.367 233.852 231.701 233.095 231.701C232.424 231.701 231.773 227.083 231.507 220.442C231.102 210.328 230.805 209.017 228.605 207.558C225.509 205.503 224.98 187.123 227.82 180.322C230.355 174.259 229.954 158.531 227.263 158.531C224.731 158.531 221.916 167.587 223.355 171.094C224.278 173.339 224.458 175.508 223.853 177.102C222.763 179.966 222.805 179.952 219.024 178.513C215.825 177.299 215.185 178.745 217.595 181.727C219.363 183.909 218.536 226.862 216.734 226.471C215.102 226.118 214.171 217.443 214.06 201.581C213.957 186.666 213.514 184.03 211.114 184.03C208.094 184.03 207.361 188.645 206.786 211.248C206.465 223.922 205.953 234.541 205.648 234.845C204.272 236.218 203.705 232.714 201.885 211.574C200.156 191.477 199.858 189.744 199.135 195.673C197.918 205.687 197.662 206.479 194.435 210.2C189.035 216.426 187.538 222.313 189.388 230.037C190.927 236.45 196.057 243.897 198.938 243.897C200.308 243.897 205.102 249.694 207.651 254.436C210.263 259.289 220.94 268.033 227.267 270.503C229.401 271.336 232.285 272.882 233.676 273.941C235.063 274.996 238.176 276.196 240.594 276.604C243.008 277.012 246.961 278.302 249.376 279.468C251.79 280.634 255.09 281.588 256.709 281.588C258.327 281.588 262.022 282.782 264.92 284.238C267.822 285.694 272.243 287.23 274.75 287.655C283.65 289.16 284.916 291.211 284.906 304.12C284.895 317.084 283.162 334.084 281.54 337.111C280.931 338.249 279.966 342.877 279.392 347.394C278.821 351.908 277.379 358.532 276.193 362.111C275.003 365.688 273.713 370.862 273.322 373.605C272.927 376.348 271.91 379.662 271.056 380.966C270.202 382.273 268.915 386.763 268.199 390.945C267.483 395.127 266.248 399.824 265.456 401.38C264.668 402.937 263.263 408.177 262.34 413.019C261.416 417.865 259.884 423.683 258.929 425.952C257.978 428.218 257.2 431.978 257.2 434.305C257.2 436.633 256.138 441.51 254.837 445.149C253.353 449.307 252.157 456.29 251.617 463.959C251.143 470.665 250.116 480.969 249.334 486.856C248.082 496.251 248.141 498.9 249.801 508.475C250.842 514.476 251.683 521.162 251.676 523.33C251.624 534.306 266.252 553.62 277.254 557.113C278.641 557.553 282.007 559.099 284.729 560.545C287.451 561.994 290.627 563.18 291.789 563.18C292.947 563.18 295.265 563.886 296.936 564.751C298.61 565.619 303.2 567.134 307.136 568.123C315.098 570.122 315.51 570.292 334.25 579.347C341.566 582.882 348.798 586.863 350.324 588.195C351.849 589.527 358.085 593.252 364.18 596.469C370.278 599.689 377.936 603.739 381.201 605.476C384.463 607.212 387.856 608.634 388.741 608.634C389.627 608.634 392.193 609.564 394.449 610.706C400.692 613.864 415.942 618.609 419.847 618.609C421.757 618.609 427.474 619.56 432.552 620.722C440.376 622.514 448.21 622.947 483.913 623.559C514.614 624.081 526.641 624.652 528.256 625.662C529.477 626.423 533.967 627.72 538.235 628.54C542.503 629.359 547.152 630.784 548.567 631.704C549.981 632.625 552.7 634.171 554.606 635.139C556.512 636.108 561.264 640.891 565.166 645.772C569.071 650.649 574.328 657.024 576.853 659.932C579.378 662.845 581.834 666.283 582.312 667.573C583.09 669.683 587.085 674.958 591.478 679.676C592.377 680.641 593.11 681.713 593.11 682.059C593.11 682.405 595.109 685.853 597.551 689.727C599.993 693.598 602.843 698.513 603.885 700.647C604.922 702.781 606.378 705.275 607.115 706.192C608.44 707.828 609.837 711.242 614.635 724.562C615.97 728.263 617.852 733.002 618.82 735.094C619.785 737.183 620.916 741.749 621.331 745.239C622.424 754.409 624.192 756.065 634.16 757.266C638.719 757.812 644.44 758.788 646.879 759.431C649.317 760.071 665.532 761.071 682.91 761.648C700.287 762.226 720.937 763.205 728.799 763.824C749.407 765.443 807.707 765.162 838.671 763.291C853.305 762.406 872.762 761.659 881.907 761.627C894.228 761.589 901.107 761.005 908.457 759.379C913.915 758.175 920.401 757.186 922.871 757.183C928.661 757.179 934.306 753.762 935.167 749.739C935.53 748.041 936.578 744.409 937.495 741.666C938.411 738.923 940.065 733.683 941.168 730.027C942.272 726.367 944.229 721.279 945.523 718.716C946.813 716.153 947.868 713.628 947.868 713.106C947.868 711.985 954.602 698.679 958.38 692.332C959.832 689.893 961.87 686.403 962.904 684.574C963.938 682.744 965.505 680.499 966.387 679.582C967.265 678.669 969.071 676.207 970.399 674.114C971.727 672.018 973.561 669.223 974.477 667.905C975.39 666.584 977.12 664.055 978.32 662.288C979.52 660.521 981.516 658.037 982.754 656.771C983.993 655.505 987.254 651.763 989.997 648.456C996.583 640.521 1000.05 637.246 1003.96 635.274C1005.73 634.378 1008.04 632.787 1009.1 631.743C1010.15 630.694 1013.39 629.512 1016.3 629.114C1019.21 628.716 1024.19 627.454 1027.35 626.309C1032.44 624.468 1037.94 624.15 1075.02 623.535C1111.32 622.929 1117.98 622.552 1124.77 620.722C1129.07 619.56 1134.7 618.609 1137.27 618.609C1139.84 618.609 1144.91 617.364 1148.53 615.839C1152.15 614.313 1156.15 613.068 1157.41 613.068C1158.68 613.068 1162.06 611.819 1164.92 610.294C1167.79 608.772 1171.74 607.222 1173.7 606.852C1175.67 606.486 1177.85 605.486 1178.56 604.635C1179.26 603.784 1180.46 603.089 1181.22 603.089C1181.97 603.089 1184.53 601.771 1186.9 600.163C1189.27 598.554 1192.71 596.739 1194.54 596.13C1196.37 595.521 1198.86 594.151 1200.08 593.086C1201.3 592.024 1203.79 590.312 1205.62 589.285C1207.45 588.257 1210.94 586.206 1213.38 584.733C1218.93 581.378 1230.84 575.65 1236.57 573.581C1238.95 572.723 1241.48 571.541 1242.19 570.959C1242.88 570.378 1246.42 569.15 1250.04 568.237C1259.78 565.775 1270.51 562.195 1274.91 559.946C1277.05 558.853 1280.22 557.612 1281.97 557.19C1288.47 555.616 1294.57 549.317 1298.71 539.899C1299.65 537.764 1301.24 534.52 1302.24 532.69C1306.74 524.444 1309.79 486.033 1307.11 471.461C1306.52 468.272 1305.73 461.036 1305.35 455.384C1304.95 449.428 1303.8 442.994 1302.61 440.078C1301.47 437.308 1300.2 432.32 1299.79 428.989C1299.37 425.662 1298.11 420.695 1297 417.948C1295.88 415.205 1294.46 410.104 1293.85 406.614C1293.24 403.12 1292.02 399.129 1291.16 397.742C1290.29 396.358 1289.24 392.512 1288.83 389.198C1288.42 385.884 1287.16 381.146 1286.04 378.666C1284.91 376.189 1283.63 371.665 1283.19 368.618C1282.74 365.567 1281.46 361.24 1280.33 359.002C1279.21 356.764 1277.81 350.777 1277.23 345.699C1276.65 340.621 1275.61 334.97 1274.91 333.14C1272.89 327.834 1271.28 297.202 1272.83 293.466C1274.26 290.014 1278.9 287.133 1283.04 287.133C1284.52 287.133 1287.66 286.313 1290.02 285.314C1292.38 284.314 1297.56 282.609 1301.52 281.523C1330.48 273.595 1349.63 260.828 1355.08 245.813C1355.47 244.734 1357.27 243.554 1359.09 243.191C1367.13 241.583 1372.26 227.443 1368.16 218.149C1367.01 215.544 1365.24 211.456 1364.21 209.069L1362.35 204.728L1359.6 207.489C1356.9 210.19 1355.07 216.52 1353.12 229.895C1351.62 240.227 1350.54 233.219 1350.05 210.083C1349.58 187.026 1348.62 181.08 1345.54 182.107C1343.32 182.847 1342.76 187.413 1342.65 205.787C1342.53 225.181 1341.9 230.594 1339.78 230.594C1338.74 230.594 1338.4 225.71 1338.4 210.359C1338.39 181.9 1338.24 179.312 1336.4 176.884C1333.14 172.568 1332.08 176.49 1331.32 195.766C1330.54 215.62 1330.49 215.825 1327.19 214.057C1325.41 213.102 1325.12 212.234 1325.77 209.81C1326.71 206.254 1325.49 188.42 1323.69 179.596C1323.01 176.244 1322.08 170.648 1321.62 167.165C1321.16 163.682 1319.94 159.901 1318.91 158.763C1316.88 156.515 1316.26 147.446 1318.15 147.446C1320.66 147.446 1319.02 145.353 1315.98 144.685C1312.44 143.907 1310.47 140.268 1312.49 138.245C1314.93 135.806 1313.93 134.115 1310.76 135.319C1307.04 136.733 1305.28 135.253 1306.96 132.119C1307.98 130.203 1307.79 129.74 1305.68 129.079C1304.3 128.65 1301.57 126.896 1299.6 125.181C1284.1 111.66 1251.22 125.153 1234.7 151.814L1230.51 158.563L1227.49 156.48C1225.83 155.335 1221.67 152.603 1218.25 150.413C1212.59 146.782 1211.98 145.996 1211.37 141.572C1210.8 137.439 1208.6 132.555 1201.29 119.176C1191.4 101.086 1169.66 89.3121 1152.41 92.7087ZM409.08 101.92C409.08 102.487 407.959 103.289 406.586 103.705C405.213 104.12 402.843 105.652 401.321 107.112C399.796 108.571 395.182 112.995 391.066 116.945C386.95 120.892 383.581 124.821 383.581 125.672C383.581 126.523 382.837 127.841 381.924 128.598C381.011 129.356 379.551 132.368 378.683 135.298C377.815 138.224 376.445 141.783 375.643 143.202C374.84 144.623 373.429 148.528 372.509 151.88C371.032 157.252 370.461 158.02 367.725 158.334C363.436 158.825 362.949 160.693 361.413 182.429C359.638 207.572 359.144 207.606 356.989 182.726C355.529 165.85 356.978 147.463 360.271 141.026C361.43 138.764 362.713 135.042 363.125 132.756C363.537 130.469 364.308 128.598 364.837 128.598C365.366 128.598 366.778 126.73 367.971 124.444C371.845 117.025 384.767 105.32 389.084 105.32C390.042 105.32 392.56 104.351 394.687 103.165C398.675 100.941 409.08 100.038 409.08 101.92ZM1164.61 103.611C1167.65 104.687 1171.4 106.243 1172.92 107.07C1174.44 107.897 1177.31 109.429 1179.3 110.477C1181.27 111.525 1182.9 113.009 1182.9 113.777C1182.9 114.545 1183.77 115.821 1184.84 116.62C1187.66 118.72 1192.3 126.239 1193.95 131.372C1194.73 133.811 1196.08 136.616 1196.94 137.609C1198.95 139.909 1200.47 160.807 1199.13 167.518C1197.78 174.218 1196.31 170.312 1195.41 157.687C1194.62 146.488 1192.86 143.378 1189.55 147.293C1188.33 148.732 1187.33 150.631 1187.33 151.513C1187.33 154.702 1185.39 151.832 1184.72 147.66C1184.35 145.312 1183.03 142.226 1181.8 140.805C1180.56 139.38 1178.97 136.177 1178.26 133.686C1177.56 131.192 1176.06 128.124 1174.95 126.865C1173.83 125.606 1172.92 124.178 1172.92 123.687C1172.92 122.493 1159.97 109.754 1158.76 109.754C1157 109.754 1149.56 102.442 1150.43 101.567C1151.63 100.367 1158.02 101.287 1164.61 103.611ZM433.749 111.39C439.587 112.345 438.591 115.295 432.427 115.295C431.341 115.295 428.616 116.544 426.371 118.069C424.122 119.591 421.667 120.84 420.909 120.84C416.388 120.84 402.082 140.23 399.696 149.594C398.475 154.367 398.188 154.654 394.597 154.654H390.789L390.827 145.581C390.855 138.892 391.329 135.979 392.636 134.496C393.608 133.385 394.781 131.234 395.241 129.708C397.959 120.684 408.222 112.158 417.948 110.847C424.008 110.031 425.783 110.09 433.749 111.39ZM1148.84 114.621C1154.97 118.982 1160.47 125.513 1161.47 129.615C1161.86 131.192 1163.09 133.669 1164.22 135.125C1166.86 138.536 1166.99 146.584 1164.43 148.698C1163.41 149.535 1161.69 151.686 1160.59 153.481C1158.38 157.106 1158.36 157.072 1156.35 147.255C1155.64 143.797 1154.34 140.369 1153.46 139.635C1152.58 138.906 1151.86 137.588 1151.86 136.713C1151.86 131.535 1137.05 120.511 1121.92 114.424L1119.15 113.31L1121.92 112.155C1128.85 109.273 1143.16 110.584 1148.84 114.621ZM237.955 144.89C236.706 146.138 237.194 147.446 238.909 147.446C239.822 147.446 240.569 146.975 240.569 146.405C240.569 145.004 238.84 144.004 237.955 144.89ZM449.96 149.334C440.241 150.832 435.692 172.27 442.237 185.743C446.823 195.182 447.211 195.746 452.095 200.097C459.313 206.527 467.213 205.386 472.198 197.191C473.318 195.348 475.328 193.075 476.666 192.138C479.517 190.142 479.026 185.981 475.601 183.052C469.195 177.58 471.257 160.347 478.479 158.995C480.551 158.604 482.242 157.968 482.232 157.577C482.177 155.28 479.714 153.966 474.404 153.395C471.098 153.042 466.362 151.807 463.886 150.652C459.58 148.649 456.384 148.345 449.96 149.334ZM1096.98 150.009C1094.54 150.735 1091.45 151.949 1090.12 152.714C1088.79 153.475 1086.17 154.097 1084.3 154.097C1082.43 154.097 1080.9 154.561 1080.9 155.131C1080.9 155.699 1079.78 156.377 1078.41 156.643C1076.2 157.068 1076.25 157.141 1078.87 157.272C1087.1 157.694 1088.54 177.151 1080.88 184.297C1077.41 187.527 1078.24 190.101 1084.23 194.67C1087.28 196.998 1089.77 199.26 1089.77 199.699C1089.77 201.695 1093.58 203.985 1096.9 203.985C1114.43 203.985 1125.96 163.474 1111.56 152.489C1107.02 149.023 1102.75 148.297 1096.98 150.009ZM1322.86 149.383C1320.88 150.047 1321.14 153.734 1323.23 154.533C1325.56 155.429 1325.59 155.422 1326.22 153.775C1326.96 151.866 1324.6 148.795 1322.86 149.383ZM231.701 152.437C231.701 153.35 232.199 154.097 232.811 154.097C233.42 154.097 233.918 153.35 233.918 152.437C233.918 151.52 233.42 150.773 232.811 150.773C232.199 150.773 231.701 151.52 231.701 152.437ZM1327.76 155.944C1326.58 157.12 1326.9 169.545 1328.17 171.91C1329.82 174.999 1331.34 174.56 1333.19 170.451C1334.08 168.469 1335.35 166.093 1336.01 165.172C1337.67 162.845 1329.73 153.969 1327.76 155.944ZM316.876 163.747C316.004 164.802 313.587 165.231 309.398 165.076C301.394 164.782 297.517 166.39 296.607 170.385C295.033 177.296 289.492 180.741 285.283 177.427L282.422 175.179L277.849 179.883L273.273 184.584L273.387 206.098C273.488 225.302 273.709 227.765 275.456 229.041C277.607 230.615 279.06 239.189 277.728 242.458C276.556 245.339 275.12 241.555 275.017 235.305C274.958 231.856 274.484 230.594 273.246 230.594C271.105 230.594 269.821 227.211 268.797 218.879C268.351 215.261 267.31 210.055 266.483 207.312C264.74 201.515 264.508 195.528 265.996 194.608C266.563 194.258 267.608 191.18 268.313 187.773C269.174 183.636 270.672 180.457 272.824 178.206C274.595 176.352 276.047 174.408 276.047 173.889C276.047 173.37 277.919 172.938 280.205 172.931C286.566 172.907 289.423 171.786 290.526 168.884C291.08 167.428 292.415 165.909 293.49 165.505C294.566 165.103 296.098 163.868 296.894 162.762C297.745 161.582 299.806 160.717 301.885 160.672C303.833 160.628 306.403 160.212 307.599 159.745C310.93 158.441 318.55 161.731 316.876 163.747ZM1259.83 162.416C1262.19 163.55 1265.09 166.082 1266.25 168.047C1267.4 170.011 1269.58 171.928 1271.08 172.301C1274.33 173.118 1274.4 173.761 1271.67 177.317L1269.59 180.028L1265.72 177.075C1263.14 175.103 1261.52 172.723 1260.86 169.928L1259.87 165.74L1252.15 165.456C1242.91 165.121 1239.44 164.422 1239.44 162.91C1239.44 159.285 1252.6 158.967 1259.83 162.416ZM796.507 162.533C797.486 163.516 800.606 165.013 803.435 165.864C806.261 166.719 809.36 168.106 810.322 168.95C811.28 169.797 814.808 170.838 818.16 171.264C821.515 171.689 826.004 173.166 828.138 174.543C830.273 175.919 835.136 178.493 838.944 180.26C842.752 182.028 846.152 184.349 846.502 185.417C846.851 186.483 847.584 187.358 848.131 187.358C850.753 187.358 863.613 203.49 863.613 206.776C863.613 207.492 864.574 208.948 865.75 210.01C866.926 211.072 868.217 214.019 868.618 216.558C869.019 219.093 870.427 223.413 871.748 226.16C874.356 231.583 875.363 263.651 873.156 271.056L872.167 274.384L871.326 271.613C870.866 270.088 870.434 266.345 870.372 263.298C870.026 246.968 862.703 244.82 862.426 260.967C862.361 264.951 860.572 271.769 860.365 268.839C860.323 268.23 859.763 258.538 859.127 247.3C858.265 232.192 857.432 225.551 855.927 221.801C854.807 219.017 853.312 214.614 852.61 212.023C851.908 209.432 850.912 207.312 850.4 207.312C849.891 207.312 848.802 205.697 847.986 203.722C846.446 200.007 835.502 188.465 833.52 188.465C830.705 188.465 817.271 182.353 814.282 179.714C807.79 173.982 804.182 172.139 796.991 170.887C782.353 168.337 756.775 169.78 751.009 173.481C749.746 174.29 746.637 175.577 744.098 176.338C741.562 177.099 738.65 178.641 737.633 179.766C736.613 180.893 735.226 181.813 734.551 181.813C733.026 181.813 715.06 198.914 715.06 200.367C715.06 200.948 714.12 202.276 712.971 203.314C711.823 204.351 710.038 207.423 709 210.138C706.977 215.437 704.77 216.416 702.864 212.853C701.18 209.706 693.996 210.124 693.996 213.372C693.996 214.137 692.73 216.63 691.18 218.913C683.899 229.643 683.211 278.558 690.146 292.411C691.488 295.099 691.685 296.811 690.907 299.063C689.862 302.093 689.859 302.093 688.562 297.389C687.797 294.625 686.597 292.674 685.66 292.674C684.781 292.674 683.84 291.554 683.571 290.18C682.989 287.22 679.963 274.878 678.472 269.396C676.84 263.381 677.172 246.197 679.046 239.425C679.973 236.094 681.232 230.137 681.848 226.198C682.464 222.255 683.609 218.014 684.39 216.772C685.172 215.534 686.697 212.148 687.777 209.253C688.859 206.354 690.17 203.985 690.686 203.985C691.204 203.985 691.941 202.999 692.325 201.795C694.21 195.849 704.825 186.414 709.761 186.296C710.809 186.268 714.96 183.007 718.983 179.043C723.002 175.079 726.914 171.834 727.668 171.834C728.422 171.834 730.663 170.638 732.645 169.174C734.631 167.711 738.038 166.179 740.217 165.771C742.399 165.363 745.979 164.066 748.176 162.89C753.72 159.915 793.594 159.624 796.507 162.533ZM1099.73 172.021C1099.75 176.891 1098.78 179.814 1097.42 178.97C1096.28 178.268 1096.07 169.603 1097.13 166.847C1098.21 164.052 1099.71 167.051 1099.73 172.021ZM1338.57 167.545C1337.62 169.074 1339.8 171.184 1341.33 170.233C1341.99 169.825 1342.54 169.071 1342.54 168.562C1342.54 167.089 1339.36 166.272 1338.57 167.545ZM215.07 169.147C215.07 170.178 215.828 170.745 216.921 170.53C219.702 169.991 220.082 167.4 217.381 167.4C216.022 167.4 215.07 168.116 215.07 169.147ZM460.645 173.048C461.43 178.752 460.33 181.678 457.957 180.212C455.906 178.942 456.84 167.4 458.995 167.4C459.476 167.4 460.22 169.942 460.645 173.048ZM1283.2 176.58C1285.26 178.579 1287.31 181.696 1287.76 183.508C1288.2 185.321 1289.54 188.679 1290.73 190.976C1293.44 196.206 1293.17 210.276 1290.31 213.137C1289.32 214.13 1288.25 217.755 1287.86 221.452C1287.04 229.311 1286.23 231.701 1284.36 231.701C1283.53 231.701 1282.4 234.52 1281.58 238.629C1280.4 244.554 1280.05 245.184 1279.22 242.973C1277.96 239.632 1279.22 231.701 1281.01 231.701C1282.63 231.701 1283.38 227.433 1284.43 212.3C1284.85 206.202 1285.65 200.007 1286.2 198.534C1286.83 196.821 1286.78 195.6 1286.05 195.151C1285.43 194.763 1284.4 191.73 1283.77 188.409C1283.12 184.95 1281.75 181.658 1280.57 180.706C1278.65 179.167 1276.02 175.037 1276.02 173.571C1276.02 171.758 1279.91 173.391 1283.2 176.58ZM1356.67 189.111C1355.45 190.332 1355.66 200.415 1356.92 201.193C1357.51 201.56 1358.31 200.602 1358.69 199.063C1359.51 195.811 1357.9 187.884 1356.67 189.111ZM318.934 202.044C321.103 205.444 322.185 209.021 322.832 214.891C324.482 229.937 327.941 229.753 329.826 214.517C331.064 204.507 331.507 203.338 334.793 201.397L338.024 199.488L339.722 205.206C340.656 208.35 341.849 211.484 342.375 212.165C344.609 215.081 348.127 233.244 348.044 241.455C347.968 248.784 344.845 261.752 342.455 264.636C341.552 265.729 339.964 268.369 338.923 270.503C337.885 272.637 336.574 275.131 336.018 276.047C332.749 281.388 329.176 290.813 328.138 296.832C327.481 300.64 326.229 305.794 325.35 308.281C322.428 316.568 318.056 410.225 320.325 415.966C321.286 418.401 321.359 418.36 322.096 414.956C322.518 413.006 323.759 410.602 324.852 409.609C327.253 407.437 327.446 407.873 329.262 419.474C329.92 423.666 331.179 428.495 332.064 430.203C334.053 434.05 335.9 470.6 334.804 484.466C334.015 494.49 335.264 499.824 338.204 498.973C339.075 498.72 346.775 497.648 355.311 496.586C363.848 495.528 373.519 494.113 376.805 493.442C385.207 491.733 406.143 491.958 414.157 493.85C417.865 494.722 426.291 495.988 432.887 496.659C439.48 497.33 446.363 498.648 448.183 499.589C450.002 500.529 453.9 502.013 456.84 502.888C462.803 504.659 468.448 508.865 469.558 512.366C470.475 515.257 489.516 514.507 503.321 511.038C535.734 502.892 592.671 503.113 613.711 511.466C617.319 512.898 621.11 514.365 622.134 514.725C623.583 515.233 623.808 516.07 623.14 518.491C620.639 527.623 625.095 529.92 645.301 529.92C661.24 529.92 670.579 527.72 676.345 522.604C681.374 518.142 690.737 524.174 698.195 536.685C699.613 539.061 701.211 541.005 701.744 541.005C702.28 541.005 703.068 542.13 703.497 543.499C703.926 544.872 705.455 547.404 706.897 549.13C708.336 550.853 709.516 552.773 709.516 553.392C709.516 554.014 710.481 555.875 711.66 557.532C712.84 559.189 714.161 562.008 714.6 563.799C715.04 565.591 716.264 568.178 717.319 569.545C718.377 570.911 719.591 573.903 720.017 576.196C720.442 578.486 721.681 581.858 722.77 583.688C723.87 585.532 725.053 590.419 725.423 594.649C725.79 598.869 726.924 603.556 727.952 605.126C730.359 608.8 731.514 641.87 729.508 649.653C728.799 652.396 727.357 659.628 726.302 665.726C725.25 671.824 723.583 678.061 722.601 679.582C721.618 681.108 720.477 684.46 720.062 687.033C719.65 689.606 718.353 692.93 717.184 694.414C716.015 695.901 715.06 698.008 715.06 699.101C715.06 700.191 713.812 702.982 712.286 705.299C710.764 707.62 708.271 711.415 706.745 713.732C705.22 716.053 703.975 718.281 703.975 718.682C703.975 720.262 681.208 743.883 679.686 743.883C679.188 743.883 676.867 745.405 674.529 747.263C667.054 753.202 662.316 751.849 658.781 742.776C655.989 735.61 655.969 735.316 655.263 690.115L654.557 644.662L651.548 638.456C649.895 635.046 648.542 631.632 648.542 630.871C648.542 630.113 647.546 628.221 646.325 626.672C645.104 625.122 644.108 623.209 644.108 622.424C644.108 621.639 642.935 619.588 641.504 617.862C640.075 616.139 638.546 613.272 638.11 611.491C637.674 609.709 636.353 607.025 635.17 605.521C633.987 604.019 633.022 602.266 633.022 601.626C633.022 600.986 632.061 598.433 630.888 595.957C629.716 593.477 627.959 589.703 626.987 587.569C618.343 568.621 613.009 566.055 586.099 567.871C567.67 569.112 548.522 567.628 545.291 564.706C544.205 563.723 540.922 562.648 538.003 562.319C535.08 561.991 532.144 560.977 531.476 560.067C530.701 559.012 529.999 558.829 529.546 559.559C529.155 560.192 529.577 561.326 530.487 562.08C531.393 562.834 532.137 564.052 532.137 564.792C532.137 566.352 540.919 572.125 546.55 574.27C548.684 575.082 550.981 576.162 551.659 576.673C552.333 577.182 555.574 578.559 558.864 579.731C596.87 593.273 607.71 602.411 611.442 624.043C613.307 634.838 612.618 638.563 608.762 638.563C606.935 638.563 598.655 624.292 598.655 621.148C598.655 614.663 571.997 597.461 558.767 595.407C554.308 594.715 550.213 593.875 549.67 593.539C547.716 592.332 529.211 589.793 522.161 589.765C518.197 589.752 511.712 588.97 507.748 588.029C503.784 587.092 497.548 585.808 493.888 585.182C490.232 584.556 484.695 582.841 481.585 581.371C478.476 579.901 474.975 578.7 473.806 578.7C472.64 578.7 469.946 577.766 467.822 576.629C465.695 575.491 462.212 574.197 460.078 573.754C457.944 573.311 453.658 571.772 450.552 570.33C424.659 558.324 429.581 576.334 456.197 590.99C461.326 593.812 460.465 595.832 453.98 596.189C448.667 596.483 443.907 595.466 431.808 591.45C426.291 589.62 403.705 578.631 393.778 572.945C387.254 569.209 383.809 567.622 382.125 567.58C381.402 567.559 378.814 566.314 376.376 564.813C373.937 563.312 370.945 562.063 369.724 562.042C368.503 562.018 365.013 560.773 361.963 559.275C358.915 557.774 355.232 556.543 353.779 556.536C352.33 556.532 349.583 555.592 347.684 554.443C345.782 553.298 342.247 552.008 339.826 551.576C335.599 550.822 326.578 546.27 325.34 544.267C325.011 543.738 325.748 542.299 326.976 541.071C332.694 535.357 318.813 532.936 308.198 537.796C286.254 547.837 263.889 533.666 263.862 509.702C263.841 491.076 272.402 487.572 291.567 498.357C305.271 506.067 315.261 508.637 316.72 504.825C317.872 501.827 315.648 499.772 308.969 497.659C296.901 493.836 279.396 472.734 279.375 461.99C279.375 460.908 278.375 457.183 277.154 453.713C274.01 444.769 273.955 416.157 277.057 403.722C278.223 399.049 279.499 392.979 279.894 390.236C280.288 387.489 281.526 382.253 282.647 378.593C284.563 372.343 286.033 366.847 290.066 350.877C290.99 347.221 292.519 341.732 293.466 338.684C294.999 333.749 296.379 326.018 300.592 298.772C301.975 289.824 301.166 271.578 298.848 259.4C296.517 247.138 295.348 222.258 297.06 221.2C299.665 219.591 300.547 222.604 301.636 236.796C302.238 244.665 303.013 251.852 303.359 252.766C305.399 258.196 308.27 234.897 308.011 214.994C307.796 198.281 308.046 197.333 312.684 197.333C315.292 197.333 316.52 198.26 318.934 202.044ZM1248.74 199.087C1249.11 200.052 1249.43 210.155 1249.46 221.539C1249.52 244.9 1250.8 255.069 1253.39 252.492C1253.74 252.136 1254.68 245.616 1255.47 238.003C1257.04 222.912 1257.4 221.725 1260.48 221.725C1261.62 221.725 1262.82 220.85 1263.15 219.785C1263.47 218.716 1263.48 219.591 1263.17 221.725C1262.1 229.19 1260.58 242.33 1259.45 253.872C1258.82 260.275 1257.72 270.811 1256.99 277.286C1255.87 287.334 1255.95 290.831 1257.51 301.121C1258.52 307.755 1259.67 316.177 1260.05 319.837C1260.43 323.496 1261.75 329.48 1262.97 333.14C1264.19 336.799 1265.6 342.534 1266.1 345.889C1266.59 349.244 1268.05 355.228 1269.33 359.192C1274.99 376.718 1275.97 380.146 1276.64 384.771C1277.04 387.472 1278.42 393.172 1279.72 397.441C1286.1 418.384 1282.24 460.987 1272.63 475.484C1270.84 478.195 1269.37 480.852 1269.37 481.384C1269.37 482.668 1263.17 488.866 1258.28 492.467C1256.12 494.058 1251.46 495.901 1247.75 496.624C1236.71 498.779 1237.19 498.471 1239.07 502.245C1241.16 506.437 1245.17 507.485 1250.12 505.126C1252.21 504.13 1254.48 503.314 1255.16 503.314C1255.84 503.314 1261.58 500.82 1267.92 497.769C1281.82 491.08 1284.27 490.896 1289.39 496.168L1293.2 500.111V510.858C1293.2 534.759 1273.73 546.813 1249.69 537.792C1238.45 533.576 1227.68 535.039 1231.13 540.307C1233.85 544.45 1227.6 549.715 1217.87 551.482C1215.46 551.918 1211.61 553.233 1209.32 554.402C1207.03 555.571 1204.37 556.525 1203.41 556.525C1202.45 556.525 1199.21 557.774 1196.2 559.299C1193.19 560.821 1189.85 562.07 1188.77 562.07C1187.69 562.07 1184.06 563.36 1180.7 564.941C1166.89 571.419 1142.38 583.84 1139.15 585.992C1137.24 587.261 1133.21 588.915 1130.19 589.669C1127.17 590.423 1123.61 591.737 1122.29 592.591C1120.98 593.449 1116.73 594.67 1112.87 595.307C1109.01 595.946 1104 596.901 1101.75 597.43C1092.99 599.488 1094.64 594.833 1105.46 586.946C1128.26 570.32 1136.91 557.055 1120.04 564.585C1116.5 566.165 1112.29 567.784 1110.68 568.182C1109.07 568.576 1105.37 570.109 1102.45 571.582C1099.54 573.059 1096.35 574.266 1095.38 574.266C1094.39 574.266 1092.61 574.948 1091.41 575.781C1090.2 576.615 1086.22 578.157 1082.57 579.212C1078.91 580.264 1075.38 581.568 1074.72 582.111C1072.33 584.069 1044.52 588.828 1029.55 589.842C1021.12 590.412 1011.65 591.623 1008.49 592.536C1005.33 593.449 1000.01 594.708 996.676 595.334C993.335 595.96 988.846 597.389 986.698 598.503C984.55 599.62 980.817 601.18 978.403 601.972C972.803 603.812 958.369 618.142 957.325 622.898C956.923 624.724 955.924 626.776 955.101 627.457C954.281 628.138 953.011 631.293 952.282 634.461C951.552 637.633 949.774 641.981 948.331 644.125C946.889 646.273 945.288 650.763 944.772 654.104L943.838 660.182L942.981 653.329C942.358 648.328 942.583 644.879 943.814 640.58C944.745 637.336 946.028 630.85 946.664 626.167C950.161 600.519 965.515 586.521 997.51 579.814C1000.39 579.212 1004.74 577.742 1007.18 576.549C1009.62 575.356 1012.95 574.104 1014.59 573.768C1016.22 573.429 1018.24 572.471 1019.08 571.634C1019.91 570.8 1022.19 569.292 1024.14 568.282C1029.34 565.595 1029.3 560.731 1024.09 561.658C1017.67 562.8 1011.64 564.481 1010.44 565.47C1008 567.466 989.216 568.621 970.043 567.957C941.815 566.978 939.238 568.753 926.281 598.101C924.666 601.757 922.864 605.5 922.276 606.417C921.688 607.33 920.228 610.131 919.031 612.643C917.834 615.154 916.102 617.834 915.178 618.599C914.258 619.363 913.504 620.608 913.504 621.362C913.504 622.116 912.307 624.496 910.844 626.651C909.384 628.802 907.828 632.241 907.385 634.288C906.946 636.336 905.77 639.508 904.777 641.338C903.224 644.191 902.885 650.846 902.373 688.451L901.778 732.244L898.589 741.389C895.435 750.428 895.352 750.535 891.63 750.535C884.466 750.535 869.002 738.204 855.564 721.771C854.841 720.889 853.489 718.779 852.558 717.08C851.628 715.385 848.747 710.27 846.152 705.711C843.562 701.156 841.441 696.721 841.441 695.86C841.441 694.999 840.445 693.027 839.224 691.478C838.007 689.925 837.007 687.617 837.007 686.348C837.007 685.082 835.966 681.419 834.693 678.209C828.941 663.703 825.503 627.91 828.564 614.372C829.484 610.301 830.757 602.788 831.393 597.676C832.03 592.564 833.033 587.794 833.628 587.078C834.223 586.365 835.468 582.861 836.395 579.295C837.325 575.729 838.84 571.976 839.764 570.956C840.687 569.936 841.441 568.628 841.441 568.05C841.441 565.602 851.78 546.761 856.36 540.86C857.608 539.255 859.725 536.512 861.067 534.762C873.547 518.505 874.757 517.644 879.32 521.774C885.189 527.087 893.442 529.141 910.875 529.636C931.95 530.238 933.932 529.518 935.319 520.792C936.198 515.271 936.481 514.88 940.556 513.545C942.925 512.77 946.412 511.408 948.307 510.522C961.057 504.552 995.276 501.934 1015.5 505.386C1020.07 506.167 1028.12 507.222 1033.4 507.734C1038.68 508.246 1047.41 509.668 1052.8 510.896C1058.2 512.12 1067.6 513.621 1073.7 514.227C1079.79 514.832 1085.93 515.679 1087.32 516.112C1089.73 516.859 1089.79 516.755 1088.47 513.857C1085.91 508.246 1091.36 504.978 1113.05 499.087C1117.63 497.845 1124.89 496.524 1129.2 496.144C1133.51 495.767 1139.75 494.736 1143.06 493.857C1150.2 491.955 1182.11 491.65 1188.99 493.418C1191.43 494.044 1198.42 495.5 1204.51 496.649C1210.61 497.8 1216.65 499.059 1217.92 499.45C1222.02 500.695 1222.71 496.054 1223.09 464.512C1223.4 439.56 1223.74 434.506 1225.36 430.968C1226.42 428.678 1227.55 423.69 1227.89 419.882C1228.99 407.305 1230.56 404.978 1234.32 410.349C1235.98 412.719 1235.99 412.719 1236.88 409.516C1238.34 404.275 1237.85 348.605 1236.26 339.238C1235.49 334.665 1234.4 325.06 1233.85 317.896C1233.15 308.938 1232.14 303.328 1230.59 299.941C1229.36 297.233 1228.35 293.819 1228.35 292.359C1228.35 289.596 1217.27 266.916 1214.33 263.668C1209.01 257.795 1209.01 225.835 1214.33 215.326C1215.17 213.663 1216.48 209.682 1217.23 206.482C1219.97 194.798 1226.57 199.706 1227.58 214.178C1228.61 229.01 1232.29 229.667 1233.87 215.302C1234.69 207.783 1238.59 199.402 1241.87 198.087C1244.81 196.908 1248.09 197.385 1248.74 199.087ZM702.788 218.121C702.605 222.67 700.806 224.603 700.727 220.338C700.682 218.052 701.145 216.181 701.757 216.181C702.366 216.181 702.83 217.052 702.788 218.121ZM797.538 219.692C813.238 226.007 823.673 240.815 824.109 257.404C824.258 263.063 822.248 266.02 820.809 262.264C820.435 261.288 818.689 258.95 816.928 257.065C815.168 255.18 813.725 253.07 813.725 252.371C813.722 250.597 802.678 238.549 799.315 236.651C788.192 230.373 776.041 229.881 767.719 235.374C761.652 239.38 755.083 245.294 755.021 246.809C754.993 247.498 754.187 248.708 753.233 249.5C750.725 251.583 748.103 257.065 748.957 258.445C749.404 259.168 750.867 258.407 752.738 256.473C757.459 251.593 761.669 248.331 763.243 248.331C764.031 248.331 765.363 247.328 766.197 246.1C769.687 240.978 792.287 241.195 798.077 246.405C803.577 251.354 808.184 256.031 808.184 256.667C808.184 257.023 809.429 259.154 810.955 261.395C814.299 266.317 814.51 271.478 811.508 274.937C810.291 276.345 809.256 277.542 809.211 277.6C809.163 277.659 808.727 286.189 808.236 296.555C807.703 307.845 806.638 317.848 805.583 321.501C804.614 324.852 803.048 333.832 802.107 341.455C801.163 349.075 799.914 357.307 799.326 359.746C798.738 362.188 798.229 365.927 798.195 368.061C798.157 370.195 797.489 373.09 796.711 374.498L795.293 377.05L793.702 373.944C792.412 371.423 792.107 363.754 792.107 333.475C792.107 305.444 791.768 295.78 790.748 294.756C788.994 292.996 786.013 299.675 786.013 305.365C786.013 308.243 785.321 309.706 783.363 310.989C781.315 312.331 780.537 314.109 779.953 318.792C779.538 322.127 778.735 324.569 778.168 324.219C776.497 323.189 776.957 312.456 778.756 310.467C780.271 308.796 780.828 304.4 783.463 273.439C784.117 265.743 782.232 251.129 780.271 248.687C776.342 243.797 765.764 251.61 762.724 261.651C760.579 268.735 760.51 267.241 764.356 295.932C767.532 319.605 764.761 340.189 756.065 357.528C750.344 368.936 747.851 402.978 751.14 424.749C753.222 438.511 752.963 441.23 749.573 441.23C748.03 441.23 747.121 440.061 746.325 437.073L745.222 432.915L745.108 437.007C745.045 439.259 745.419 441.365 745.941 441.687C746.464 442.008 747.176 445.032 747.526 448.397C748.103 454.014 748.923 456.373 754.284 467.836C759.092 478.119 772.862 493.114 780.468 496.344C782.602 497.25 785.096 498.641 786.013 499.436C792.681 505.23 822.134 512.193 839.937 512.186C850.798 512.182 853.534 513.694 849.75 517.606C847.159 520.29 841.486 529.193 841.462 530.615C841.452 531.303 840.687 532.493 839.767 533.257C838.844 534.022 837.111 536.703 835.914 539.214C834.717 541.725 833.258 544.527 832.67 545.44C832.085 546.356 830.75 548.85 829.705 550.984C828.657 553.118 825.122 560.251 821.85 566.833C818.575 573.415 814.908 581.274 813.701 584.293C812.497 587.313 810.47 592.405 809.201 595.607C807.928 598.807 806.23 602.176 805.424 603.089C804.615 604.002 803.362 606.998 802.639 609.74C801.917 612.483 800.671 615.479 799.869 616.392C799.066 617.309 797.825 620.256 797.109 622.943C796.393 625.634 795.154 628.875 794.359 630.151C793.563 631.424 792.28 634.461 791.509 636.903C790.741 639.342 789.492 642.334 788.738 643.555C787.984 644.772 786.798 647.519 786.099 649.653C783.47 657.708 777.742 661.859 776.438 656.653C776.027 655.017 773.602 649.653 771.049 644.731C768.497 639.812 765.754 633.79 764.955 631.355C764.156 628.917 762.886 625.928 762.132 624.707C761.378 623.486 760.144 620.494 759.386 618.056C758.632 615.617 757.369 612.874 756.577 611.958C755.789 611.045 754.782 608.8 754.34 606.97C753.9 605.14 752.634 601.896 751.531 599.762C747.577 592.114 742.776 581.27 742.776 579.991C742.776 578.787 733.299 560.261 725.952 547.103C724.251 544.056 722.407 540.563 721.854 539.342C720.404 536.139 713.269 525.707 708.748 520.176C704.39 514.842 703.47 509.163 706.43 505.86C707.413 504.763 709.291 500.875 710.605 497.216C713.078 490.343 713.791 487.821 716.717 475.598C717.665 471.634 718.997 466.646 719.678 464.512C720.453 462.067 721.02 446.882 721.203 423.493C721.539 381.014 721.456 383.581 722.542 383.584C723.946 383.584 729.498 389.468 731.839 393.432C735.672 399.924 736.613 396.652 737.311 374.384C737.796 359.04 738.505 352.077 740.272 345.336C741.552 340.455 743.351 333.472 744.271 329.816C745.191 326.156 746.765 320.252 747.768 316.693C749.798 309.509 748.93 296.828 745.599 284.985C743.939 279.091 744.236 273.201 746.678 263.575C747.532 260.199 744.572 259.175 741.843 261.9C739.663 264.08 738.377 260.928 738.356 253.364C738.287 225.419 768.729 208.101 797.538 219.692ZM1081.16 220.615C1081.16 222.749 1081.39 223.621 1081.67 222.556C1081.95 221.487 1081.95 219.743 1081.67 218.675C1081.39 217.609 1081.16 218.481 1081.16 220.615ZM1159.15 223.666C1157.87 224.946 1157.22 222.943 1158.09 220.421L1158.98 217.845L1159.39 220.432C1159.61 221.857 1159.5 223.313 1159.15 223.666ZM1324.66 225.88C1324.53 232.87 1324.47 233.043 1323.74 228.501C1323.01 224.022 1323.37 218.398 1324.38 218.398C1324.61 218.398 1324.74 221.767 1324.66 225.88ZM474.142 221.826C473.346 224.866 474.045 225.935 475.733 224.25C476.528 223.455 476.577 222.403 475.874 221.151C474.934 219.467 474.74 219.539 474.142 221.826ZM1154.65 230.328C1154.26 231.877 1152.73 234.105 1151.24 235.274C1149.75 236.446 1148.53 238.082 1148.53 238.913C1148.53 239.743 1147.58 240.722 1146.43 241.088C1145.27 241.458 1143.07 243.011 1141.53 244.544C1138.21 247.861 1131.04 249.424 1129.63 247.138C1128.35 245.066 1130.42 243.935 1135.53 243.914C1138.9 243.9 1139.91 243.388 1140.71 241.275C1141.26 239.836 1142.75 238.387 1144.01 238.055C1145.28 237.723 1146.31 236.713 1146.31 235.807C1146.31 234.9 1147.56 233.845 1149.09 233.465C1151.04 232.974 1151.86 232.016 1151.86 230.203C1151.86 227.242 1152.82 225.938 1154.32 226.865C1154.89 227.218 1155.04 228.778 1154.65 230.328ZM222.815 236.969C222.825 238.338 222.393 239.463 221.853 239.463C220.691 239.463 219.698 235.011 220.394 232.918C221.092 230.822 222.794 233.665 222.815 236.969ZM417.094 240.476C417.91 241.642 420.556 242.949 422.978 243.382C425.395 243.814 428.989 245.142 430.968 246.335C433.292 247.736 436.031 248.376 438.716 248.144C441.842 247.875 442.949 248.227 443.209 249.58C443.828 252.783 431.687 254.149 428.744 251.206C427.882 250.348 425.378 249.144 423.171 248.535C419.598 247.549 411.297 240.933 411.297 239.072C411.297 237.439 415.717 238.511 417.094 240.476ZM450.099 246.114C447.916 247.525 443.447 247.525 443.447 246.114C443.447 245.505 445.319 245.014 447.605 245.021C450.697 245.035 451.337 245.315 450.099 246.114ZM1108.34 245.768C1107.27 246.048 1105.53 246.048 1104.46 245.768C1103.39 245.491 1104.27 245.263 1106.4 245.263C1108.54 245.263 1109.41 245.491 1108.34 245.768ZM1128.57 250.431C1128.57 251.814 1125.69 252.769 1121.56 252.752C1116.74 252.731 1112.95 251.607 1113.69 250.42C1114.48 249.134 1128.57 249.141 1128.57 250.431ZM1171.37 258.116C1169.4 260.081 1167.89 259.237 1168.86 256.712C1169.25 255.695 1170.22 255.294 1171.3 255.706C1172.92 256.328 1172.93 256.56 1171.37 258.116ZM399.104 263.388C399.104 265.083 406.935 266.065 420.598 266.086C431.096 266.103 437.595 267.404 433.441 268.659C424.399 271.392 418.64 271.897 411.02 270.631C398.624 268.566 398.298 268.455 397.676 266.082C397.295 264.619 396.164 263.851 394.404 263.851C391.031 263.851 389.914 262.8 391.394 261.018C392.764 259.365 399.104 261.316 399.104 263.388ZM1167.06 262.049C1166.84 262.734 1165.29 263.457 1163.63 263.654C1161.64 263.889 1160.26 264.93 1159.59 266.701C1158.52 269.503 1141.88 270.983 1140.3 268.42C1139.6 267.293 1144.87 266.068 1150.4 266.068C1153.97 266.068 1158.35 264.495 1159.61 262.758C1161.75 259.842 1167.98 259.244 1167.06 262.049ZM823.071 439.995C823.407 440.538 825.382 441.299 827.461 441.687C829.539 442.078 832.438 443.34 833.904 444.495C835.371 445.647 838.539 446.948 840.947 447.387C843.354 447.823 847.069 449.047 849.203 450.102C851.337 451.161 855.578 452.371 858.625 452.793C861.676 453.219 867.411 454.53 871.375 455.709C875.339 456.889 881.326 458.559 884.677 459.427C892.761 461.51 901.464 464.422 903.525 465.73C904.438 466.311 907.344 467.808 909.976 469.06C916.707 472.26 922.926 476.635 922.926 478.175C922.926 480.153 912.452 479.126 908.513 476.76C906.683 475.663 902.491 474.425 899.194 474.01C895.898 473.598 891.907 472.599 890.326 471.789C888.745 470.984 883.709 469.718 879.136 468.977C874.564 468.237 869.074 466.954 866.94 466.124C864.806 465.294 859.853 463.831 855.934 462.872C852.015 461.914 848.273 460.693 847.619 460.157C846.965 459.625 844.312 458.618 841.718 457.926C839.127 457.231 837.007 456.193 837.007 455.619C837.007 455.042 834.638 453.329 831.743 451.807C824.579 448.048 821.944 445.588 821.262 442.026C820.712 439.144 821.795 437.927 823.071 439.995ZM904.632 454.588C905.548 454.637 905.061 455.166 903.549 455.771C900.097 457.148 894.504 456.027 896.932 454.443C897.814 453.869 899.533 453.644 900.754 453.949C901.972 454.253 903.719 454.543 904.632 454.588ZM712.4 592.079C706.894 596.22 684.94 596.956 676.812 593.269C670.831 590.557 663.395 589.471 660.7 590.914C653.904 594.553 662.388 605.296 677.365 612.016C678.891 612.701 681.385 613.953 682.91 614.801C684.435 615.645 687.728 617.298 690.229 618.471C700.087 623.102 708.814 637.802 709.941 651.68C711.204 667.231 711.927 671.205 713.099 669.109C713.666 668.095 715.309 666.816 716.752 666.269C718.647 665.55 719.571 664.104 720.083 661.064C720.47 658.75 721.532 654.115 722.438 650.76C724.807 641.995 726.361 627.831 725.665 621.321C725.337 618.236 725.523 614.123 726.08 612.179C726.938 609.197 726.741 608.398 724.821 607.053C723.113 605.856 722.369 603.729 721.819 598.454C720.681 587.517 719.515 586.728 712.4 592.079ZM837.657 594.93C833.794 604.995 834.811 655.557 839.037 663.675C840.258 666.024 841.787 669.316 842.434 670.991C845.042 677.746 846.771 674.249 848.044 659.632C848.954 649.206 849.961 645.862 855.682 634.261C859.673 626.17 877.068 613.168 884.062 613.047C885.477 613.023 893.854 607.499 898.79 603.338C909.384 594.4 896.237 591.841 869.617 597.659C859.469 599.879 852.288 599.115 847.539 595.307C844.814 593.121 838.442 592.878 837.657 594.93ZM1240.31 692.833C1238.72 694.082 1235.91 695.106 1234.05 695.106C1232.2 695.106 1228.34 696.351 1225.47 697.877C1222.6 699.402 1219.02 700.647 1217.51 700.647C1215.99 700.647 1213.2 701.591 1211.3 702.743C1209.39 703.895 1205.2 705.393 1201.97 706.071C1198.73 706.745 1194.73 708.004 1193.06 708.869C1191.39 709.73 1188.05 710.789 1185.63 711.217C1183.21 711.65 1179.74 712.878 1177.91 713.943C1176.08 715.008 1172.21 716.188 1169.31 716.558C1166.41 716.932 1162.17 718.184 1159.89 719.339C1157.6 720.498 1153.49 721.812 1150.75 722.262C1148 722.711 1144.76 723.604 1143.54 724.247C1141.13 725.52 1126.77 729.446 1112.24 732.804C1107.23 733.963 1102.2 735.406 1101.08 736.004C1099.96 736.606 1095.58 737.692 1091.36 738.418C1087.13 739.145 1081.43 740.608 1078.69 741.666C1075.94 742.725 1070.7 743.959 1067.05 744.406C1063.39 744.855 1059.12 745.879 1057.56 746.688C1056 747.494 1050.53 748.729 1045.41 749.428C1040.29 750.13 1034.08 751.417 1031.62 752.288C1029.15 753.16 1021.42 754.64 1014.45 755.574C1007.47 756.512 1001.14 757.788 1000.39 758.414C999.634 759.037 992.623 760.202 984.809 761.001C976.992 761.804 969.158 763.028 967.404 763.73C965.647 764.429 957.287 765.733 948.826 766.626C940.366 767.518 930.079 768.981 925.97 769.873C921.857 770.766 910.01 771.997 899.644 772.613C889.278 773.225 878.054 774.259 874.702 774.913C859.69 777.832 697.423 778.019 686.791 775.127C684.352 774.463 673.374 773.384 662.399 772.734C651.424 772.08 638.204 770.811 633.022 769.915C627.837 769.019 616.461 767.539 607.738 766.622C599.014 765.709 590.872 764.422 589.644 763.762C588.413 763.104 580.921 761.883 572.99 761.05C565.062 760.216 557.912 758.985 557.107 758.317C556.297 757.646 549.729 756.328 542.503 755.388C535.281 754.447 528.868 753.278 528.259 752.793C527.647 752.306 522.348 751.102 516.478 750.113C510.609 749.127 503.812 747.612 501.37 746.751C498.928 745.889 494.003 744.828 490.423 744.392C486.843 743.956 482.637 742.953 481.08 742.164C479.524 741.372 474.287 739.971 469.441 739.048C464.595 738.124 458.822 736.609 456.615 735.682C454.405 734.752 449.186 733.448 445.018 732.784C440.846 732.116 436.848 731.085 436.132 730.487C435.412 729.892 431.652 728.854 427.772 728.183C423.894 727.512 418.91 726.053 416.696 724.939C414.486 723.822 409.654 722.424 405.96 721.829C402.269 721.234 398.094 720.017 396.683 719.121C395.268 718.222 391.937 717.139 389.274 716.71C386.611 716.281 382.37 715.026 379.852 713.919C377.331 712.812 373.273 711.553 370.835 711.117C368.393 710.685 365.027 709.633 363.35 708.786C361.672 707.935 357.767 706.762 354.671 706.174C351.576 705.586 347.767 704.103 346.207 702.878C344.454 701.498 341.704 700.647 338.985 700.647C336.277 700.647 333.52 699.8 331.78 698.43C328.844 696.123 319.982 695.293 318.796 697.212C318.128 698.292 323.873 700.647 327.17 700.647C328.277 700.647 329.712 701.64 330.362 702.85C331.009 704.065 332.898 705.396 334.554 705.811C336.211 706.226 342.306 708.973 348.103 711.913C353.897 714.853 359.286 717.264 360.074 717.267C360.866 717.274 363.855 718.523 366.719 720.048C369.583 721.573 372.775 722.819 373.813 722.819C374.854 722.819 378.05 724.067 380.917 725.593C383.785 727.115 386.932 728.363 387.915 728.363C388.894 728.363 391.938 729.55 394.677 730.999C397.416 732.448 401.404 733.998 403.539 734.444C405.673 734.89 408.973 736.198 410.875 737.353C412.774 738.505 415.458 739.449 416.835 739.449C418.208 739.449 422.141 740.618 425.572 742.047C429 743.475 436.049 745.952 441.23 747.546C446.415 749.141 453.149 751.261 456.197 752.257C459.244 753.253 464.733 754.803 468.393 755.702C472.049 756.598 477.549 758.3 480.61 759.479C483.667 760.655 487.659 761.631 489.478 761.645C491.294 761.659 494.853 762.61 497.385 763.762C499.921 764.91 505.441 766.387 509.661 767.041C513.877 767.698 519.54 769.016 522.237 769.974C524.939 770.932 530.982 772.198 535.665 772.789C540.348 773.381 545.924 774.595 548.051 775.484C550.182 776.373 556.332 777.601 561.721 778.213C567.106 778.822 574.003 780.053 577.047 780.949C580.091 781.845 587.569 783.097 593.667 783.733C599.762 784.373 607.745 785.608 611.404 786.483C615.064 787.355 625.288 788.628 634.129 789.312C642.97 789.994 651.953 791.031 654.087 791.613C658.148 792.723 675.788 794.086 711.179 796.019C722.763 796.656 740.974 797.683 751.645 798.302C771.949 799.485 821.311 798.772 833.683 797.116C837.643 796.586 848.622 795.846 858.072 795.476C878.14 794.684 894.76 793.207 907.959 791.038C913.141 790.184 921.871 789.167 927.36 788.776C932.85 788.382 940.2 787.337 943.7 786.455C947.197 785.573 955.197 784.363 961.475 783.768C967.753 783.173 975.615 781.748 978.95 780.603C982.28 779.458 988.953 778.182 993.774 777.77C998.596 777.355 1003.94 776.297 1005.65 775.415C1007.35 774.529 1013.22 773.346 1018.68 772.779C1024.14 772.215 1030.22 770.918 1032.2 769.901C1034.17 768.881 1039.32 767.563 1043.65 766.971C1047.98 766.383 1053.01 765.169 1054.82 764.273C1056.64 763.381 1061.19 762.215 1064.93 761.686C1068.68 761.157 1073.24 759.946 1075.07 759.002C1076.9 758.058 1081.51 756.782 1085.32 756.166C1089.14 755.554 1093.34 754.34 1094.66 753.475C1095.98 752.607 1100.04 751.285 1103.67 750.535C1107.31 749.788 1111.6 748.497 1113.21 747.667C1114.83 746.841 1118.32 745.817 1120.98 745.395C1123.63 744.973 1128 743.461 1130.68 742.04C1133.36 740.615 1136.57 739.449 1137.81 739.449C1139.05 739.449 1142.1 738.498 1144.58 737.336C1147.06 736.173 1151.58 734.451 1154.63 733.507C1160.12 731.808 1166.85 729.439 1185.11 722.787C1190.3 720.899 1197.03 718.578 1200.08 717.627C1203.13 716.679 1206.41 715.216 1207.37 714.372C1208.34 713.531 1209.89 712.843 1210.82 712.843C1211.75 712.843 1215.32 711.345 1218.75 709.516C1222.18 707.686 1225.89 706.192 1227 706.192C1228.12 706.192 1230.72 704.943 1232.78 703.418C1234.85 701.896 1237.19 700.647 1237.99 700.647C1238.79 700.647 1240.55 699.526 1241.92 698.153C1243.28 696.78 1245.9 695.161 1247.73 694.549C1252.24 693.055 1251.96 691.298 1247.14 690.893C1244.46 690.668 1242.27 691.291 1240.31 692.833ZM732.798 823.338C731.884 823.649 729.563 824.607 727.64 825.468C725.721 826.326 723.701 827.032 723.154 827.032C721.037 827.032 713.96 835.572 713.289 838.934C710.989 850.428 715.956 857.508 731.57 864.996C753.807 875.66 758.622 891.772 740.03 893.314L733.773 893.833L728.55 888.423C718.983 878.521 709.554 878.784 713.58 888.842C719.882 904.597 757.608 904.794 765.851 889.115C770.378 880.506 767.466 869.088 759.77 865.252C758.48 864.609 756.66 863.45 755.73 862.675C754.796 861.901 750.628 859.566 746.464 857.487C730.733 849.625 724.787 842.579 728.318 835.983C729.833 833.154 739.553 829.193 742.856 830.055C746.374 830.975 752.752 834.755 752.752 835.924C752.752 838.705 758.708 843.659 762.053 843.659C767.376 843.659 768.365 842.026 765.961 837.204C760.873 826.994 743.454 819.709 732.798 823.338ZM803.196 823.625C794.31 825.596 787.22 830.861 784.418 837.567C779.693 848.875 784.339 855.896 803.1 865.788C818.128 873.713 817.945 873.578 820.408 878.652C827.118 892.484 805.386 899.682 796.742 886.493C793.401 881.392 783.913 879.88 782.263 884.183C781.409 886.404 786.303 892.643 792.01 896.621C796.178 899.523 796.908 899.644 810.336 899.644H824.323L829.719 895.763C832.687 893.629 835.482 891.135 835.931 890.222C837.605 886.815 838.788 879.441 837.989 877.383C837.536 876.214 836.883 873.931 836.54 872.315C835.772 868.729 827.62 862.586 815.918 856.785C805.42 851.579 798.205 845.146 798.205 840.985C798.205 828.758 819.986 826.917 825.593 838.671C828.685 845.16 837.007 845.955 837.007 839.764C837.007 829.996 817.167 820.525 803.196 823.625ZM913.04 824.296C911.259 825.223 907.693 826.516 905.113 827.163C895.967 829.467 888.676 837.166 884.463 848.975C869.797 890.06 921.397 919.45 954.243 888.721C959.303 883.989 959.089 876.919 953.887 876.919C953.641 876.919 950.701 879.396 947.356 882.422C931.507 896.777 916.88 895.563 906.213 879.008C901.055 871.001 900.516 854.53 905.189 847.647C906.711 845.398 907.959 843.275 907.959 842.925C907.959 842.576 909.879 840.428 912.228 838.148C919.976 830.632 934.257 830.919 942.808 838.771C947.097 842.711 953.554 846.986 955.218 846.986C955.412 846.986 956.339 845.506 957.273 843.697C962.769 833.071 926.613 817.219 913.04 824.296ZM379.703 825.61C373.176 826.288 373.363 825.174 373.522 862.603C373.688 901.419 373.367 899.99 381.862 899.692C391.197 899.364 391.339 899.084 391.36 880.938C391.381 860.918 390.492 862.036 406.762 861.582C416.71 861.306 420.383 860.808 421.39 859.597C423.984 856.474 420.74 855.509 407.188 855.374C390.713 855.211 391.343 855.675 391.343 843.703V833.897L394.833 832.68C396.756 832.012 403.957 831.466 410.844 831.466C417.727 831.466 423.635 831.023 423.97 830.48C425.503 828 420.664 826.575 409.806 826.312C403.615 826.163 395.306 825.842 391.343 825.596C387.379 825.351 382.142 825.354 379.703 825.61ZM445.388 827.308C443.181 829.515 442.396 894.601 444.533 897.98C445.682 899.796 458.594 899.91 460.382 898.122C461.399 897.105 461.513 832.597 460.503 828.581C459.656 825.198 448.442 824.254 445.388 827.308ZM535.066 825.579C534.859 825.786 522.628 826.046 507.893 826.153C484.179 826.323 480.904 826.565 479.385 828.242C476.902 830.985 478.808 831.725 488.949 831.961C501.993 832.265 501.155 829.913 501.059 865.996C500.965 901.602 500.35 899.094 509.197 899.073C519.674 899.046 518.979 901.457 518.869 865.588L518.772 833.96L523.573 832.753C526.212 832.089 531.182 831.577 534.61 831.618C541.874 831.705 543.219 831.127 542.465 828.249C541.988 826.419 536.284 824.361 535.066 825.579ZM560.977 827.014C558.836 829.155 558.743 830.639 558.743 862.89C558.743 900.931 558.881 901.581 566.321 898.987L569.832 897.766V877.442C569.832 854.53 572.042 847.982 576.957 856.346C577.611 857.456 579.143 859.459 580.361 860.794C582.46 863.087 592.031 873.799 603.089 886.227C612.639 896.964 616.143 900.198 618.201 900.184C623.299 900.139 623.289 900.225 623.258 863.609C623.23 825.648 623.092 824.835 617.001 826.364C612.694 827.443 612.027 830.712 612.283 849.428L612.511 866.387L609.737 866.712C607.579 866.964 605.995 865.858 602.591 861.721C600.187 858.798 597.295 855.412 596.164 854.191C595.033 852.973 590.516 848.127 586.127 843.423C581.737 838.723 577.244 833.6 576.141 832.044C571.859 825.997 564.453 823.538 560.977 827.014ZM644.215 826.828C642.351 830.314 642.541 897.33 644.419 898.887C646.851 900.907 696.465 899.741 697.794 897.635C699.775 894.494 696.434 892.235 690.184 892.488C661.371 893.65 660.738 893.332 660.738 877.604C660.738 861.966 660.607 862.098 676.67 861.399C697.939 860.476 697.939 856.031 676.67 855.478C669.351 855.287 662.772 854.765 662.053 854.319C660.403 853.302 660.233 834.122 661.863 833.116C662.772 832.555 682.187 831.559 693.719 831.48C697.14 831.459 696.891 828.564 693.307 826.686C691.094 825.527 689.043 825.416 684.715 826.215C679.358 827.205 665.813 826.81 651.7 825.25C646.125 824.631 645.298 824.808 644.215 826.828ZM979.558 825.97C974.553 827.467 974.512 827.765 974.495 863.201C974.477 892.944 974.678 896.77 976.31 898.122C978.78 900.17 1026.14 899.997 1030.01 897.925L1032.55 896.569L1030 894.504C1027.78 892.712 1025.42 892.439 1012.13 892.439C991.505 892.439 993.321 895.642 993.321 859.293C993.321 823.635 992.668 822.051 979.558 825.97ZM1047.95 825.942C1044.37 827.384 1044.13 829.622 1044.52 857.792L1044.87 883.356L1048.36 888.174C1055.34 897.814 1060.18 899.644 1078.69 899.644H1094.76L1100.58 895.857C1103.78 893.771 1106.4 891.471 1106.4 890.744C1106.4 890.018 1107.65 887.583 1109.17 885.338C1111.94 881.264 1111.94 881.191 1111.93 854.973C1111.91 825.748 1111.88 825.617 1105.74 826.122L1101.41 826.475L1100.86 853.727L1100.3 880.976L1097.28 884.94C1087.28 898.036 1069.09 896.237 1063.1 881.558C1062.53 880.146 1062.06 867.767 1062.06 854.046C1062.06 823.687 1060.63 820.844 1047.95 825.942ZM1133.49 827.288L1130.79 829.408V863.004C1130.79 890.343 1131.08 896.839 1132.33 897.88C1134.22 899.447 1172.98 900.305 1177.91 898.89C1194.02 894.259 1200.27 877.462 1189.91 866.636C1183.83 860.278 1183.24 858.227 1186.7 855.374C1190.34 852.382 1192.83 843.406 1190.9 840.307C1190.16 839.12 1189.55 837.429 1189.55 836.55C1189.55 831.151 1178.19 826.786 1162.94 826.326C1155.93 826.112 1147.04 825.766 1143.18 825.555C1137.57 825.247 1135.64 825.593 1133.49 827.288ZM1167.08 834.278C1175.12 836.045 1174.75 851.86 1166.58 855.388C1154.24 860.725 1148.59 856.989 1149.38 844.015C1150.15 831.245 1151.05 830.753 1167.08 834.278ZM1166.82 866.435C1170.59 867.006 1175.44 872.364 1176.67 877.324C1178.42 884.359 1169.87 891.346 1158.46 892.208C1150.41 892.816 1149.78 891.924 1149.45 879.413C1149.04 864.388 1149.77 863.848 1166.82 866.435ZM761.62 930.172C723.403 931.303 692.588 933.213 681.8 935.118C677.227 935.928 667.252 936.9 659.628 937.28C652.008 937.664 641.033 938.903 635.239 940.041C629.446 941.175 619.968 942.41 614.175 942.783C608.381 943.157 600.9 944.205 597.544 945.108C594.193 946.014 587.956 947.048 583.688 947.411C579.42 947.775 571.437 949.227 565.951 950.639C560.462 952.05 552.98 953.53 549.321 953.925C545.661 954.319 540.071 955.37 536.896 956.263C533.724 957.152 526.959 958.608 521.864 959.497C516.769 960.386 510.885 961.814 508.789 962.672C506.693 963.53 501.989 964.592 498.337 965.031C494.684 965.474 489.945 966.712 487.804 967.784C485.663 968.86 481.17 970.081 477.815 970.5C474.46 970.922 469.721 972.194 467.283 973.329C464.844 974.467 460.603 975.743 457.861 976.169C455.118 976.594 451.171 977.642 449.096 978.497C447.017 979.351 442.143 980.79 438.262 981.689C434.382 982.588 430.096 984.052 428.737 984.94C427.377 985.833 424.019 986.898 421.276 987.31C418.533 987.725 414.79 988.942 412.961 990.018C411.131 991.094 407.89 992.346 405.756 992.796C403.622 993.249 400.135 994.549 398.011 995.687C395.884 996.825 393.242 997.759 392.138 997.759C391.031 997.759 388.032 998.776 385.469 1000.02C382.906 1001.27 378.621 1002.78 375.947 1003.39C373.273 1003.99 369.839 1005.47 368.317 1006.67C366.791 1007.86 364.439 1008.84 363.087 1008.84C361.738 1008.84 358.404 1010.03 355.681 1011.48C352.959 1012.92 349.518 1014.48 348.034 1014.93C343.648 1016.25 329.473 1023.12 328.771 1024.26C328.418 1024.83 326.668 1025.62 324.89 1026.01C321.11 1026.84 318.785 1029.23 319.626 1031.42C320.342 1033.28 330.508 1031.84 334.423 1029.31C335.737 1028.47 339.231 1027.19 342.185 1026.47C345.135 1025.76 349.047 1024.31 350.877 1023.25C352.707 1022.19 356.377 1020.99 359.033 1020.59C361.686 1020.19 365.28 1019.13 367.013 1018.24C368.749 1017.34 372.813 1016.04 376.044 1015.36C379.274 1014.67 383.664 1013.24 385.798 1012.17C387.932 1011.09 391.858 1009.85 394.521 1009.41C397.181 1008.97 401.422 1007.7 403.943 1006.6C406.465 1005.5 411.02 1004.25 414.071 1003.83C417.118 1003.4 420.657 1002.41 421.93 1001.61C423.202 1000.81 427.443 999.534 431.352 998.776C435.26 998.019 439.456 996.773 440.677 996.012C441.894 995.248 446.633 994.061 451.206 993.366C455.778 992.674 460.645 991.371 462.018 990.471C463.391 989.572 468.344 988.347 473.017 987.756C477.694 987.161 482.557 986.002 483.826 985.179C485.092 984.352 489.371 983.315 493.331 982.872C497.292 982.429 503.276 981.098 506.634 979.915C509.989 978.732 515.479 977.466 518.834 977.103C522.189 976.736 528.422 975.539 532.69 974.439C536.958 973.343 543.444 972.111 547.103 971.703C550.763 971.295 557.746 970.046 562.623 968.929C567.504 967.812 575.235 966.56 579.807 966.148C584.38 965.733 592.114 964.485 596.991 963.367C601.868 962.25 610.349 961.012 615.839 960.617C621.324 960.227 632.047 958.923 639.663 957.726C647.28 956.529 662.496 955.08 673.474 954.502C684.456 953.925 702.92 952.666 714.507 951.707C763.468 947.647 894.473 952.071 925.946 958.847C928.554 959.407 935.426 960.209 941.217 960.635C947.01 961.057 955.74 962.302 960.617 963.402C965.498 964.502 973.229 965.709 977.801 966.082C982.374 966.456 988.859 967.501 992.214 968.403C995.57 969.306 1003.04 970.583 1008.81 971.24C1014.59 971.897 1020.92 973.104 1022.88 973.924C1024.84 974.744 1030.33 975.989 1035.1 976.691C1039.87 977.397 1045.97 978.704 1048.66 979.6C1051.35 980.492 1057.57 981.765 1062.5 982.429C1067.41 983.09 1072.49 984.318 1073.77 985.158C1075.05 985.999 1079.55 987.147 1083.77 987.708C1087.98 988.271 1094.29 989.762 1097.78 991.028C1101.27 992.291 1105.26 993.325 1106.65 993.328C1108.04 993.332 1112.67 994.567 1116.94 996.075C1121.2 997.586 1126.14 998.831 1127.9 998.842C1129.66 998.856 1133.15 999.821 1135.66 1000.99C1138.17 1002.16 1143.21 1003.86 1146.87 1004.77C1153.44 1006.4 1156.62 1007.38 1172.92 1012.77C1177.49 1014.28 1182.13 1015.51 1183.22 1015.51C1184.31 1015.5 1187.05 1016.43 1189.32 1017.56C1191.58 1018.7 1195.3 1019.97 1197.58 1020.38C1199.87 1020.8 1204.36 1022.36 1207.56 1023.85C1210.76 1025.34 1214.38 1026.58 1215.6 1026.61C1216.82 1026.63 1220.31 1027.88 1223.36 1029.38C1226.52 1030.93 1230.88 1032.11 1233.5 1032.12C1236.55 1032.12 1238.3 1032.68 1238.73 1033.79C1239.43 1035.61 1246.09 1036.15 1246.09 1034.39C1246.09 1033.81 1244.34 1033.01 1242.21 1032.61C1239.65 1032.13 1238.33 1031.26 1238.32 1030.06C1238.31 1028.29 1232.9 1025.36 1213.38 1016.57C1209.11 1014.64 1203.81 1012.12 1201.59 1010.95C1199.37 1009.79 1196.46 1008.84 1195.12 1008.84C1193.77 1008.84 1191.45 1007.89 1189.97 1006.72C1188.48 1005.55 1185.21 1004.25 1182.71 1003.82C1180.2 1003.4 1175.6 1001.86 1172.48 1000.42C1169.37 998.966 1165.82 997.773 1164.59 997.769C1163.36 997.763 1160.49 996.76 1158.22 995.542C1155.94 994.321 1153.21 993.318 1152.14 993.311C1151.07 993.307 1147.57 992.083 1144.37 990.589C1141.17 989.098 1136.68 987.548 1134.39 987.144C1132.11 986.739 1128.74 985.726 1126.91 984.889C1125.08 984.055 1119.97 982.367 1115.55 981.143C1111.13 979.915 1103.95 977.919 1099.6 976.705C1095.25 975.494 1091.14 974.052 1090.45 973.502C1089.78 972.952 1085.33 971.707 1080.58 970.735C1075.83 969.759 1071 968.459 1069.85 967.84C1068.69 967.221 1064.1 965.955 1059.64 965.024C1055.18 964.094 1049.53 962.603 1047.09 961.711C1044.65 960.822 1039.35 959.587 1035.31 958.971C1031.27 958.352 1026.28 957.159 1024.22 956.318C1022.17 955.474 1016.99 954.426 1012.72 953.99C1008.45 953.551 1003.24 952.475 1001.13 951.6C999.025 950.725 992.042 949.252 985.611 948.328C979.181 947.404 972.177 945.983 970.043 945.163C967.909 944.347 961.673 943.327 956.183 942.894C950.697 942.465 942.635 941.199 938.27 940.082C933.904 938.968 924.925 937.733 918.315 937.339C911.705 936.948 902.556 935.928 897.98 935.074C887.382 933.098 864.796 931.511 835.9 930.719C823.4 930.373 808.433 929.906 802.639 929.681C796.849 929.456 778.389 929.678 761.62 930.172ZM313.739 1034.34C313.739 1034.95 314.458 1035.45 315.337 1035.45C316.215 1035.45 317.243 1034.95 317.62 1034.34C317.997 1033.73 317.277 1033.23 316.022 1033.23C314.766 1033.23 313.739 1033.73 313.739 1034.34ZM0 0H69.1779V69.1779H0V0ZM1487.32 0H1556.5V69.1779H1487.32V0Z" fill="#fff"/>
</svg>
