<svg width="1561" height="1307" viewBox="0 0 1561 1307" fill="none" xmlns="http://www.w3.org/2000/svg">
<path fill-rule="evenodd" clip-rule="evenodd" d="M689.449 109.321C682.015 109.751 674.108 110.564 671.877 111.126C669.647 111.689 665.389 112.551 662.416 113.041C659.442 113.533 655.184 114.574 652.954 115.357C650.724 116.14 646.919 117.193 644.499 117.699C642.078 118.206 638.638 119.428 636.853 120.415C635.067 121.403 632.875 122.209 631.981 122.209C631.086 122.209 628.849 122.985 627.011 123.935C625.173 124.885 622.451 125.963 620.965 126.33C619.478 126.7 617.653 127.539 616.91 128.196C616.166 128.856 614.373 129.685 612.927 130.041C611.478 130.396 609.295 131.498 608.074 132.49C606.853 133.479 605.159 134.29 604.312 134.29C603.465 134.29 602.037 135.127 601.14 136.149C600.244 137.171 598.793 138.008 597.916 138.008C597.04 138.008 595.118 139.053 593.645 140.331C592.172 141.609 590.642 142.654 590.246 142.654C589.507 142.654 587.509 143.941 577.261 151.025C563.708 160.393 559.198 163.841 547.146 174.047C527.157 190.975 493.457 227.057 493.457 231.532C493.457 231.827 492.444 233.309 491.205 234.829C489.966 236.348 488.952 238.165 488.952 238.867C488.952 239.569 488.413 240.477 487.756 240.886C487.098 241.295 485.78 243.205 484.827 245.131C473.676 267.672 469.127 277.546 469.127 279.214C469.127 279.758 468.316 281.765 467.325 283.673C466.334 285.578 465.523 287.999 465.523 289.047C465.523 290.097 464.719 292.583 463.736 294.569C462.754 296.556 461.553 300.396 461.069 303.105C460.583 305.814 459.618 309.193 458.924 310.61C458.231 312.029 457.397 315.631 457.07 318.614C456.744 321.599 455.674 326.499 454.692 329.506C453.712 332.51 452.907 337.433 452.907 340.446C452.907 348.831 451.945 354.545 450.533 354.545C449.519 354.545 449.303 359.714 449.303 383.819C449.303 409.22 449.481 413.093 450.655 413.093C451.398 413.093 452.006 413.451 452.006 413.888C452.006 420.219 454.203 439.217 455.228 441.747C455.971 443.583 456.825 447.609 457.122 450.697C457.422 453.782 458.368 457.771 459.224 459.56C460.08 461.349 461.053 464.746 461.387 467.107C461.72 469.47 462.788 473.008 463.759 474.971C464.73 476.934 465.523 479.4 465.523 480.45C465.523 481.498 466.334 483.918 467.325 485.824C468.316 487.731 469.127 489.738 469.127 490.282C469.127 491.188 471.011 495.784 475.395 505.563C476.311 507.607 477.503 510.326 478.044 511.604C478.584 512.881 479.436 514.554 479.934 515.321C480.434 516.088 481.277 517.761 481.806 519.038C482.335 520.316 483.942 523.453 485.372 526.008C486.805 528.564 488.616 531.91 489.396 533.443C491.29 537.158 494.214 542.014 497.512 546.914C498.999 549.124 500.824 551.877 501.567 553.034C510.569 567.023 524.361 583.279 550.788 611.043C560.764 621.522 572.726 634.131 577.371 639.065C603.812 667.136 632.584 697.505 651.602 717.416C663.497 729.869 677.642 744.799 683.035 750.596C688.429 756.39 700.188 768.888 709.168 778.367C718.147 787.846 730.317 800.811 736.21 807.177C742.103 813.543 760.002 832.552 775.981 849.42C791.962 866.288 808.772 884.061 813.338 888.917C828.216 904.739 857.763 936.293 866.294 945.468C890.25 971.234 891.14 972.068 896.153 973.459C905.763 976.129 904.909 976.852 952.574 925.559C979.857 896.196 989.276 886.138 1002.59 872.154C1019.91 853.953 1056.61 815.037 1062.15 808.994C1064.72 806.182 1076.6 793.483 1088.55 780.774C1100.5 768.065 1114.03 753.637 1118.63 748.712C1123.22 743.786 1138.32 727.839 1152.17 713.271C1166.02 698.704 1181.12 682.747 1185.71 677.81C1190.31 672.875 1208.67 653.482 1226.51 634.716C1244.35 615.95 1259.97 599.459 1261.2 598.072C1274.09 583.632 1279.08 577.761 1284.53 570.617C1288.04 566.017 1291.73 561.402 1292.73 560.362C1293.73 559.321 1294.55 558.182 1294.55 557.834C1294.55 556.823 1300.28 548.392 1301.53 547.569C1302.15 547.16 1302.66 546.354 1302.66 545.778C1302.66 545.204 1304.39 541.982 1306.5 538.622C1312.2 529.572 1312.46 529.133 1314.42 524.886C1315.41 522.735 1316.55 520.769 1316.94 520.518C1317.33 520.267 1318.2 518.367 1318.86 516.297C1319.52 514.227 1320.39 512.533 1320.79 512.533C1321.18 512.533 1321.94 510.879 1322.47 508.857C1323 506.836 1324.03 504.559 1324.77 503.799C1325.51 503.04 1326.37 501.035 1326.69 499.343C1327.01 497.652 1328.01 495.273 1328.93 494.053C1329.84 492.833 1330.59 490.949 1330.59 489.864C1330.59 488.779 1331.6 485.926 1332.84 483.526C1334.08 481.126 1335.1 478.359 1335.1 477.378C1335.1 476.398 1335.87 473.765 1336.81 471.528C1337.75 469.291 1338.81 465.578 1339.17 463.278C1339.52 460.978 1340.37 457.967 1341.06 456.586C1341.74 455.206 1342.3 453.055 1342.3 451.81C1342.3 450.562 1343.32 445.518 1344.56 440.599C1345.8 435.681 1346.81 429.501 1346.81 426.866C1346.81 420.681 1348.56 410.305 1349.61 410.305C1350.74 410.305 1350.66 356.645 1349.53 356.248C1348.29 355.813 1346.81 347.033 1346.81 340.135C1346.81 336.947 1346.03 331.827 1345.08 328.751C1344.13 325.677 1343.08 321.128 1342.75 318.639C1342.41 316.153 1341.37 311.906 1340.42 309.204C1339.47 306.502 1338.7 303.359 1338.7 302.22C1338.7 301.082 1337.89 298.589 1336.9 296.684C1335.91 294.776 1335.1 292.39 1335.1 291.379C1335.1 290.371 1334.08 287.26 1332.84 284.465C1331.6 281.672 1330.59 278.694 1330.59 277.848C1330.59 277 1329.78 275.246 1328.79 273.945C1327.8 272.646 1326.99 271.066 1326.99 270.437C1326.99 269.807 1324.65 264.621 1321.8 258.913C1318.95 253.202 1315.87 246.98 1314.94 245.082C1314.02 243.181 1312.7 241.295 1312.02 240.886C1311.33 240.477 1310.77 239.736 1310.77 239.241C1310.77 238.205 1306.4 230.942 1304.94 229.548C1304.4 229.037 1302.36 226.318 1300.4 223.507C1298.43 220.696 1296.41 217.817 1295.91 217.111C1289.48 208.075 1247.78 168.602 1236.88 161.241C1235.75 160.474 1233.76 158.992 1232.47 157.947C1230.41 156.285 1225.61 152.977 1213.4 144.799C1211.64 143.618 1209.77 142.654 1209.26 142.654C1208.74 142.654 1207.6 141.841 1206.73 140.849C1205.86 139.855 1204.02 138.786 1202.63 138.472C1201.25 138.159 1199.4 137.09 1198.53 136.095C1197.66 135.103 1196.25 134.29 1195.41 134.29C1194.56 134.29 1192.86 133.479 1191.64 132.49C1190.42 131.498 1188.24 130.396 1186.79 130.038C1185.34 129.681 1183.63 128.953 1182.98 128.424C1182.33 127.894 1179.89 126.746 1177.57 125.875C1175.25 125.004 1169.32 122.778 1164.4 120.926C1159.48 119.077 1154.76 117.562 1153.91 117.562C1153.06 117.562 1150.6 116.735 1148.44 115.724C1146.28 114.714 1143.27 113.877 1141.75 113.866C1140.23 113.854 1135.98 113.041 1132.29 112.058C1117.01 107.983 1068.81 107.632 1056.65 111.507C1054.42 112.218 1050.09 113.217 1047.01 113.728C1043.94 114.237 1040.63 115.097 1039.65 115.638C1038.67 116.18 1035.71 117.1 1033.07 117.68C1030.43 118.264 1026.85 119.521 1025.13 120.476C1023.4 121.428 1021.42 122.209 1020.72 122.209C1020.02 122.209 1013.73 125.183 1006.74 128.819C988.789 138.147 986.973 139.199 985.642 141.028C984.993 141.922 983.977 142.661 983.385 142.671C980.222 142.722 955.299 163.681 943.562 176.162C935.493 184.742 932.837 187.869 928.217 194.233C927.475 195.255 924.948 198.601 922.6 201.668C917.369 208.501 914.276 213.013 914.276 213.809C914.276 214.139 913.263 215.652 912.024 217.171C910.785 218.691 909.771 220.477 909.771 221.142C909.771 221.806 909.129 222.898 908.345 223.57C906.975 224.743 905.114 227.998 902.134 234.427C899.791 239.487 896.964 237.575 892.251 227.736C890.406 223.884 888.563 220.522 888.155 220.261C887.748 220.001 886.189 217.55 884.691 214.813C883.193 212.074 881.426 209.251 880.764 208.54C880.102 207.827 878.786 206.001 877.842 204.479C875.702 201.036 876.394 201.946 865.812 188.657C851.525 170.711 847.024 166.422 819.518 144.557C818.2 143.512 816.742 142.654 816.278 142.654C815.814 142.654 814.699 141.818 813.802 140.796C812.906 139.773 811.658 138.937 811.029 138.937C810.401 138.937 808.682 137.891 807.209 136.614C805.735 135.336 803.908 134.29 803.149 134.29C802.388 134.29 801.23 133.747 800.576 133.08C799.921 132.415 796.141 130.287 792.176 128.352C788.211 126.419 784.359 124.451 783.615 123.981C782.872 123.51 781.858 122.987 781.362 122.817C780.867 122.648 778.434 121.777 775.956 120.882C773.478 119.988 769.828 118.826 767.846 118.301C765.863 117.778 762.831 116.73 761.108 115.975C759.384 115.22 755.532 114.198 752.547 113.701C749.562 113.206 745.295 112.218 743.065 111.505C738.999 110.206 715.223 108.15 707.228 108.406C704.883 108.48 696.883 108.894 689.449 109.321ZM733.182 140.34C735.892 141.109 740.542 142.166 743.516 142.687C746.489 143.207 750.821 144.457 753.144 145.466C755.467 146.476 758.181 147.301 759.179 147.301C760.177 147.301 762.899 148.347 765.228 149.624C767.56 150.902 770.166 151.948 771.024 151.948C771.88 151.948 773.086 152.575 773.703 153.342C774.32 154.108 775.53 154.736 776.391 154.736C777.253 154.736 779.45 155.781 781.277 157.059C783.102 158.337 785.048 159.382 785.598 159.382C786.147 159.382 787.927 160.428 789.554 161.706C791.178 162.984 792.743 164.029 793.036 164.029C793.75 164.029 801.054 168.936 801.705 169.854C801.991 170.256 804.417 172.042 807.098 173.824C818.236 181.224 839.8 203.659 851.455 219.973C859.849 231.723 861.111 233.595 861.111 234.301C861.111 234.657 862.037 236.241 863.17 237.824C864.301 239.406 865.74 241.746 866.366 243.023C866.993 244.301 868.475 247.02 869.662 249.064C871.974 253.049 878.61 266.722 884.082 278.778C887.333 285.938 888.068 286.935 892.404 290.081C895.36 292.223 904.806 292.056 907.259 289.816C909.892 287.411 914.276 280.16 914.276 278.206C914.276 277.311 915.227 274.733 916.392 272.477C917.554 270.218 918.759 267.584 919.068 266.617C919.377 265.653 920.052 264.236 920.568 263.469C921.082 262.702 922.125 260.611 922.884 258.822C923.641 257.033 925.232 253.897 926.417 251.852C927.602 249.808 929.145 246.88 929.845 245.347C930.546 243.813 931.789 241.985 932.609 241.283C933.429 240.582 934.101 239.536 934.103 238.96C934.103 238.384 935.781 235.403 937.834 232.336C939.886 229.269 942.826 224.878 944.367 222.578C945.908 220.278 947.877 217.85 948.744 217.181C949.611 216.514 950.321 215.399 950.321 214.704C950.321 214.007 950.665 213.301 951.087 213.129C951.508 212.959 954.268 209.834 957.219 206.184C965.167 196.356 991.499 171.464 993.948 171.464C994.189 171.464 996.275 170.105 998.587 168.444C1007.49 162.043 1027.66 151.025 1030.49 151.011C1031.25 151.009 1033.09 150.175 1034.57 149.16C1036.06 148.144 1038.22 147.31 1039.36 147.308C1040.51 147.303 1043.35 146.488 1045.67 145.493C1047.99 144.499 1052.53 143.251 1055.75 142.719C1058.97 142.185 1063.82 141.116 1066.53 140.343C1073.55 138.34 1111.39 138.375 1119.73 140.391C1122.95 141.172 1128.22 142.222 1131.44 142.726C1134.67 143.233 1139.2 144.469 1141.52 145.473C1143.85 146.479 1146.89 147.303 1148.28 147.308C1149.68 147.31 1152.03 148.144 1153.52 149.16C1155.01 150.175 1157.04 151.014 1158.03 151.021C1159.02 151.028 1161.86 152.064 1164.33 153.321C1166.81 154.578 1169.5 155.621 1170.3 155.635C1171.1 155.651 1172.78 156.501 1174.04 157.524C1175.3 158.546 1177.13 159.382 1178.1 159.382C1179.07 159.382 1180.86 160.193 1182.08 161.183C1183.3 162.175 1185.38 163.265 1186.71 163.609C1188.03 163.95 1189.12 164.533 1189.12 164.903C1189.12 165.272 1190.23 166.139 1191.59 166.831C1193.8 167.951 1198.79 171.15 1210.29 178.82C1212.27 180.142 1214.68 181.954 1215.64 182.848C1216.6 183.743 1217.68 184.475 1218.04 184.475C1219.03 184.475 1239.03 201.305 1247.65 209.388C1261.23 222.122 1272.05 234.236 1279.68 245.251C1280.67 246.685 1282.59 249.336 1283.96 251.144C1285.32 252.951 1286.44 255.005 1286.44 255.707C1286.44 256.408 1287.25 257.698 1288.24 258.574C1289.23 259.45 1290.04 260.641 1290.04 261.222C1290.04 261.803 1291.05 263.813 1292.28 265.688C1293.51 267.56 1294.78 270.128 1295.08 271.392C1295.39 272.658 1295.99 273.692 1296.41 273.692C1296.83 273.692 1297.67 275.469 1298.27 277.641C1298.87 279.814 1299.86 282.218 1300.47 282.985C1301.09 283.752 1302.04 286.052 1302.59 288.097C1303.14 290.141 1304.19 292.625 1304.92 293.617C1305.66 294.611 1306.26 296.405 1306.26 297.604C1306.26 298.805 1307.06 301.405 1308.04 303.382C1309.02 305.359 1310.09 308.793 1310.42 311.012C1310.75 313.231 1311.55 316.139 1312.2 317.475C1312.85 318.811 1313.76 323.035 1314.23 326.862C1314.69 330.688 1315.55 334.757 1316.14 335.9C1316.74 337.045 1317.59 343.276 1318.04 349.747C1318.49 356.22 1319.25 364.651 1319.74 368.485C1321.01 378.498 1320.86 391.377 1319.33 404.729C1318.59 411.118 1317.99 418.504 1317.98 421.141C1317.98 423.781 1317.17 428.59 1316.18 431.829C1315.2 435.07 1314.37 439.185 1314.34 440.974C1314.31 442.763 1313.69 445.899 1312.96 447.944C1312.23 449.988 1311.24 453.645 1310.77 456.073C1310.3 458.499 1309.09 462.344 1308.09 464.618C1307.08 466.891 1306.26 469.667 1306.26 470.785C1306.26 471.902 1305.48 474.121 1304.53 475.715C1303.58 477.309 1302.53 480.166 1302.19 482.064C1301.84 483.963 1301 486 1300.31 486.593C1299.62 487.185 1299.05 488.235 1299.05 488.928C1299.05 490.089 1293.82 501.871 1291.88 505.098C1290.93 506.664 1289.01 510.54 1286.87 515.184C1286.08 516.896 1285.04 518.778 1284.55 519.366C1283.2 520.995 1276.24 531.963 1274.8 534.721C1274.1 536.062 1271.25 540.088 1268.46 543.666C1265.67 547.244 1262.75 551.217 1261.96 552.495C1260.27 555.232 1247.58 569.158 1230.57 586.962C1211.44 606.975 1160.25 660.975 1155.88 665.742C1150.14 672.008 1100.03 724.958 1083.69 742.02C1076 750.041 1065.46 761.23 1060.26 766.885C1055.05 772.54 1042.89 785.648 1033.22 796.013C1023.56 806.377 1013.28 817.406 1010.39 820.522C1007.49 823.638 994.516 837.415 981.551 851.139C946.854 887.872 946.556 888.19 931.402 904.772C908.135 930.231 904.918 933.632 902.217 935.626L899.622 937.543L887.509 924.615C880.847 917.504 869.649 905.476 862.622 897.885C855.596 890.295 843.424 877.34 835.576 869.096C820.894 853.679 788.808 819.416 783.64 813.64C782.04 811.851 773.885 803.069 765.519 794.124C757.152 785.179 746.42 773.678 741.666 768.567C736.915 763.456 720.166 745.682 704.448 729.07C688.728 712.458 671.42 694.069 665.986 688.207C660.553 682.345 654.689 676.03 652.954 674.174C621.287 640.292 606.076 624.187 585.821 603.097C549.599 565.38 544.368 559.676 539.865 552.983C538.873 551.51 537.251 549.416 536.26 548.334C534.289 546.175 533.381 544.907 527.024 535.423C519.074 523.564 513.246 513.836 509.695 506.492C508.706 504.448 507.528 502.148 507.075 501.381C504.865 497.631 501.567 489.876 501.567 488.428C501.567 487.531 500.756 486.042 499.765 485.117C498.774 484.193 497.958 482.559 497.954 481.488C497.949 480.417 496.936 477.304 495.701 474.569C494.467 471.835 493.457 468.687 493.457 467.574C493.457 466.461 492.867 464.681 492.144 463.617C491.423 462.553 490.218 458.65 489.47 454.944C488.72 451.236 487.733 447.728 487.278 447.144C486.823 446.561 486.152 443.376 485.787 440.065C485.422 436.754 484.539 432.363 483.824 430.307C483.11 428.251 482.137 421.376 481.662 415.031C481.186 408.686 480.42 398.721 479.961 392.887C479.425 386.1 479.445 378.543 480.022 371.898C480.515 366.187 481.265 356.705 481.684 350.827C482.106 344.949 482.932 338.885 483.523 337.352C484.113 335.818 485.149 331.427 485.827 327.594C487.366 318.869 490.342 307.557 492.063 303.895C492.784 302.362 493.606 299.581 493.89 297.715C494.174 295.85 494.994 293.821 495.71 293.208C496.426 292.595 497.287 290.566 497.618 288.701C497.952 286.835 498.977 284.312 499.896 283.092C500.815 281.872 501.567 280.153 501.567 279.268C501.567 278.383 502.322 276.663 503.246 275.444C504.169 274.224 505.224 272.242 505.589 271.041C505.953 269.837 507.226 267.374 508.416 265.567C509.605 263.759 510.578 261.71 510.578 261.015C510.578 260.321 510.997 259.752 511.509 259.752C512.018 259.752 512.703 259.036 513.029 258.16C514.568 254.022 522.903 242.603 533.539 230.059C537.846 224.978 556.127 206.135 559.263 203.543C561.228 201.919 570.8 193.578 574.546 190.225C576.006 188.917 580.795 185.179 584.886 182.151C586.27 181.129 588.522 179.352 589.894 178.202C591.266 177.052 592.737 176.108 593.161 176.106C593.584 176.101 596.567 174.222 599.788 171.929C603.01 169.635 606.103 167.756 606.662 167.751C607.22 167.749 608.133 167.182 608.687 166.492C609.705 165.226 616.457 161.622 626.371 157.052C629.345 155.681 633.445 153.765 635.481 152.789C637.518 151.815 639.748 151.004 640.438 150.986C641.127 150.97 643.312 150.147 645.295 149.16C647.277 148.172 649.913 147.34 651.152 147.313C652.391 147.282 655.128 146.453 657.232 145.468C659.338 144.483 663.596 143.412 666.694 143.089C669.794 142.763 674.153 141.929 676.383 141.232C682.695 139.265 683.608 139.197 706.599 139.062C723.428 138.965 729.353 139.248 733.182 140.34ZM747.12 355.964C745.138 356.638 742.502 357.228 741.263 357.275C740.024 357.321 737.996 357.951 736.757 358.671C735.518 359.391 732.883 360.857 730.9 361.931C728.918 363.002 726.368 364.44 725.232 365.125C722.425 366.819 713.328 376.83 713.328 378.224C713.328 378.842 712.54 380.085 711.578 380.982C710.614 381.881 709.569 383.828 709.253 385.308C708.1 390.726 703.389 392.106 697.525 388.742C692.772 386.017 669.375 385.564 665.57 388.122C664.331 388.956 662.132 389.922 660.686 390.271C659.237 390.619 657.054 391.714 655.833 392.706C654.612 393.695 653.141 394.506 652.564 394.506C649.079 394.506 633.13 414.564 633.13 418.948C633.13 419.745 632.467 421.079 631.659 421.913C627.768 425.925 627.205 525.683 631.023 533.908C632.091 536.208 633.458 539.449 634.058 541.11C634.659 542.771 635.457 544.131 635.833 544.131C636.209 544.131 636.995 545.323 637.579 546.782C642.634 559.365 663.993 571.116 681.709 571.061C688.537 571.037 700.726 568.352 703.063 566.354C704.549 565.08 709.724 569.959 709.724 572.636C709.726 573.57 710.74 575.549 711.977 577.034C713.216 578.519 714.23 579.994 714.23 580.31C714.23 581.462 723.57 590.788 726.888 592.949C728.765 594.171 730.56 595.605 730.878 596.137C731.195 596.669 732.103 597.103 732.894 597.103C733.685 597.103 736.55 598.186 739.263 599.51C745.381 602.493 768.486 602.672 772.802 599.77C774.041 598.936 776.271 597.963 777.758 597.605C779.245 597.25 781.173 596.297 782.045 595.486C782.915 594.678 784.359 593.56 785.253 593.005C790.869 589.51 793.336 587.424 795.33 584.492C796.569 582.668 798.42 580.054 799.443 578.684C805.656 570.371 808.008 560.961 808.551 542.272C808.871 531.203 809.205 528.59 810.419 527.635C812.579 525.934 987.514 525.934 988.882 527.635C989.416 528.299 989.961 535.748 990.154 545.06C990.429 558.208 990.787 561.858 992.029 564.112C992.871 565.645 993.565 567.573 993.57 568.396C993.572 569.218 994.588 571.432 995.827 573.317C997.066 575.199 998.08 577.143 998.08 577.638C998.08 578.465 1004.18 585.712 1006.93 588.149C1007.58 588.73 1008.97 590.145 1010.02 591.295C1011.06 592.445 1012.4 593.386 1012.99 593.386C1013.58 593.386 1015.06 594.197 1016.28 595.186C1017.5 596.179 1019.68 597.289 1021.13 597.656C1022.58 598.026 1024.76 598.992 1025.97 599.805C1027.76 600.997 1030.91 601.285 1042.19 601.285H1056.2L1064.76 596.91C1073.37 592.512 1086.39 580.712 1086.39 577.308C1086.39 576.597 1087.16 575.296 1088.1 574.418C1089.04 573.537 1090.08 571.36 1090.4 569.578C1091.12 565.622 1092.56 564.943 1096.46 566.707C1105.96 570.996 1120.01 572.313 1128.37 569.697C1130.8 568.937 1133.89 568.31 1135.22 568.303C1136.55 568.298 1137.92 567.841 1138.25 567.288C1138.58 566.735 1140.65 565.487 1142.85 564.516C1152.23 560.369 1164.48 544.639 1167.42 532.979C1168 530.678 1168.85 527.333 1169.31 525.544C1170.89 519.394 1170.4 437.526 1168.74 431.178C1167.95 428.132 1166.94 424.104 1166.5 422.226C1163.82 410.665 1147.33 392.624 1137.3 390.273C1135.81 389.925 1133.58 388.956 1132.35 388.122C1128.98 385.861 1106.07 385.924 1102.03 388.208C1100.47 389.086 1097.5 390.199 1095.43 390.68L1091.66 391.551L1089.89 387.685C1086.85 381.073 1085.32 378.466 1082.72 375.518C1081.34 373.949 1079.48 371.819 1078.57 370.783C1075.83 367.641 1067.31 361.05 1066 361.05C1065.32 361.05 1063.95 360.214 1062.96 359.191C1061.82 358.016 1059.92 357.319 1057.78 357.291C1055.92 357.27 1052.78 356.647 1050.79 355.911C1048.81 355.174 1044.76 354.572 1041.78 354.572C1038.81 354.572 1034.75 355.174 1032.77 355.911C1030.79 356.647 1027.9 357.27 1026.36 357.291C1024.82 357.314 1022.59 358.111 1021.4 359.064C1020.22 360.016 1018.24 361.12 1017 361.519C1010.66 363.562 993.592 383.607 993.57 389.044C993.565 389.748 992.871 391.579 992.024 393.112C990.774 395.382 990.396 399.304 990.004 414.181C989.738 424.234 989.181 432.807 988.769 433.232C987.158 434.886 812.358 434.67 810.581 433.011C809.202 431.724 808.921 429.473 808.619 417.422C808.024 393.656 804.366 382.996 792.428 370.241C790.09 367.741 787.821 365.697 787.386 365.697C786.954 365.697 785.897 364.897 785.041 363.922C784.183 362.946 782.396 361.868 781.072 361.526C779.745 361.185 778.022 360.313 777.244 359.591C776.467 358.868 773.831 357.886 771.387 357.407C768.943 356.928 765.802 356.09 764.408 355.541C761.024 354.212 751.596 354.442 747.12 355.964ZM761.076 386.219C770.551 388.47 776.51 395.259 778.148 405.668C780.957 423.532 779.04 556.386 775.922 559.929C775.246 560.696 773.559 562.625 772.171 564.214C765.588 571.751 755.724 573.939 747.208 569.753C742.403 567.39 740.634 565.689 736.537 559.49L734.061 555.747L734.059 478.6L734.054 401.451L737.098 396.79C740.792 391.133 745.926 387.299 751.256 386.221C756.64 385.132 756.499 385.132 761.076 386.219ZM1047.86 386.458C1054.85 388.359 1061.27 394.906 1063.72 402.626L1065.71 408.911L1065.45 480.935L1065.19 552.959L1062.79 557.606C1052.74 577.076 1029.29 576.388 1021.13 556.384L1018.81 550.692L1018.81 477.943L1018.82 405.194L1021.02 400.547C1026.6 388.73 1036.71 383.424 1047.86 386.458ZM689.62 418.758C696.144 422.103 701.026 427.677 702.675 433.66C704.905 441.754 704.741 516.854 702.477 523.89C695.86 544.447 670.569 546.15 660.388 526.722C657.228 520.69 657.201 436.494 660.357 430.412C663.292 424.756 666.419 421.485 670.976 419.301C679.841 415.056 682.265 414.984 689.62 418.758ZM1126.44 418.648C1131.95 421.395 1136.92 427.642 1138.87 434.264C1141.12 441.938 1141.25 514.424 1139.02 523.16C1133.82 543.503 1107.42 546.389 1097.2 527.728L1094.5 522.784V478.558V434.333L1096.93 429.986C1101.06 422.603 1104.09 420.089 1112.97 416.667C1115.92 415.528 1121.98 416.423 1126.44 418.648ZM988.888 466.252C990.256 467.662 990.384 491.411 989.037 494.007C987.649 496.683 812.068 496.85 810.101 494.178C808.443 491.925 808.328 466.438 809.973 465.752C812.638 464.644 987.803 465.132 988.888 466.252ZM392.983 76.6709H438.039V123.138H392.983V76.6709ZM1361.68 76.6709H1406.73V123.138H1361.68V76.6709Z" fill="#fff"/>
<path d="M217.893 442.159C217.617 442.159 217.393 442.383 217.393 442.659V896.316H3.75293V0.5H665.07V143.221H217.893C217.617 143.221 217.393 143.444 217.393 143.721V298.939C217.393 299.215 217.617 299.439 217.893 299.439H462.695V442.159H217.893Z" fill="#ed1e1e" stroke="black" stroke-linejoin="round"/>
<path d="M195.432 1305.73L1 896.816H139.263L273.205 1176.83H325.054L402.826 1052.38L515.165 1176.83H558.372L722.559 896.816H843.539L618.862 1305.73H471.958L402.826 1176.83L325.054 1305.73H195.432Z" fill="#fff" stroke="black"/>
<path fill-rule="evenodd" clip-rule="evenodd" d="M707.622 982.224V1280.73C707.622 1294.53 718.814 1305.73 732.622 1305.73H1013.03C1026.84 1305.73 1038.03 1294.53 1038.03 1280.73V982.224C1038.03 968.417 1026.84 957.224 1013.03 957.224H732.622C718.814 957.224 707.622 968.417 707.622 982.224ZM797.733 1077.09V1185.86C797.733 1199.66 808.926 1210.86 822.733 1210.86H922.918C936.725 1210.86 947.918 1199.66 947.918 1185.86V1077.09C947.918 1063.29 936.725 1052.09 922.918 1052.09H822.733C808.926 1052.09 797.733 1063.29 797.733 1077.09Z" fill="#ed1e1e"/>
<path fill-rule="evenodd" clip-rule="evenodd" d="M1003.49 961.879L976.453 1305.74H1062.06L1089.09 1198.86L1242.28 1305.74H1305.36L1188.21 1166.33L1089.09 1129.16C1209.57 1152.85 1255.52 1142.2 1305.36 1087.34C1305.36 1087.34 1354.92 1064.11 1305.36 961.879C1255.8 859.652 1003.49 961.879 1003.49 961.879ZM1091.34 1022.28V1075.72C1130.05 1060.07 1151.76 1064.91 1190.47 1075.72C1211.51 1073.73 1220.89 1056.03 1233.27 994.398C1169.52 988.892 1134.06 986.347 1091.34 1022.28Z" fill="#fff" stroke="black"/>
<path fill-rule="evenodd" clip-rule="evenodd" d="M1303.11 917.727V1305.7C1493.14 1311.04 1550.54 1276.29 1561 1122.7C1561.43 961.527 1504.21 923.729 1303.11 917.727ZM1377.63 1071.45V1191.02C1432.61 1202.81 1452.13 1193.8 1456.89 1136.11C1456.91 1064.59 1441.28 1047.86 1377.63 1071.45Z" fill="#fff"/>
</svg>
