<svg width="125" height="125" viewBox="0 0 1344 1344" fill="none" xmlns="http://www.w3.org/2000/svg">
<path fill-rule="evenodd" clip-rule="evenodd" d="M0  1280.2 55 65.7115 1277.73   254.315 581.851 255.652 579.264  257.547V268.884C574.56 279.807 574.678 280.241 577.759 280.678C584.485 281.628 589.643 279.663 591.373 275.486C593.463 270.443 595.953 270.383 598.003 275.332C601.131 282.882 599.343 328.262 595.728 333.151C588.158 343.379 592.973 348.869 608.483 347.696C622.349 346.648 626.005 341.178 620.232 330.107C617.514 324.895 615.861 275.026 618.307 272.079C620.753 269.133 624.647 269.764 627.1 273.504C629.546 277.24 634.6 277.926 640.352 275.305C644.989 273.192 645.648 255.111 641.175 252.719C637.668 250.841 612.457 251.2 596.736 253.354ZM697.805 252.941C695.09 255.656 695.725 271.992 698.648 274.64C702.388 278.023 709.148 277.509 711.675 273.648C713.929 270.211 719.447 268.4 721.479 270.433C723.636 272.59 721.751 326.864 719.43 329.519C717.155 332.116 716.601 343.506 718.647 345.552C720.791 347.696 739.556 348.721 742.993 346.88C746.777 344.857 746.888 338.16 743.232 332.64C740.793 328.954 740.561 326.29 740.554 301.647C740.544 270.866 741.74 265.789 746.941 274.603C749.932 279.67 756.245 282.065 761.883 280.274C767.431 278.514 767.323 259.526 761.749 256.543C753.705 252.239 701.45 249.295 697.805 252.941ZM509.107 266.183C507.851 266.915 501.5 268.39 494.995 269.459C483.474 271.354 464.883 275.964 462.286 277.566C459.698 279.166 460.78 290.868 463.68 292.68C467.87 295.297 467.803 347.474 463.599 354.272C461.664 357.407 460.958 360.481 461.247 364.513L461.664 370.272L469.086 370.033C473.172 369.902 479.22 368.837 482.526 367.661C485.836 366.489 492.922 364.946 498.275 364.237C503.624 363.528 510.428 361.711 513.395 360.199L518.784 357.45V346.749C518.784 336.507 518.643 336.017 515.481 335.224C511.258 334.162 505.183 336.175 503.761 339.105C503.153 340.355 502.139 342.434 501.504 343.728C499.944 346.91 486.696 349.178 485.029 346.547C483.272 343.775 483.625 330.08 485.52 327.56C486.444 326.333 491.067 324.435 495.795 323.346C506.214 320.944 507.088 320.158 507.239 313.044C507.407 305.263 505.119 304.043 494.464 306.24C485.423 308.109 484.717 307.803 482.98 301.271C480.03 290.176 493.685 281.161 501.836 288.819C506.473 293.177 516.644 292.246 518.206 287.324C522.621 273.407 517.427 261.331 509.107 266.183ZM819.359 268.85C818.036 275.473 818.247 276.457 821.826 280.318C825.952 284.77 827.084 336.628 823.143 340.57C810.953 352.76 820.445 361.586 849.284 364.886C853.279 365.343 858.299 366.623 860.439 367.728C862.747 368.921 866.904 369.576 870.647 369.335L876.96 368.928L877.367 360.232C877.921 348.429 877.172 346.268 871.87 344.35C865.674 342.108 864.165 342.276 860.624 345.603C857.879 348.183 856.803 348.361 850.456 347.283L843.36 346.08L842.964 335.456C842.48 322.439 843.162 321.609 851.945 324.526C862.966 328.188 864.864 327.321 864.864 318.642V311.364L854.754 307.89C841.394 303.3 841.344 303.253 841.344 295.868C841.344 283.933 855.127 282.264 860.506 293.55C862.344 297.404 863.527 298.166 868.956 298.98C877.232 300.219 877.824 299.366 877.356 286.847L876.96 276.252L868.224 273.783C863.419 272.425 856.071 270.766 851.898 270.094C847.721 269.425 841.673 268.182 838.458 267.335C824.678 263.713 820.317 264.059 819.359 268.85ZM933.724 293.798C931.657 295.861 932.726 306.671 935.323 309.97C938.666 314.22 937.951 367.167 934.5 371.139C931.96 374.055 932.632 385.721 935.424 387.18C955.019 397.417 965.627 394.094 958.235 380.029C953.165 370.376 954.653 351.5 960.13 356.022C960.957 356.704 963.749 357.806 966.336 358.475C974.618 360.612 977.364 374.586 971.652 385.543C968.201 392.159 969.152 396.577 974.978 401.023C981.083 405.68 994.489 409.507 996.052 407.04C998.054 403.882 997.349 396.514 994.684 392.73C992.682 389.888 991.929 385.688 991.25 373.632C990.276 356.244 990.269 358.005 991.354 343.002C992.887 321.817 986.167 308.979 971.467 305.021C968.409 304.198 964.642 302.743 963.097 301.785C961.551 300.831 957.271 299.322 953.585 298.435C949.899 297.552 946.27 296.318 945.521 295.7C943.518 294.047 934.87 292.653 933.724 293.798ZM387.072 299.319C385.963 299.725 382.519 301.19 379.418 302.575C376.317 303.956 372.671 305.088 371.317 305.088C369.963 305.088 367.513 306.025 365.877 307.175C364.237 308.32 359.88 310.155 356.194 311.25C346.345 314.173 343.956 321.384 349.44 331.619C351.852 336.114 352.128 339.199 352.128 361.536C352.128 383.873 351.852 386.958 349.44 391.453C346.513 396.917 345.902 404.5 348.2 406.799C349.705 408.304 360.296 405.888 363.404 403.334C364.224 402.662 368.364 401.107 372.6 399.88C376.837 398.651 380.617 397.135 381.007 396.51C381.394 395.882 384.045 394.975 386.897 394.494C391.823 393.661 396.11 390.338 403.109 381.928C407.161 377.056 407.051 306.929 402.982 301.755C400.337 298.395 392.757 297.232 387.072 299.319ZM388.446 321.905C390.062 330.859 388.245 335.079 381.283 338.533C371.633 343.315 367.964 341.329 368.521 331.629L368.928 324.576L376.32 320.94C385.315 316.519 387.509 316.693 388.446 321.905ZM969.696 322.715C976.413 325.957 976.339 341.376 969.605 341.376C960.258 341.376 955.631 336.417 955.604 326.367C955.581 317.97 956.894 316.556 962.304 319.153C964.152 320.04 967.478 321.643 969.696 322.715ZM387.801 359.275C390.284 369.167 388.117 375.194 380.628 379.233C370.191 384.858 367.661 383.195 368.609 371.354C369.415 361.344 370.296 360.095 378.054 357.971C386.232 355.733 386.938 355.827 387.801 359.275ZM681.109 373.404C676.318 376.673 676.076 377.54 676.052 391.336L676.032 404.336L682.144 409.557L688.252 414.782L688.182 480.134C688.108 547.949 688.041 549.115 684.21 550.331C677.373 552.502 676.032 555.778 676.032 570.326C676.032 590.009 675.478 589.683 710.526 590.712C742.61 591.656 740.494 592.734 741.938 574.664C743.292 557.773 743.114 557.095 736.438 553.691C729.412 550.106 729.661 551.137 729.463 524.822C729.261 498.506 729.318 498.338 737.856 500.012C741.182 500.664 747.835 501.235 752.64 501.285C776.348 501.53 778.031 503.563 778.253 532.184C778.384 549.538 778.035 554.447 776.63 554.914C769.799 557.192 767.424 562.545 767.424 575.659C767.424 593.023 769.9 595.987 785.642 597.452C791.515 597.999 798.501 599.216 801.168 600.153C814.965 605.005 829.695 604.165 831.466 598.423C833.166 592.909 831.654 568.186 829.571 567.497C828.64 567.188 826.053 565.112 823.822 562.881L819.766 558.825L819.87 533.091C819.978 506.117 819.094 499.995 814.545 496.215C810.328 492.71 809.441 485.809 812.962 483.924C821.554 479.327 824.352 404.544 815.936 404.544C815.445 404.544 813.97 402.726 812.656 400.505C811.346 398.284 808.503 395.553 806.343 394.434C804.182 393.318 801.484 390.61 800.352 388.416C798.067 383.994 792.251 380.53 788.525 381.373C787.198 381.672 784.59 380.923 782.739 379.71C780.431 378.198 774.198 377.113 762.979 376.27C753.967 375.594 741.149 374.465 734.496 373.76C710.852 371.263 684.503 371.085 681.109 373.404ZM597.865 373.726C596.8 374.321 586.283 375.759 574.493 376.921C548.927 379.441 536.078 382.741 531.068 388.07C507.367 413.287 508.556 408.522 510.851 469.056C510.948 471.643 510.864 496.44 510.663 524.16C510.256 579.378 510.169 578.669 518.361 586.021C532.479 598.702 538.168 601.443 545.987 599.337C548.977 598.534 557.232 597.351 564.336 596.712C615.912 592.079 621.704 590.15 634.338 573.411C642.529 562.555 642.335 564.446 642.462 495.63C642.607 419.63 642.603 419.194 641.31 400.704C640.691 391.867 613.885 371.693 607.777 375.47C607.142 375.863 605.089 375.386 603.211 374.412C601.252 373.397 598.977 373.104 597.865 373.726ZM866.709 397.354C865.502 398.805 864.703 404.174 864.4 412.853C863.869 428.054 865.287 431.679 873.032 434.915C875.562 435.97 877.679 437.583 877.733 438.497C878.358 448.651 877.269 483.517 876.15 489.28C874.833 496.064 874.9 506.053 876.651 563.136L876.96 573.216L872.293 573.888C863.738 575.118 860.022 601.188 867.216 609.477C870.334 613.069 891.048 620.928 897.399 620.928C899.166 620.928 903.007 622.084 905.933 623.498C908.86 624.913 913.823 626.499 916.957 627.02C920.092 627.54 924.333 628.824 926.386 629.876C928.435 630.924 933.576 632.423 937.81 633.199C942.04 633.978 946.115 635.121 946.861 635.736C955.221 642.61 992.584 652.327 995.474 648.379C1001.94 639.539 996.371 592.704 988.858 592.704C988.072 592.704 984.346 591.246 980.579 589.465C967.361 583.219 958.272 583.696 958.272 590.641C958.272 597.3 954.226 599.162 947.5 595.597C944.923 594.229 940.094 592.687 936.768 592.166C933.442 591.649 927.599 589.643 923.785 587.711L916.85 584.2L916.064 574.006C915.106 561.557 915.755 536.663 917.068 535.345C918.476 533.941 933.942 537.355 939.832 540.372C942.628 541.803 945.82 542.976 946.922 542.976C948.027 542.976 952.372 544.186 956.579 545.664C969.142 550.079 970.321 548.661 970.351 529.072C970.371 515.108 968.204 509.981 961.706 508.61C959.448 508.133 955.715 506.597 953.41 505.199C951.105 503.802 947.688 502.656 945.816 502.656C943.942 502.656 939.177 501.151 935.222 499.309C931.268 497.468 926.735 495.956 925.149 495.949C916.259 495.909 909.539 467.5 914.629 451.463C915.65 448.244 924.816 447.848 927.36 450.912C928.281 452.021 930.152 452.928 931.516 452.928C932.884 452.928 937.306 454.44 941.348 456.288C945.386 458.136 949.865 459.648 951.3 459.648C954.858 459.648 956.451 461.966 957.573 468.767C958.81 476.26 963.436 481.606 970.526 483.729C973.661 484.667 977.515 486.283 979.094 487.318C980.673 488.352 984.671 489.569 987.978 490.022C997.234 491.292 997.5 490.53 997.003 463.855L996.576 441L992.645 436.901C990.481 434.643 987.457 432.405 985.925 431.925C984.389 431.447 980.001 429.626 976.167 427.879C972.334 426.132 968.181 424.704 966.941 424.704C965.701 424.704 962.485 423.565 959.797 422.171C953.951 419.14 934.117 412.625 930.559 412.564C929.168 412.544 925.008 411.036 921.312 409.218C917.616 407.4 913.211 405.908 911.524 405.901C909.838 405.895 906.501 405.072 904.112 404.07C901.72 403.072 896.878 401.822 893.35 401.295C889.822 400.764 883.539 399.161 879.386 397.733C870.19 394.568 869.051 394.535 866.709 397.354ZM437.553 403.916C436.115 405.001 433.393 405.895 431.505 405.901C429.613 405.908 425.04 407.4 421.344 409.218C417.648 411.036 413.414 412.548 411.936 412.581C409.665 412.628 395.667 417.309 378.057 423.911C372.164 426.122 368.935 429.267 362.064 439.488C358.831 444.293 354.218 450.946 351.805 454.272L347.424 460.32L347.031 497.344L346.634 534.368L351.99 538.672C354.937 541.041 357.78 542.976 358.307 542.976C358.835 542.976 361.247 544.488 363.673 546.336C369.029 550.422 376.004 550.697 383.867 547.126C386.911 545.745 391.447 544.162 393.947 543.614C396.45 543.063 400.915 541.535 403.872 540.214C418.522 533.669 434.058 530.433 434.162 533.904C435.392 575.598 434.055 583.834 425.688 586.071C416.385 588.561 401.51 593.739 396.584 596.205C390.744 599.128 385.301 596.753 384.629 590.98C383.944 585.087 372.251 583.296 368.982 588.588C368.585 589.223 365.309 590.456 361.701 591.32C357.581 592.308 353.7 594.394 351.281 596.917C342.928 605.63 346.187 633.024 355.575 633.024C356.456 633.024 357.958 633.965 358.912 635.117C363.838 641.054 372.1 644.172 376.884 641.901C379.384 640.715 382.573 639.744 383.967 639.744C385.362 639.744 388.9 638.521 391.826 637.022C394.756 635.527 399.571 633.931 402.528 633.474C405.485 633.017 410.021 631.593 412.608 630.309C415.195 629.022 420.034 627.527 423.36 626.986C426.686 626.442 430.013 625.541 430.752 624.98C431.491 624.422 435.322 623.152 439.263 622.161C445.58 620.575 447.421 619.235 454.719 610.902C459.275 605.697 463.31 601.138 463.687 600.768C464.06 600.398 466.18 597.677 468.391 594.72L472.416 589.344L472.843 552.384C473.407 503.778 473.931 506.473 461.966 496.769L452.256 488.897L444.084 489.656C439.589 490.076 433.238 491.403 429.972 492.606C426.703 493.812 421.512 495.328 418.427 495.976C415.346 496.628 410.518 498.395 407.696 499.907C404.877 501.419 401.157 502.656 399.437 502.656C397.713 502.656 395.062 503.321 393.547 504.131C388.463 506.853 384.384 490.251 384.384 466.838C384.384 461.97 392.253 457.061 404.544 454.255C408.61 453.328 413.505 451.776 415.42 450.804C426.219 445.348 435.392 447.018 435.436 454.443C435.469 460.179 437.781 461.079 448.274 459.446C470.279 456.019 473.088 452.911 473.088 431.982C473.088 419.708 472.655 418.891 462.336 411.751C459.749 409.964 455.576 407.003 453.066 405.176C447.935 401.446 441.507 400.922 437.553 403.916ZM753.473 415.955C760.953 417.07 769.195 417.984 771.789 417.984C778.596 417.984 779.48 419.946 780.037 436.319C780.891 461.425 778.781 463.149 750.019 460.861C728.391 459.144 729.792 460.901 729.792 435.516C729.792 409.355 726.647 411.953 753.473 415.955ZM601.007 428.531C601.141 433.45 601.191 438.682 601.124 440.16C600.617 451.188 600.654 478.155 601.222 510.276C601.712 537.983 601.47 548.698 600.321 550.22C596.427 555.384 553.214 558.815 551.93 554.064C551.581 552.77 551.265 526.31 551.225 495.264C551.188 464.218 550.778 436.561 550.314 433.803C548.849 425.107 551.678 419.362 557.528 419.15C560.243 419.052 569.419 418.599 577.92 418.142C599.807 416.963 600.708 417.369 601.007 428.531ZM238.61 601.467C227.623 608.083 227.227 608.839 227.18 623.377C227.119 641.263 220.987 640.241 220.53 622.272C220.322 614.111 218.951 612.135 215.937 615.656C214.247 617.625 212.765 618.122 210.622 617.43C206.112 615.979 205.679 616.113 195.229 622.198C181.302 630.309 173.789 645.325 180.361 651.917C186.02 657.592 187.132 671.415 182.273 675.639C180.516 677.171 178.776 679.244 178.409 680.249C176.252 686.179 174.707 678.649 176.161 669.282L177.694 659.397L173.631 655.953C170.748 653.513 169.3 650.825 168.648 646.706C167.449 639.119 165.759 638.709 156.71 643.816C143.17 651.46 140.015 666.547 147.168 689.472C148.206 692.798 150.037 699.149 151.24 703.584C156.3 722.259 157.621 726.425 159.304 729.046C160.282 730.565 161.495 734.076 162.002 736.848C162.984 742.214 162.762 742.395 155.783 741.952C148.888 741.515 138.812 749.438 136.93 756.779C135.26 763.301 131.712 764.128 131.712 757.996C131.712 755.267 128.191 753.416 126.917 755.472C125.933 757.065 127.418 766.117 128.987 768.096C129.575 768.835 130.714 772.575 131.52 776.405C132.955 783.216 142.582 799.294 146.012 800.611C153.408 803.45 153.552 794.388 146.19 789.133C143.62 787.298 143.358 782.211 145.824 781.969C146.563 781.896 147.793 782.981 148.552 784.375C155.447 796.995 168.491 799.203 176.991 789.193L179.935 785.726L176.655 782.688C172.59 778.919 171.844 769.621 175.671 770.357C177.096 770.633 178.362 772.716 179.017 775.874C179.599 778.667 181.285 782.255 182.771 783.848C184.256 785.444 185.496 787.691 185.526 788.844C185.553 790 187.673 794.27 190.233 798.336C192.793 802.402 196.13 808.147 197.645 811.104C199.161 814.061 202.171 819.202 204.338 822.528C206.502 825.854 208.693 829.483 209.2 830.592C210.867 834.238 223.346 848.625 227.637 851.854C231.239 854.566 232.939 854.922 239.534 854.357C252.497 853.252 260.87 845.937 254.053 841.68C252.501 840.709 251.724 839.184 252.181 837.997C253.314 835.047 256.271 835.514 257.124 838.774C257.598 840.581 258.72 841.411 260.289 841.109C263.773 840.437 264.143 836.378 260.817 835.323C259.298 834.839 257.682 832.957 257.225 831.14C256.768 829.322 255.226 827.208 253.798 826.442C252.37 825.68 250.639 823.576 249.954 821.775C249.268 819.971 247.783 818.496 246.658 818.496C245.529 818.496 244.608 817.337 244.608 815.919C244.608 811.914 243.16 809.088 241.104 809.088C239.998 809.088 239.232 807.7 239.232 805.694C239.232 803.312 238.231 801.921 235.872 801.024C233.164 799.996 232.512 798.827 232.512 795.01C232.512 789.328 228.752 788.427 225.355 793.296C223.353 796.162 223.245 796.182 223.218 793.632C223.201 792.154 224.078 789.771 225.164 788.337C228.305 784.18 227.727 778.448 224.112 777.934C221.599 777.578 221.017 776.54 220.675 771.792C220.335 767.115 219.774 766.08 217.577 766.08C215.218 766.08 214.943 765.317 215.302 759.8C215.836 751.608 218.44 750.856 220.604 758.268C221.535 761.457 223.06 764.534 223.991 765.109C224.922 765.683 226.101 768.405 226.615 771.157C227.126 773.909 228.594 776.903 229.874 777.81C231.158 778.717 232.626 781.136 233.14 783.186C233.654 785.235 235.234 787.994 236.652 789.318C238.073 790.638 239.232 792.97 239.232 794.499C239.232 796.028 240.744 798.467 242.592 799.919C244.44 801.373 245.952 803.749 245.952 805.197C245.952 806.645 246.859 808.177 247.968 808.601C249.077 809.027 249.984 810.207 249.984 811.225C249.984 812.243 251.472 814.746 253.29 816.792C258.942 823.156 263.424 828.925 263.424 829.843C263.424 830.683 270.1 837.312 270.947 837.312C273.02 837.312 285.906 834.08 286.944 833.3C287.683 832.746 291.517 831.237 295.465 829.95C300.643 828.26 302.232 827.198 301.177 826.143C298.593 823.56 299.403 818.496 302.4 818.496C303.892 818.496 305.088 819.393 305.088 820.512C305.088 822.709 308.495 823.284 309.725 821.292C310.145 820.613 309.654 819.222 308.636 818.204C307.615 817.182 305.78 814.414 304.557 812.045C303.331 809.679 301.728 807.744 300.989 807.744C300.25 807.744 299.07 806.232 298.368 804.384C297.666 802.536 296.167 801.024 295.042 801.024C293.724 801.024 292.992 799.761 292.992 797.483C292.992 795.43 291.577 792.631 289.632 790.826C287.784 789.113 286.272 786.546 286.272 785.118C286.272 783.653 285.103 782.215 283.584 781.818C281.618 781.304 280.896 779.984 280.896 776.916C280.896 774.141 280.096 772.42 278.544 771.849C275.332 770.663 274.22 768.758 274.196 764.4C274.183 762.145 273.447 760.704 272.304 760.704C268.958 760.704 267.275 751.054 270.295 749.186C272.009 748.127 273.82 750.469 275.05 755.328C275.517 757.176 277.022 759.77 278.396 761.094C279.77 762.414 280.896 764.679 280.896 766.12C280.896 767.565 282.106 769.5 283.584 770.424C285.062 771.348 286.272 773.472 286.272 775.149C286.272 776.822 287.784 779.51 289.632 781.116C291.48 782.722 292.992 784.899 292.992 785.951C292.992 787.006 294.497 789.768 296.339 792.093C298.183 794.418 300.576 797.53 301.661 799.008C302.743 800.486 305.169 803.598 307.047 805.923C308.925 808.248 310.464 810.768 310.464 811.524C310.464 814.857 319.613 818.698 324.19 817.286C336.494 813.486 343.365 810.408 343.1 808.816C341.947 801.985 340.573 798.591 337.818 795.799C336.081 794.035 334.656 791.838 334.656 790.917C334.656 789.996 333.446 788.925 331.968 788.538C328.487 787.628 328.131 780.864 331.565 780.864C333.386 780.864 333.51 780.525 332.18 779.194C330.852 777.867 330.278 777.907 329.361 779.392C327.224 782.846 323.756 780.081 325.261 776.12C328.238 768.291 326.162 763.17 322.345 768.923C320.688 771.416 320.252 771.516 318.773 769.736C317.412 768.093 317.483 767.316 319.153 765.647C322.096 762.703 321.754 757.055 318.528 755.328C316.952 754.485 315.84 752.512 315.84 750.564C315.84 748.736 314.63 746.202 313.152 744.935C311.674 743.669 310.464 741.35 310.464 739.781C310.464 738.212 309.288 735.864 307.853 734.567C306.415 733.266 304.836 730.299 304.342 727.974C303.848 725.646 302.665 722.837 301.711 721.728C300.757 720.619 299.218 717.142 298.287 714C297.36 710.858 296.113 708.288 295.519 708.288C294.924 708.288 293.755 705.738 292.915 702.623C292.075 699.508 290.237 695.496 288.829 693.706C287.424 691.918 286.272 688.511 286.272 686.139C286.272 683.612 285.217 680.87 283.725 679.52C282.324 678.25 280.768 674.493 280.271 671.17C279.77 667.844 278.514 664.8 277.479 664.4C276.441 664.003 275.234 661.466 274.794 658.765C272.479 644.552 271.424 643.215 268.8 651.168C267.947 653.755 266.73 655.872 266.099 655.872C264.066 655.872 263.935 648.638 265.87 643.44C268.464 636.481 267.09 631.384 262.91 632.433C259.197 633.363 258.542 631.183 257.164 613.264C255.847 596.135 251.768 593.544 238.61 601.467ZM1086.85 600.321C1086.36 600.812 1085.94 607.918 1085.93 616.113C1085.91 633.367 1084.99 636.108 1080.75 631.559L1077.89 628.485V635.396C1077.89 639.196 1078.57 643.8 1079.4 645.627C1081.04 649.229 1079.79 659.723 1077.96 657.727C1077.36 657.075 1076.12 654.219 1075.22 651.38C1073.08 644.693 1071.25 646.521 1070.23 656.352C1069.57 662.804 1069.78 663.936 1071.65 663.936C1073.34 663.936 1073.86 665.233 1073.86 669.423C1073.86 676.425 1070.68 675.961 1070.08 668.872C1069.44 661.282 1066.26 662.612 1064.47 671.224C1063.64 675.232 1062.13 679.2 1061.12 680.037C1060.11 680.877 1058.86 684.099 1058.35 687.197C1057.84 690.295 1056.28 693.914 1054.89 695.238C1053.49 696.558 1052.35 699.048 1052.35 700.768C1052.35 702.485 1051.14 705.439 1049.65 707.327C1048.17 709.212 1046.58 712.609 1046.13 714.87C1045.68 717.128 1044.48 719.668 1043.46 720.512C1042.45 721.352 1040.98 724.423 1040.2 727.332C1039.41 730.242 1037.59 733.8 1036.15 735.239C1034.72 736.677 1033.54 739.234 1033.54 740.917C1033.54 742.6 1032.33 745.013 1030.85 746.279C1029.37 747.546 1028.16 749.965 1028.16 751.655C1028.16 753.346 1026.95 755.765 1025.47 757.032C1022.48 759.592 1021.93 764.689 1024.37 767.132C1025.25 768.009 1025.54 769.148 1025.03 769.665C1024.51 770.183 1023.37 769.89 1022.49 769.013C1021.62 768.14 1020.19 767.424 1019.31 767.424C1016.95 767.424 1016.13 773.872 1018.27 775.643C1019.27 776.479 1020.1 777.958 1020.1 778.932C1020.1 781.855 1017.12 782.779 1015.38 780.397C1012.8 776.872 1011.84 777.793 1012.79 782.88C1013.62 787.282 1013.45 787.584 1010.17 787.584C1006.95 787.584 1006.66 788.048 1006.66 793.125C1006.66 797.876 1006.37 798.43 1004.66 797.005C1001.33 794.25 997.644 796.404 1000.43 799.478C1001.63 800.816 1002.62 802.617 1002.62 803.48C1002.62 805.903 997.648 805.345 996.677 802.815C996.005 801.064 995.46 800.93 994.19 802.2C992.92 803.47 992.957 804.065 994.358 804.932C995.343 805.54 996.848 807.445 997.705 809.162C1003.82 821.433 1030.57 822.612 1034.15 810.768C1034.65 809.105 1035.64 807.744 1036.36 807.744C1037.07 807.744 1038.04 806.686 1038.51 805.392C1039.25 803.359 1042.49 799.008 1048.7 791.713C1050.62 789.459 1054.05 783.424 1057.15 776.832C1058.37 774.245 1060.2 771.644 1061.23 771.053C1062.26 770.461 1063.1 768.798 1063.1 767.357C1063.1 765.915 1064.23 763.614 1065.6 762.243C1066.97 760.872 1068.53 758.003 1069.06 755.866C1071.17 747.489 1075.2 746.831 1075.2 754.861C1075.2 758.48 1074.56 759.78 1072.51 760.314C1070.53 760.832 1069.82 762.149 1069.82 765.324C1069.82 768.24 1068.74 770.569 1066.46 772.548C1064.58 774.191 1063.1 776.923 1063.1 778.791C1063.1 780.736 1061.99 782.709 1060.42 783.552C1058.94 784.342 1057.73 786.186 1057.73 787.644C1057.73 789.103 1056.52 791.334 1055.04 792.6C1053.56 793.867 1052.35 796.337 1052.35 798.087C1052.35 800.144 1051.4 801.525 1049.66 801.978C1048.19 802.365 1046.98 803.504 1046.98 804.508C1046.98 805.516 1045.52 807.29 1043.74 808.456C1041.97 809.619 1040.15 812.015 1039.71 813.772C1039.27 815.532 1037.7 817.357 1036.22 817.824C1033.05 818.832 1032.74 821.537 1035.53 823.852C1037.18 825.226 1037.75 824.907 1038.85 822C1039.59 820.075 1041.13 818.496 1042.27 818.496C1043.42 818.496 1044.93 816.984 1045.63 815.136C1046.83 811.978 1051.01 810.324 1051.01 813.009C1051.01 815.768 1049.26 818.496 1047.5 818.496C1046.48 818.496 1045.63 819.396 1045.63 820.502C1045.63 821.604 1044.42 823.26 1042.94 824.184C1035.99 828.529 1050.1 836.734 1069.15 839.422C1073.11 839.98 1087.3 825.918 1087.3 821.436C1087.3 820.643 1088.46 819.175 1089.89 818.177C1091.31 817.179 1093.22 814.726 1094.13 812.727C1096.49 807.552 1099.39 808.053 1099.39 813.634C1099.39 817.051 1098.72 818.358 1096.7 818.886C1094.89 819.36 1094.02 820.72 1094.02 823.076C1094.02 825.303 1093.28 826.56 1091.97 826.56C1089.75 826.56 1086.79 832.722 1088.04 834.738C1088.46 835.414 1089.67 835.968 1090.74 835.968C1093.29 835.968 1093.24 840.84 1090.68 841.821C1089.5 842.271 1088.1 841.502 1087.27 839.95C1085.44 836.536 1083.26 836.563 1083.26 840C1083.26 841.478 1083.83 842.688 1084.53 842.688C1085.22 842.688 1085.98 844.932 1086.21 847.678C1086.85 855.345 1104.27 861.299 1112.39 856.625C1117.85 853.48 1140.96 824.43 1141.03 820.616C1141.05 819.937 1142.02 818.315 1143.2 817.014C1145.58 814.38 1147.63 810.755 1155.79 794.751C1158.87 788.713 1162.26 783.441 1163.32 783.031C1164.41 782.615 1165.25 780.518 1165.25 778.22C1165.25 775.935 1166.43 772.961 1167.94 771.456C1169.41 769.978 1170.62 767.585 1170.62 766.144C1170.62 762.209 1173.5 756.672 1175.54 756.672C1176.74 756.672 1177.34 754.905 1177.34 751.377C1177.34 748.463 1177.94 745.708 1178.67 745.258C1179.4 744.808 1180.96 741.112 1182.15 737.046C1183.33 732.981 1185.15 728.021 1186.19 726.029C1187.23 724.033 1188.1 721.19 1188.12 719.712C1188.14 718.234 1189.32 714.457 1190.74 711.322C1192.17 708.184 1193.97 702.438 1194.75 698.554C1195.52 694.667 1197.07 688.182 1198.18 684.14C1203.33 665.344 1200.54 655.902 1187.21 647.052L1179.6 642.002L1177.13 645.053C1175.77 646.733 1174.66 649.27 1174.66 650.691C1174.66 652.116 1173.82 654.619 1172.79 656.255C1171.76 657.891 1170.63 663.66 1170.27 669.073C1169.45 681.512 1168.1 682.97 1163.27 676.63C1159.27 671.395 1158.71 655.156 1162.39 651.474C1166.52 647.344 1161.89 632.137 1155.63 629.257C1155.14 629.032 1151.95 626.996 1148.53 624.732C1143.97 621.711 1140.8 620.632 1136.66 620.689C1133.25 620.736 1130.06 619.907 1128.61 618.596C1125.16 615.478 1123.8 617.649 1123.32 626.976C1122.62 640.88 1117.67 638.739 1117.14 624.295C1116.78 614.736 1116.34 613.133 1113.1 609.753C1106.2 602.535 1090.33 596.833 1086.85 600.321ZM620.256 615.78C599.558 616.295 579.902 617.36 576.576 618.146C573.25 618.929 560.851 620.437 549.024 621.499C537.197 622.561 525.884 624.049 523.884 624.809C521.885 625.572 514.251 626.808 506.92 627.561C499.592 628.313 491.854 629.61 489.723 630.447C487.596 631.283 480.715 632.759 474.432 633.726C468.149 634.694 460.589 636.414 457.632 637.553C454.675 638.692 450.344 639.653 448.009 639.684C445.67 639.717 440.53 640.903 436.585 642.321C432.637 643.739 425.779 645.792 421.344 646.887C404.88 650.95 397.058 653.302 393.584 655.234C391.621 656.322 388.779 657.216 387.264 657.216C381.699 657.216 378.04 660.069 376.344 665.73L374.68 671.278L371.754 667.608C366.149 660.576 353.543 665.717 353.492 675.054C353.452 682.523 371.085 683.663 374.277 676.395C375.987 672.494 378.255 671.714 382.398 673.603C384.945 674.762 386.964 674.728 390.781 673.458C397.79 671.123 418.414 665.485 428.064 663.264C432.499 662.243 439.152 660.512 442.848 659.417C446.544 658.325 456.826 655.828 465.696 653.869C474.566 651.914 485.927 649.391 490.943 648.265C495.959 647.139 505.636 645.412 512.447 644.428C546.134 639.559 555.445 638.185 567.84 636.256C595.177 632.006 708.859 630.786 741.216 634.398C787.718 639.593 800.792 641.236 804.324 642.331C806.575 643.03 814.464 644.243 821.856 645.026C829.248 645.809 838.266 647.361 841.895 648.473C845.524 649.585 850.06 650.483 851.975 650.466C855.359 650.439 876.053 655.173 893.76 660.025C898.565 661.342 905.117 662.82 908.319 663.314C911.521 663.805 915.755 665.052 917.727 666.08C919.699 667.108 922.693 667.955 924.38 667.961C926.066 667.965 931.207 669.251 935.804 670.817C951.925 676.318 959.129 677.268 962.109 674.285C965.005 671.388 967.68 672.188 967.68 675.948C967.68 678.864 969.185 680.094 976.786 683.387L982.531 685.88L986.59 681.989C994.785 674.14 982.988 662.447 973.288 668.805C970.536 670.609 969.713 670.703 969.236 669.275C968.157 666.039 962.146 661.406 956.461 659.43C944.422 655.247 912.895 646.222 893.088 641.29C890.131 640.554 883.781 638.968 878.976 637.765C874.171 636.562 865.099 634.738 858.816 633.709C852.533 632.681 844.066 630.904 840 629.761C835.934 628.616 829.261 627.671 825.172 627.665C821.083 627.655 814.43 626.758 810.388 625.672C806.346 624.587 795.782 623.031 786.912 622.218C778.042 621.405 766.55 620.155 761.376 619.443C735.349 615.864 677.389 614.359 620.256 615.78ZM1117.2 647.136C1117.2 656.01 1115.75 659.692 1112.95 657.962C1111.08 656.806 1111.08 647.317 1112.95 640.591C1115.05 633.014 1117.2 636.32 1117.2 647.136ZM231.672 639.408C234.585 649.397 234.011 659.904 230.55 659.904C227.929 659.904 227.136 656.749 227.136 646.353C227.136 637.2 229.827 633.081 231.672 639.408ZM1127.62 646.545C1127.62 654.555 1125.95 657.155 1124.43 651.504C1123.36 647.492 1123.36 639.069 1124.44 637.99C1126.46 635.971 1127.62 639.085 1127.62 646.545ZM220.399 644.865C220.369 652.522 218.914 657.155 217.597 653.785C216.327 650.54 216.112 643.363 217.197 640.534C218.541 637.029 220.416 639.566 220.399 644.865ZM314.496 648.974C300.915 654.81 299.5 667.773 309.711 692.849C324.395 728.912 331.766 734.724 350.68 725.142C359.745 720.545 359.483 717.602 348.768 703.648C347.659 702.203 346.752 700.18 346.752 699.149C346.752 698.121 345.583 695.638 344.155 693.628C342.723 691.622 341.171 688.202 340.704 686.031C340.237 683.857 338.738 679.358 337.371 676.032C336.007 672.706 333.96 664.897 332.825 658.681C330.043 643.467 328.823 642.822 314.496 648.974ZM1013.82 647.506C1012.96 648.053 1011.57 653.486 1010.73 659.575C1009.9 665.663 1008.05 673.22 1006.62 676.361C1005.19 679.506 1004.01 683.038 1004 684.21C1003.96 686.797 991.805 710.704 987.699 716.255C983.879 721.426 986.509 726.281 994.261 728.367C997.06 729.12 1000.54 730.639 1001.99 731.737C1006.77 735.349 1012.48 734.375 1015.34 729.456C1016.73 727.054 1018.22 724.786 1018.65 724.416C1019.79 723.421 1032.84 696.582 1035.96 688.8C1037.44 685.104 1039.08 676.896 1039.59 670.555L1040.53 659.034L1036.26 655.435C1033.91 653.46 1031.27 651.84 1030.39 651.84C1029.51 651.84 1026.53 650.63 1023.78 649.152C1018.4 646.272 1016.31 645.923 1013.82 647.506ZM603.735 655.039C592.707 656.732 591.41 657.915 591.38 666.298C591.363 670.74 592.109 672.672 594.72 674.94C598.564 678.283 599.814 695.836 596.4 698.537C593.121 701.131 570.279 701.927 569.342 699.478C566.943 693.232 568.502 682.48 572.544 677.376C580.013 667.944 576.613 656.363 566.859 658.019C538.682 662.81 537.6 663.328 537.6 672.017C537.6 677.618 538.128 679.002 540.96 680.86L544.32 683.061V716.997C544.32 749.23 544.182 751.111 541.551 754.454C535.725 761.863 536.972 774.487 543.604 775.259C547.435 775.706 564.688 772.35 571.476 769.84C577.614 767.565 578.364 757.31 572.736 752.61C568.569 749.132 568.512 748.917 568.512 736.895C568.512 722.538 567.87 723.116 584.862 722.081L596.511 721.368L597.751 725.915C599.427 732.053 597.818 745.184 595.009 748.289C589.737 754.115 590.416 768.019 596.027 769.091C619.94 773.66 639.522 759.612 626.368 747.324L622.4 743.615L622.201 710.213C622.013 678.572 622.141 676.701 624.627 674.685C630.497 669.934 631.979 662.316 628.165 656.497C625.676 652.697 620.844 652.408 603.735 655.039ZM739.576 657.243C737.873 657.928 736.253 660.055 735.806 662.199C735.373 664.262 733.841 668.539 732.406 671.701C730.968 674.863 729.792 678.972 729.792 680.837C729.792 682.702 728.592 686.71 727.127 689.744C725.659 692.778 724.053 697.435 723.556 700.093C723.059 702.754 721.748 707.045 720.646 709.632C719.544 712.219 717.851 717.662 716.886 721.728C713.422 736.337 709.518 745.54 706.134 747.083C697.882 750.842 702.697 765.311 712.673 766.732C738.115 770.364 747.482 763.16 736.549 748.369C729.308 738.575 733.737 734.61 750.99 735.44C770.317 736.371 777.192 743.148 768.261 752.465C761.312 759.723 763.758 769.356 772.928 770.834C775.444 771.241 781.936 772.535 787.355 773.711C799.119 776.267 800.923 775.29 801.995 765.764C802.583 760.56 802.156 759.209 798.669 755.21C794.311 750.217 787.584 732.46 787.584 725.948C787.584 723.714 787.026 721.543 786.344 721.12C785.662 720.7 784.113 715.992 782.9 710.66C781.687 705.331 780.125 700.278 779.423 699.438C778.724 698.594 777.497 694.357 776.694 690.02C775.895 685.682 774.403 680.521 773.385 678.552C772.367 676.583 771.137 672.494 770.653 669.467C768.902 658.526 752.462 652.058 739.576 657.243ZM237.841 663.849C240.405 668.64 239.608 677.376 236.604 677.376C234.669 677.376 233.745 676.143 233.097 672.682C231.47 664.01 234.706 657.989 237.841 663.849ZM1111.25 666.577C1111.91 673.351 1110.49 677.376 1107.43 677.376C1104.31 677.376 1103.83 672.407 1106.26 665.421C1108.13 660.079 1110.67 660.67 1111.25 666.577ZM1122.22 667.713C1122.19 673.67 1120.71 677.9 1119.39 675.81C1118.05 673.704 1117.82 664.773 1119.07 663.526C1120.65 661.943 1122.24 664.057 1122.22 667.713ZM225.792 669.984C225.792 673.31 225.187 676.032 224.448 676.032C223.709 676.032 223.104 673.31 223.104 669.984C223.104 666.658 223.709 663.936 224.448 663.936C225.187 663.936 225.792 666.658 225.792 669.984ZM274.156 669.057C274.146 671.046 273.605 673.509 272.96 674.53C271.303 677.141 269.623 671.563 270.735 667.145C271.79 662.935 274.183 664.272 274.156 669.057ZM876.09 676.932C871.302 678.203 871.036 688.4 875.616 695.137L878.976 700.083V734.395V768.707L875.616 770.908C872.784 772.763 872.256 774.151 872.256 779.732V786.354L880.656 790.329C885.276 792.513 890.437 794.304 892.124 794.304C893.81 794.304 897.382 795.218 900.06 796.337C912.176 801.4 916.736 786.005 905.994 776.284C903.403 773.939 903.168 772.299 903.168 756.575C903.168 731.472 904.183 730.938 913.221 751.296C914.37 753.883 916.141 757.814 917.156 760.032C918.167 762.25 920.593 767.693 922.542 772.128C924.494 776.563 927.585 783.065 929.413 786.576C931.241 790.087 932.736 793.907 932.736 795.067C932.736 802.126 946.152 812.139 954.768 811.507L960.288 811.104L960.96 767.784C961.629 724.742 961.652 724.453 964.656 722.35C972.32 716.984 967.038 701.259 957.002 699.565C954.089 699.071 949.428 697.509 946.643 696.088C940.41 692.909 933.337 692.688 932.208 695.631C930.394 700.352 931.439 707.986 934.416 711.766C939.678 718.442 939.399 757.945 934.117 754.679C933.472 754.28 932.514 751.995 931.987 749.603C931.053 745.352 928.899 740.104 922.464 726.412C920.721 722.706 919.296 719.137 919.296 718.482C919.296 717.827 917.848 714.208 916.08 710.438C914.313 706.668 911.484 700.56 909.791 696.864C905.241 686.918 900.685 681.408 897.009 681.408C895.279 681.408 890.79 680.198 887.04 678.72C883.29 677.242 879.789 676.103 879.262 676.187C878.734 676.274 877.306 676.61 876.09 676.932ZM190.001 680.4C191.671 686.633 190.966 694.848 188.761 694.848C187.616 694.848 186.043 696.662 185.27 698.88C183.174 704.898 181.057 703.856 181.857 697.2C183.849 680.639 187.851 672.38 190.001 680.4ZM1158.53 677.732C1158.53 677.927 1159.74 681.395 1161.22 685.44C1164.13 693.42 1164.57 698.436 1162.62 701.521C1161.63 703.09 1161.06 702.677 1159.86 699.508C1159.02 697.318 1157.39 694.478 1156.24 693.198C1154.1 690.84 1153.35 681.66 1155.06 678.888C1155.87 677.588 1158.53 676.701 1158.53 677.732ZM449.568 680.373C445.872 681.082 440.126 682.54 436.8 683.616C433.474 684.691 427.728 686.34 424.032 687.281C420.336 688.219 415.998 689.697 414.392 690.567C412.786 691.434 408.253 692.835 404.326 693.675C400.394 694.519 395.963 695.977 394.477 696.911C392.992 697.848 389.659 699.041 387.072 699.562C375.994 701.79 370.699 717.619 376.972 729.755L378.968 733.616L386.938 730.091C393.214 727.319 395.059 725.814 395.62 723.008C396.672 717.746 402.79 714.02 405.66 716.893C408.116 719.349 408.196 786.472 405.747 787.369C400.556 789.261 398.325 801.568 402.535 805.063C404.887 807.015 412.934 806.074 419.644 803.06C422.06 801.978 426.465 800.486 429.435 799.747C439.542 797.227 442.919 782.709 434.656 777.296L431.424 775.179V741.226V707.27L435.574 705.553C439.471 703.937 439.908 704.068 442.814 707.713L445.909 711.594L453.724 709.955C464.325 707.73 465.545 706.195 466.146 694.324C466.936 678.646 465.394 677.349 449.568 680.373ZM1105.39 681.744C1106.42 686.31 1104.28 694.176 1102.03 694.176C1100.73 694.176 1099.92 692.476 1099.65 689.193C1098.98 681.136 1103.84 674.829 1105.39 681.744ZM244.716 685.816C245.784 692.382 243.106 696.888 240.754 692.489C239.917 690.927 239.232 687.449 239.232 684.758C239.232 677.846 243.556 678.68 244.716 685.816ZM1067.4 688.296C1066.97 691.233 1066.46 691.905 1065.64 690.618C1064.25 688.43 1064.09 683.555 1065.37 682.285C1066.93 680.716 1068.03 683.968 1067.4 688.296ZM1116.15 683.982C1117.14 687.083 1115.7 693.504 1114.03 693.504C1113.37 693.504 1112.83 690.782 1112.83 687.456C1112.83 681.284 1114.68 679.345 1116.15 683.982ZM231.84 687.903C231.84 694.025 229.233 693.813 228.725 687.651C228.413 683.831 228.766 682.624 230.069 683.058C231.044 683.384 231.84 685.564 231.84 687.903ZM279.552 686.784C279.552 689.002 278.947 690.816 278.208 690.816C277.469 690.816 276.864 689.002 276.864 686.784C276.864 684.566 277.469 682.752 278.208 682.752C278.947 682.752 279.552 684.566 279.552 686.784ZM753.493 690.087C756.111 691.921 757.3 695.191 760.465 709.256C761.987 716.026 760.371 717.071 750.624 715.609C742.637 714.413 742.61 714.316 746.061 700.237C749.256 687.211 749.3 687.15 753.493 690.087ZM1099.39 701.484C1099.39 706.82 1096.63 710.573 1093.93 708.906C1092.09 707.771 1093.12 699.562 1095.45 696.76C1097.82 693.9 1099.39 695.779 1099.39 701.484ZM196.752 700.483C198.358 705.022 196.842 710.502 193.754 711.309C192.249 711.702 190.912 713.674 190.394 716.261C189.914 718.664 188.936 720.192 188.177 719.722C186.06 718.415 186.564 711.362 188.832 710.489C190.2 709.965 190.848 707.824 190.848 703.849C190.848 695.362 194.255 693.417 196.752 700.483ZM250.051 699.004C251.704 702.096 250.723 708.288 248.58 708.288C246.624 708.288 244.658 702.334 245.525 699.024C246.466 695.423 248.129 695.416 250.051 699.004ZM1153.1 698.793C1153.87 700.221 1154.5 703.245 1154.5 705.513C1154.5 707.777 1155.1 709.632 1155.84 709.632C1156.58 709.632 1157.18 712.051 1157.18 715.008C1157.18 721.634 1154.94 722.074 1153.74 715.68C1153.12 712.414 1152.13 710.976 1150.48 710.976C1147.54 710.976 1145.96 704.323 1147.78 699.552C1149.3 695.527 1151.21 695.255 1153.1 698.793ZM286.272 701.568C286.272 702.959 285.664 704.474 284.918 704.935C283.191 706 281.699 702.227 282.757 699.468C283.792 696.773 286.272 698.258 286.272 701.568ZM1061.76 700.815C1061.76 702.62 1061.16 704.471 1060.42 704.928C1059.63 705.412 1059.07 704.044 1059.07 701.649C1059.07 699.387 1059.68 697.536 1060.42 697.536C1061.16 697.536 1061.76 699.011 1061.76 700.815ZM237.888 704.337C237.888 706.511 237.293 708.288 236.571 708.288C234.894 708.288 233.312 702.19 234.494 700.278C235.983 697.869 237.888 700.143 237.888 704.337ZM1110.12 703.329C1110.11 704.948 1109.55 707.149 1108.87 708.217C1107.34 710.643 1105.36 704.118 1106.63 700.815C1107.73 697.949 1110.15 699.69 1110.12 703.329ZM1092.67 716.261C1092.67 721.711 1092.19 723.042 1089.98 723.744C1088.12 724.335 1087.3 725.777 1087.3 728.428C1087.3 734.056 1086 736.512 1083.03 736.512C1081.05 736.512 1080.6 737.147 1081.21 739.086C1082.59 743.413 1080.6 748.608 1077.57 748.608C1074.41 748.608 1074.94 739.714 1078.25 737.187C1079.22 736.448 1080.77 733.27 1081.69 730.128C1082.68 726.785 1084.18 724.416 1085.33 724.416C1086.69 724.416 1087.3 722.927 1087.3 719.625C1087.3 714.47 1089.27 709.632 1091.37 709.632C1092.09 709.632 1092.67 712.616 1092.67 716.261ZM202.944 719.89C202.944 724.967 201.009 726.714 198.079 724.282C196.113 722.652 196.402 715.297 198.566 711.789C199.88 709.666 202.944 715.337 202.944 719.89ZM256.445 717.37C256.754 721.647 256.371 723.072 254.91 723.072C252.561 723.072 251.328 720.223 251.328 714.8C251.328 707.972 255.931 710.287 256.445 717.37ZM291.648 715.089C291.648 717.988 289.511 718.637 288.597 716.016C287.777 713.667 288.997 710.842 290.445 711.735C291.107 712.145 291.648 713.654 291.648 715.089ZM1056.38 712.881C1056.38 716.093 1054.82 719.067 1053.55 718.281C1051.5 717.011 1052.17 710.976 1054.37 710.976C1055.48 710.976 1056.38 711.833 1056.38 712.881ZM1146.96 713.103C1147.41 714.272 1147.78 717.834 1147.78 721.022C1147.78 725.044 1148.42 727.064 1149.88 727.625C1151.26 728.152 1151.84 729.721 1151.56 732.137C1150.97 737.251 1148.54 736.794 1148.03 731.472C1147.15 722.437 1141.12 727.023 1141.07 736.757C1141.06 739.173 1140.17 740.645 1138.37 741.216C1136.23 741.895 1135.68 743.249 1135.68 747.869C1135.68 752.472 1135.14 753.809 1133.08 754.35C1131.19 754.844 1130.37 756.433 1130.06 760.22C1129.74 764.074 1128.86 765.747 1126.61 766.735C1124.34 767.73 1123.58 769.185 1123.58 772.572C1123.58 775.958 1122.91 777.259 1120.89 777.79C1119 778.283 1117.94 780.024 1117.37 783.596C1116.82 787.033 1115.73 788.911 1114.02 789.358C1112.12 789.855 1111.49 791.25 1111.49 794.976C1111.49 798.8 1110.88 800.093 1108.8 800.634C1107.32 801.021 1106.11 802.402 1106.11 803.705C1106.11 806.602 1102.71 809.639 1100.8 808.453C1098.37 806.954 1099.26 802.959 1102.75 799.68C1104.6 797.943 1106.11 795.51 1106.11 794.274C1106.11 793.037 1107.28 790.675 1108.72 789.022C1110.15 787.372 1111.7 784.305 1112.16 782.211C1112.62 780.115 1113.78 778.099 1114.74 777.732C1115.7 777.363 1116.84 775.27 1117.28 773.079C1117.72 770.885 1118.88 768.264 1119.87 767.249C1120.86 766.238 1122.42 762.838 1123.35 759.696C1124.28 756.554 1125.55 753.984 1126.17 753.984C1126.79 753.984 1127.96 751.346 1128.77 748.124C1129.58 744.902 1131.17 741.502 1132.29 740.567C1133.42 739.633 1134.34 737.103 1134.34 734.943C1134.34 732.544 1135.64 729.705 1137.7 727.655C1139.8 725.552 1141.06 722.773 1141.06 720.236C1141.06 713.153 1145.1 708.261 1146.96 713.103ZM242.898 721.392C242.364 723.633 242.286 723.633 241.312 721.392C240.751 720.098 240.751 717.982 241.312 716.688C242.602 713.728 243.849 717.424 242.898 721.392ZM1103.42 718.368C1103.42 720.216 1102.82 721.728 1102.08 721.728C1101.34 721.728 1100.74 720.216 1100.74 718.368C1100.74 716.52 1101.34 715.008 1102.08 715.008C1102.82 715.008 1103.42 716.52 1103.42 718.368ZM1049.66 727.104C1049.66 729.322 1049.06 731.136 1048.32 731.136C1047.58 731.136 1046.98 729.322 1046.98 727.104C1046.98 724.886 1047.58 723.072 1048.32 723.072C1049.06 723.072 1049.66 724.886 1049.66 727.104ZM262.728 730.545C263.458 733.431 265.121 736.865 266.424 738.168C269.66 741.404 269.677 748.971 266.448 748.359C264.731 748.033 263.985 746.37 263.683 742.214C263.407 738.404 262.641 736.512 261.378 736.512C258.649 736.512 256.838 732.376 257.668 728.041C258.643 722.948 261.126 724.174 262.728 730.545ZM297.125 726.13C297.068 726.667 297.024 728.048 297.024 729.201C297.024 730.353 296.419 730.921 295.68 730.464C293.866 729.342 293.956 724.067 295.781 724.675C296.577 724.937 297.182 725.592 297.125 726.13ZM209.597 733.824C209.651 737.839 207.399 739.882 205.061 737.94C202.544 735.853 202.222 727.581 204.624 726.741C206.438 726.106 209.553 730.545 209.597 733.824ZM196.597 729.728C196.973 731.173 196.489 733.441 195.518 734.768C193.543 737.473 190.966 731.519 192.817 728.525C194.181 726.314 195.844 726.845 196.597 729.728ZM249.42 733.36C248.67 735.306 248.277 735.41 247.346 733.908C245.811 731.418 247.195 727.81 248.996 729.611C249.735 730.35 249.927 732.036 249.42 733.36ZM1098.05 731.727C1098.05 733.532 1097.49 735.356 1096.8 735.779C1095.29 736.717 1093.51 731.704 1094.68 729.805C1096.2 727.339 1098.05 728.394 1098.05 731.727ZM303.744 737.775C303.744 739.21 303.203 740.719 302.541 741.129C301.096 742.022 299.386 738.128 300.458 736.391C301.782 734.247 303.744 735.074 303.744 737.775ZM1044.29 737.073C1044.29 740.285 1042.73 743.259 1041.46 742.473C1039.4 741.203 1040.07 735.168 1042.27 735.168C1043.38 735.168 1044.29 736.025 1044.29 737.073ZM213.649 741.801C216.031 746.249 215.426 752.909 212.688 752.391C210.917 752.055 210.235 750.372 209.926 745.571C209.499 738.921 211.189 737.208 213.649 741.801ZM202.299 747.143C201.795 749.441 200.827 750.977 200.145 750.557C198.714 749.67 198.475 742.772 199.829 741.418C201.677 739.57 203.193 743.081 202.299 747.143ZM1092.04 745.786C1091.55 747.338 1090.58 748.608 1089.89 748.608C1088.45 748.608 1088.18 742.795 1089.56 741.418C1091.2 739.778 1092.96 742.883 1092.04 745.786ZM255.716 742.691C256.791 743.77 255.384 747.264 253.872 747.264C253.213 747.264 252.672 746.054 252.672 744.576C252.672 741.955 254.097 741.075 255.716 742.691ZM1145.32 746.629C1144.58 753.383 1143.27 753.198 1141.75 746.132C1140.91 742.217 1141.11 741.703 1143.27 742.147C1145.15 742.53 1145.65 743.632 1145.32 746.629ZM166.606 747.143C167.825 750.083 167.849 751.756 166.7 753.9C164.727 757.586 162.947 756.393 161.871 750.664C160.427 742.967 163.827 740.436 166.606 747.143ZM1182.77 751.128C1181.94 754.176 1180.47 756.672 1179.48 756.672C1178.41 756.672 1177.4 758.863 1176.96 762.179C1176.55 765.21 1174.96 769.03 1173.42 770.666C1171.88 772.306 1170.62 775.263 1170.62 777.242C1170.62 779.386 1169.54 781.519 1167.94 782.52C1157.6 788.972 1174.69 802.983 1186.21 797.509C1188.73 796.317 1190.78 794.502 1190.78 793.477C1190.78 792.453 1191.39 791.616 1192.13 791.616C1192.87 791.616 1193.47 793.091 1193.47 794.895C1193.47 796.7 1192.87 798.551 1192.13 799.008C1189.9 800.386 1190.58 805.056 1193 805.056C1198.76 805.056 1210.62 786.912 1213.65 773.472C1216.94 758.9 1217.02 759.723 1212.54 760.381C1209.43 760.835 1208.33 760.378 1207.69 758.352C1206.24 753.792 1196.77 747.298 1190.27 746.404L1184.26 745.581L1182.77 751.128ZM310.225 749.505C309.574 752.875 306.432 753.339 306.432 750.063C306.432 748.413 307.299 747.264 308.545 747.264C309.799 747.264 310.484 748.178 310.225 749.505ZM1038.17 748.487C1038.58 749.159 1038.55 750.688 1038.09 751.881C1037.11 754.431 1033.54 752.26 1033.54 749.115C1033.54 747.049 1036.99 746.582 1038.17 748.487ZM261.381 758.1C260.511 760.838 260.286 760.912 259.12 758.826C258.408 757.552 258.196 755.536 258.653 754.35C259.96 750.943 262.53 754.478 261.381 758.1ZM208.32 758.688C208.32 760.449 207.715 762.263 206.976 762.72C206.173 763.214 205.632 761.588 205.632 758.688C205.632 755.788 206.173 754.162 206.976 754.656C207.715 755.113 208.32 756.927 208.32 758.688ZM1085.95 757.263C1085.95 761.739 1083.72 762.804 1082.94 758.705C1082.29 755.328 1082.83 753.984 1084.83 753.984C1085.45 753.984 1085.95 755.459 1085.95 757.263ZM1139.69 761.151C1139.7 762.508 1139.06 763.399 1138.27 763.133C1137.47 762.871 1136.87 762.216 1136.92 761.678C1136.98 761.141 1137.03 759.343 1137.04 757.68C1137.06 755.234 1137.31 755.042 1138.37 756.672C1139.08 757.781 1139.68 759.797 1139.69 761.151ZM171.763 759.629C173.762 761.628 173.883 768.298 171.941 769.494C169.868 770.777 169.21 769.665 168.383 763.503C167.64 757.972 168.79 756.655 171.763 759.629ZM1032.19 760.704C1032.19 762.196 1031.29 763.392 1030.18 763.392C1028.13 763.392 1027.42 760.549 1029.06 758.913C1030.76 757.21 1032.19 758.026 1032.19 760.704ZM268.128 768.113C268.128 771.876 264.19 771.459 263.652 767.639C263.306 765.203 263.757 764.605 265.668 764.971C267.066 765.24 268.128 766.594 268.128 768.113ZM1080.58 766.641C1080.58 769.853 1079.02 772.827 1077.75 772.041C1075.69 770.771 1076.36 764.736 1078.56 764.736C1079.67 764.736 1080.58 765.593 1080.58 766.641ZM213.696 771.456C213.696 773.674 213.091 775.488 212.352 775.488C211.613 775.488 211.008 773.674 211.008 771.456C211.008 769.238 211.613 767.424 212.352 767.424C213.091 767.424 213.696 769.238 213.696 771.456ZM1132.99 771.456C1132.99 773.674 1132.39 775.488 1131.65 775.488C1130.15 775.488 1129.79 769.726 1131.2 768.321C1132.72 766.802 1132.99 767.28 1132.99 771.456ZM142.229 773.354C142.467 775.391 142.286 778.048 141.819 779.261C140.556 782.554 138.479 778.704 138.452 773.025C138.429 767.542 141.577 767.817 142.229 773.354ZM1206.69 772.01C1207.44 775.871 1205.66 780.864 1203.53 780.864C1201.46 780.864 1200.57 771.53 1202.46 769.635C1203.92 768.17 1206.2 769.447 1206.69 772.01ZM274.176 778.929C274.176 780.948 273.4 782.208 272.16 782.208C270.147 782.208 269.274 776.808 271.004 775.078C272.526 773.553 274.176 775.555 274.176 778.929ZM1074.43 777.743C1074.92 779.006 1074.41 780.881 1073.28 782.013C1070.93 784.365 1068.87 781.244 1070.31 777.504C1071.34 774.826 1073.36 774.944 1074.43 777.743ZM220.416 782.127C220.416 787.325 218.229 788.568 217.335 783.881C216.579 779.93 217.137 778.176 219.153 778.176C219.848 778.176 220.416 779.953 220.416 782.127ZM1127.62 784.305C1127.62 787.638 1125.77 788.693 1124.25 786.227C1123.07 784.328 1124.85 779.315 1126.37 780.252C1127.05 780.676 1127.62 782.5 1127.62 784.305ZM1200.19 785.299C1200.19 788.357 1197.97 791.616 1195.89 791.616C1194.21 791.616 1194.63 785.622 1196.43 783.821C1198.88 781.365 1200.19 781.879 1200.19 785.299ZM279.552 788.337C279.552 790.141 279.018 791.616 278.366 791.616C277.049 791.616 275.517 785.35 276.572 784.291C277.922 782.94 279.552 785.148 279.552 788.337ZM1066.56 792.634C1064.94 794.257 1064.17 791.586 1065.22 787.984L1066.31 784.224L1066.83 788.044C1067.11 790.144 1066.99 792.211 1066.56 792.634ZM648.48 791.673C640.349 792.275 622.205 793.393 608.16 794.156C594.115 794.919 582.49 795.567 582.322 795.598C577.836 796.37 575.827 836.086 579.879 843.918C581.142 846.364 583.283 847.993 585.927 848.524L590.016 849.341L590.097 873.23C590.14 886.368 590.312 927.058 590.476 963.648C590.819 1039.22 590.93 1037.69 584.929 1039.41C578.73 1041.18 577.426 1047.16 578.642 1068.23C579.996 1091.69 581.428 1092.49 618.936 1090.78C643.494 1089.65 643.776 1089.34 643.776 1062.5V1043.13L639.872 1040.35C637.725 1038.82 635.403 1037.57 634.711 1037.57C631.223 1037.57 630.336 1029.71 630.336 998.797C630.336 960.57 630.188 960.866 647.166 965.14C650.795 966.054 654.541 966.185 656.833 965.476C675.226 959.797 678.495 965.6 679.53 1005.79L680.309 1036.09L675.592 1038.06C668.687 1040.94 667.968 1043.37 667.968 1063.78C667.968 1089.6 668.176 1089.83 692.775 1091.42C728.377 1093.72 730.172 1092.6 731.26 1067.43C732.161 1046.58 731.287 1041.51 726.328 1038.85C720.481 1035.73 720.179 1033.68 720.31 998.458C720.451 961.649 719.104 951.848 712.884 944.459C708.795 939.597 708.758 935.343 712.767 930.488C719.672 922.122 720.485 915.882 720.606 870.394L720.72 828.381L716.856 822.552C714.729 819.346 712.068 815.213 710.936 813.365C709.803 811.517 706.853 808.722 704.377 807.149C701.649 805.416 699.28 802.455 698.369 799.633C696.921 795.154 696.585 794.959 689.512 794.559C685.47 794.331 681.532 793.622 680.763 792.984C678.471 791.082 664.248 790.504 648.48 791.673ZM1120.9 794.529C1120.9 799.421 1120.31 799.243 1119.04 793.968C1118.52 791.774 1118.71 790.272 1119.53 790.272C1120.28 790.272 1120.9 792.187 1120.9 794.529ZM287.031 797.536C287.478 799.314 289.051 801.084 290.526 801.471C292.394 801.961 293.069 803.084 292.764 805.187C292.092 809.757 289.444 809.72 287.838 805.116C287.055 802.865 285.54 801.024 284.471 801.024C282.314 801.024 280.466 797.432 281.642 795.527C283.1 793.168 286.228 794.334 287.031 797.536ZM1062.43 797.758C1062.43 799.166 1061.37 800.52 1060.08 800.769C1057.71 801.222 1056.68 797.15 1058.65 795.171C1060.24 793.585 1062.43 795.083 1062.43 797.758ZM767.478 799.932C764.968 802.627 764.739 804.589 764.756 823.116C764.78 845.279 765.112 846.508 771.678 848.632L776.16 850.083L775.821 934.083C775.414 1035.79 775.36 1036.74 769.957 1038.98C763.526 1041.64 762.713 1044.53 762.774 1064.59C762.854 1091.93 764.084 1092.74 802.966 1090.88C826.127 1089.77 825.418 1090.5 826.758 1066.31C827.904 1045.63 826.973 1041.87 820.001 1038.98C814.524 1036.71 814.666 1037.78 815.173 1002.56C815.677 967.613 815.952 966.601 824.544 968.318C826.762 968.762 834.893 969.73 842.614 970.469C863.339 972.458 863.04 971.917 863.769 1009.14C864.323 1037.65 863.896 1040.26 858.668 1040.26C852.002 1040.26 848.726 1079.79 854.791 1087.06C858.826 1091.9 902.042 1094.18 909.912 1089.97C914.095 1087.73 914.814 1084.26 915.079 1064.97L915.321 1047.35L909.421 1042.51L903.521 1037.68L904.166 1007.05C904.858 973.889 903.689 962.445 899.102 957.566C894.644 952.819 893.518 946.811 896.572 944.049C906.172 935.36 911.511 859.515 903.514 845.342C898.78 836.949 893.958 830.461 890.329 827.608C888.371 826.069 885.683 822.269 884.352 819.165C882.101 813.92 881.479 813.459 875.512 812.643C871.98 812.159 868.14 810.929 866.977 809.908C865.815 808.89 858.903 807.368 851.615 806.524C844.331 805.684 837.376 804.465 836.159 803.816C834.947 803.168 824.275 801.941 812.448 801.095C800.621 800.251 788.222 799.008 784.896 798.333C774.897 796.31 770.475 796.716 767.478 799.932ZM232.257 803.376C231.709 806.208 229.327 806.03 228.719 803.111C228.463 801.894 229.206 801.024 230.496 801.024C231.88 801.024 232.539 801.904 232.257 803.376ZM348.096 803.04C348.096 804.149 348.701 805.056 349.44 805.056C350.179 805.056 350.784 804.149 350.784 803.04C350.784 801.931 350.179 801.024 349.44 801.024C348.701 801.024 348.096 801.931 348.096 803.04ZM1116.02 802.096C1117.09 803.816 1114.62 806.833 1112.98 805.822C1110.83 804.488 1111.15 801.024 1113.42 801.024C1114.49 801.024 1115.66 801.508 1116.02 802.096ZM1056.14 806.054C1055.9 808.107 1054.77 809.915 1053.59 810.14C1051.92 810.456 1051.59 809.646 1052.06 806.454C1052.84 801.148 1056.75 800.762 1056.14 806.054ZM496.608 805.301C493.651 805.967 485.789 807.358 479.136 808.396C467.05 810.277 448.973 813.859 444.521 815.254C440.278 816.584 434.052 822.753 429.186 830.441C426.562 834.59 423.078 839.496 421.445 841.344C413.623 850.191 413.448 851.784 414.453 904.189C414.957 930.609 415.689 974.904 416.079 1002.62C416.952 1064.62 417.302 1065.88 439.706 1087.12L444.625 1091.79L478.995 1091.6C517.48 1091.39 521.643 1090.56 528.666 1081.62C530.571 1079.2 532.987 1076.23 534.035 1075.02C535.087 1073.81 536.663 1070.64 537.543 1067.98C538.42 1065.32 539.737 1062.77 540.469 1062.32C543.809 1060.25 544.475 1052.64 544.333 1018.11C543.557 827.296 543.618 828.532 534.757 823.791C533.363 823.045 532.224 821.799 532.224 821.026C532.224 810.97 511.691 801.901 496.608 805.301ZM298.129 814.911C298.388 816.238 297.703 817.152 296.449 817.152C295.203 817.152 294.336 816.003 294.336 814.353C294.336 811.077 297.478 811.541 298.129 814.911ZM1109.23 816.198C1108.82 816.863 1107.9 816.792 1107.15 816.043C1106.41 815.304 1106.26 813.977 1106.8 813.093C1107.55 811.873 1108.05 811.91 1108.88 813.248C1109.48 814.215 1109.64 815.543 1109.23 816.198ZM1103.42 821.184C1103.42 824.02 1101.47 824.799 1100.06 822.528C1099.08 820.942 1100.36 818.496 1102.16 818.496C1102.86 818.496 1103.42 819.706 1103.42 821.184ZM243.365 821.554C243.2 823.16 241.356 822.851 240.778 821.117C240.482 820.23 240.966 819.746 241.853 820.042C242.74 820.337 243.422 821.016 243.365 821.554ZM938.502 829.067C936.499 832.017 936.096 835.498 936.096 849.872V867.139L939.863 870.032C951.717 879.144 955.389 883.25 956.256 888.381C956.74 891.253 958.299 895.883 959.72 898.669C961.141 901.458 962.304 904.549 962.304 905.543C962.304 906.535 963.446 909.885 964.841 912.986C966.235 916.087 967.824 920.731 968.375 923.308C968.927 925.885 970.146 929.211 971.084 930.7C972.024 932.188 973.214 935.525 973.725 938.112C974.239 940.699 975.811 944.815 977.219 947.261C978.623 949.704 979.776 952.567 979.776 953.618C979.776 955.718 985.31 970.25 989.735 979.776C992.309 985.32 992.544 988.233 992.544 1014.67V1043.51L988.512 1045.58C986.294 1046.72 984.235 1047.79 983.936 1047.97C982.672 1048.71 979.87 1067.13 979.826 1075C979.779 1082.84 980.115 1083.85 983.949 1087.43L988.126 1091.33H1012.95H1037.78L1041.7 1087.4C1049.34 1079.77 1047.12 1053.73 1038.49 1049.66L1034.21 1047.65L1033.85 1019.66C1033.52 994.234 1033.72 991.21 1036.06 986.728C1037.48 984.013 1042.07 974.837 1046.26 966.336C1070.49 917.162 1076.76 907.126 1081.62 909.73C1097.35 918.147 1097.27 879.695 1081.54 870.482C1078.42 868.657 1073.33 866.477 1070.22 865.64C1067.11 864.804 1064.24 863.601 1063.85 862.962C1063.45 862.327 1060.86 861.393 1058.08 860.886C1055.3 860.378 1051.81 859.196 1050.34 858.258C1047.26 856.313 1029.47 850.752 1026.32 850.752C1017.96 850.752 1018.02 884.752 1026.39 892.883L1031.08 897.436L1028.95 903.709C1027.77 907.16 1026.82 910.799 1026.82 911.796C1026.82 912.794 1025.91 915.345 1024.81 917.461C1023.7 919.578 1022.8 922.68 1022.79 924.349C1022.79 926.023 1021.64 929.954 1020.24 933.085C1018.84 936.22 1017.34 939.856 1016.91 941.166C1014.6 948.179 1009.41 944.711 1009.33 936.096C1009.31 933.139 1008.18 928.281 1006.82 925.3C1005.47 922.32 1003.93 916.877 1003.41 913.204C1002.89 909.532 1001.3 903.363 999.879 899.492C997.087 891.872 998.001 885.696 1001.92 885.696C1009.55 885.696 1013.16 857.203 1006.69 848.114C1002.06 841.616 985.055 834.745 973.375 834.658C970.963 834.637 967.939 834.036 966.655 833.317C964.36 832.03 953.716 828.69 945.222 826.59C941.462 825.66 940.598 825.979 938.502 829.067ZM1097.14 831.133C1097.9 833.109 1097.03 834.624 1095.13 834.624C1094.52 834.624 1094.02 833.414 1094.02 831.936C1094.02 828.855 1096.06 828.327 1097.14 831.133ZM340.825 842.268C335.718 843.222 330.264 844.838 328.709 845.856C327.153 846.878 323.773 848.161 321.196 848.716C318.619 849.267 315.907 850.198 315.168 850.779C314.429 851.363 310.447 852.818 306.321 854.015C302.195 855.211 296.473 857.385 293.607 858.846C290.737 860.308 287.246 861.504 285.845 861.504C282.576 861.504 273.474 868.704 269.704 874.272C268.098 876.644 263.458 883.361 259.392 889.197L252 899.808V936.543V973.274L256.163 976.863C258.451 978.835 262.987 982.77 266.243 985.609C269.496 988.448 273.349 991.415 274.808 992.198C278.178 994.016 306.449 991.348 322.332 987.716C342.108 983.186 341.285 981.96 341.312 1015.97C341.339 1047.84 343.076 1045.26 320.369 1047.08C290.821 1049.45 293.983 1049.95 291.514 1042.51C288.281 1032.77 285.22 1030.27 278.729 1032.07C275.856 1032.87 270.178 1033.54 266.112 1033.57C255.058 1033.65 253.589 1035.33 252.514 1049.14C251.345 1064.18 251.741 1065.26 262.466 1076.36C277.667 1092.08 275.08 1091.34 315.363 1091.61C356.399 1091.88 353.946 1092.48 365.077 1079.46C380.063 1061.93 379.737 1063.08 379.331 1029.5C378.494 959.814 379.025 962.721 364.483 948.387L355.139 939.174L348.593 939.889C336.407 941.223 311.163 946.142 306.069 948.182C299.87 950.662 295.136 950.772 293.237 948.488C290.889 945.655 289.535 906.387 291.695 903.783C294.46 900.45 303.193 896.448 307.695 896.448C309.926 896.448 316.357 894.902 321.989 893.011C336.719 888.065 339.145 888.639 340.203 897.322C341.571 908.524 345.176 909.737 361.536 904.512C366.163 903.034 370.756 901.824 371.744 901.824C375.776 901.824 377.308 891.935 376.619 870.384L376.32 861.121L369.264 854.512C365.383 850.876 360.696 846.508 358.848 844.805C354.295 840.611 351.671 840.242 340.825 842.268ZM679.536 848.43C680.665 849.563 681.636 889.19 680.679 895.104C680.259 897.691 678.26 901.824 676.237 904.287L672.558 908.766L653.587 909.28C629.103 909.942 631.052 912.673 630.837 877.41L630.665 849.378L634.197 848.602C636.139 848.178 638.242 847.711 638.87 847.567C641.76 846.901 678.791 847.688 679.536 848.43ZM836.022 856.662C840.057 857.694 847.896 858.971 853.44 859.498C867.619 860.849 866.914 859.343 866.178 886.774L865.539 910.429L861.299 914.804C856.555 919.699 853.685 919.901 833.414 916.759C827.948 915.909 823.156 915.533 822.773 915.916C822.387 916.299 820.966 915.61 819.612 914.387C817.102 912.112 815.66 858.067 818.049 855.681C819.534 854.193 828.23 854.67 836.022 856.662ZM500.899 861.218C502.085 861.974 502.693 879.913 503.254 930.75C503.667 968.433 504.46 1007.63 505.011 1017.86C506.261 1041.03 507.908 1039.46 481.753 1040.04C453.583 1040.66 455.844 1043.07 455.844 1012.38C455.844 998.515 455.431 960.385 454.927 927.652C453.906 861.165 453.351 865.079 464.026 863.56C467.9 863.009 473.794 862.102 477.12 861.541C485.332 860.153 498.933 859.972 500.899 861.218Z" fill="#fff"/>
</svg>
