<svg width="1866" height="1493" viewBox="0 0 1866 1493" fill="none" xmlns="http://www.w3.org/2000/svg">
<path fill-rule="evenodd" clip-rule="evenodd" d="M1515.54 2.03733C1494.52 4.10108 1478.64 6.3179 1468.5 8.60843C1465.09 9.37383 1458.13 10.8196 1453.02 11.8118C1447.91 12.8097 1438.16 14.9981 1431.35 16.682C1424.55 18.3602 1416.47 20.3389 1413.41 21.0703C1406.09 22.8109 1399.69 24.7102 1357.69 37.569C1315.58 50.4674 1296.93 56.1087 1280.32 60.9789C1273.51 62.9746 1263.2 66.0589 1257.41 67.8335C1251.62 69.6138 1244.94 71.6151 1242.55 72.2898C1238.5 73.4351 1216.23 80.6865 1202.32 85.3867C1182.85 91.9748 1155.36 99.5154 1147.85 100.332C1138.33 101.364 1125.59 103.439 1115.04 105.673C1098.63 109.142 1085.13 112.215 1074.18 114.96C1048.53 121.389 1047.97 121.446 1041.93 118.146C1008.4 99.8329 965.689 88.6778 883.518 95.0221C865.246 96.4338 861.537 96.3318 855.356 94.2283C839.328 88.7798 834.632 87.3964 821.617 84.3065C814.129 82.5262 805.77 80.4341 803.048 79.6574C768.901 69.9056 711.897 71.6462 673.623 83.6091C636.499 95.2149 610.994 109.344 565.303 143.634C549.52 155.472 544.318 157.399 533.297 155.472C520.649 153.261 517.019 151.735 505.919 143.996C500.472 140.198 492.951 135.333 489.21 133.19C462.717 118.029 462.305 117.723 454.97 107.875C445.665 95.3792 438.228 89.2504 415.908 75.6603C404.336 68.6129 399.616 66.7986 374.691 59.8136C349.237 52.6756 329.3 50.6912 303.791 52.7436L282.408 54.4672L279.028 50.6119C269.611 39.8736 260.913 40.7523 246.601 53.8832C242.882 57.2963 237.592 60.8285 234.843 61.7356C232.093 62.6428 228.449 63.9128 226.748 64.5591C225.046 65.1998 220.029 66.9007 215.606 68.3238C211.178 69.7526 206.324 71.5045 204.822 72.2188C199.884 74.5661 190.329 75.3541 184.654 73.8744C150.047 64.8766 154.79 65.4266 135.753 68.2047C126.221 69.5994 110.063 71.6802 99.8491 72.8312C79.5369 75.1217 74.78 76.7375 60.8708 86.0301C29.8903 106.741 20.4088 118.795 11.4188 148.901C9.48545 155.387 5.8876 164.736 3.4303 169.674C-1.59556 179.777 -1.58629 179.834 6.7407 190.567C10.6585 195.618 11.1221 197.076 11.0665 204.276C10.9598 218.955 13.8993 223.269 19.4166 216.522C21.8925 213.489 22.9449 213.036 24.2941 214.402C25.6433 215.768 26.3063 215.474 27.382 213.019C30.9057 204.968 33.6133 209.152 33.6133 222.657C33.6133 239.518 38.7041 245.511 44.4903 235.459C45.3666 233.934 48.4313 231.927 51.3012 230.991C54.1712 230.056 57.4954 228.225 58.6916 226.921C60.4442 225.004 61.4596 224.885 63.9864 226.291C67.473 228.236 67.2458 227.607 70.1621 243.147C73.8898 262.985 80.6219 267.68 84.79 253.347C85.4252 251.164 86.4127 250.818 89.8019 251.595C93.0845 252.349 94.2946 251.975 95.2358 249.917C97.1645 245.71 100.461 248.352 100.498 254.129C100.531 260.332 106.521 274.018 109.502 274.721C112.613 275.453 115.325 272.278 115.325 267.918C115.325 265.247 116.276 263.83 118.793 262.758C123.115 260.916 126.467 254.203 126.467 247.382C126.467 239.144 127.876 239.547 130.899 248.647C135.879 263.631 143.042 267.986 145.272 257.384C146.334 252.343 148.758 250.829 155.824 250.79C160.011 250.767 162.371 247.581 162.371 241.945C162.371 238.935 164.615 237.137 168.352 237.154C169.488 237.16 171.686 239.887 173.239 243.209C177.249 251.799 184.654 250.365 184.654 240.998C184.654 238.986 185.901 236.497 187.579 235.153C189.193 233.854 190.862 230.606 191.302 227.896L192.109 222.986L195.568 227.034C199.634 231.802 201.266 232.074 203.463 228.349C206.723 222.821 208.007 223.218 211.109 230.702C214.081 237.869 214.266 238.022 222.014 239.643C226.349 240.556 232.501 242.744 235.682 244.519C238.862 246.294 243.541 247.739 246.072 247.739C252.452 247.739 250.848 248.964 240.188 252.218C216.733 259.379 210.279 268.32 200.802 306.783C190.393 349.033 180.62 361.053 150.919 368.106C143.343 369.903 148.429 378.572 160.577 384.571C167.861 388.165 170.976 392.208 171.018 398.098C171.032 400.275 170.448 400.621 168.25 399.754C166.72 399.153 164.907 398.779 164.226 398.92C163.544 399.062 160.618 399.584 157.716 400.077C151.707 401.092 150.154 404.567 152.431 411.893C154.141 417.392 153.673 417.851 148.258 416.026C142.963 414.234 142.091 415.357 142.356 423.6C142.578 430.568 136.384 432.025 130.519 426.384C125.196 421.264 122.818 423.476 122.771 433.579C122.757 435.915 122.011 436.981 120.379 436.981C119.072 436.981 117.18 437.366 116.178 437.837C115.163 438.313 112.511 436.765 110.198 434.344C107.851 431.889 105.042 430.257 103.748 430.602C101.527 431.186 101.453 432.269 103.085 440.008C103.456 441.783 102.566 442.174 99.0284 441.8C93.1772 441.176 91.9208 444.998 95.3007 453.173C96.8168 456.83 97.4659 460.725 97.0811 463.838C95.9498 473.017 102.033 482.4 109.122 482.4C109.947 482.4 116.28 485.87 123.189 490.105C147.252 504.863 175.543 497.657 198.892 470.811C215.481 451.739 223.136 444.816 240.365 433.307C250.24 426.707 267.506 413.741 278.745 404.482C289.979 395.229 305.019 383.652 312.169 378.759C330.589 366.144 335.151 362.703 340.826 357.124C346.752 351.295 346.218 351.369 353.637 355.383C356.868 357.129 364.041 360.106 369.577 362C375.112 363.893 384.098 367.851 389.546 370.799C407.809 380.675 416.775 383.335 447.116 387.859C462.982 390.223 487.304 397.798 495.339 402.883C497.458 404.222 502.656 406.659 506.889 408.292C514.738 411.32 524.015 419.144 522.277 421.27C521.748 421.916 517.404 421.622 512.624 420.618C507.505 419.547 503.068 419.337 501.83 420.102C500.676 420.822 495.831 422.642 491.064 424.15C467.303 431.657 443.574 458.049 454.91 464.365C457.367 465.737 459.157 464.785 468.207 457.289C480.628 447.005 483.591 445.383 494.171 443.036C498.589 442.061 502.906 440.553 503.759 439.685C505.794 437.627 515.818 438.92 521.753 442.01L526.445 444.448L525.634 452.447C524.025 468.266 524.539 467.869 504.051 469.076C476.613 470.687 470.293 474.123 455.883 495.265C452.146 500.753 447.116 518.612 447.116 526.396C447.116 539.692 453.839 535.343 460.835 517.524C463.52 510.68 470.372 504.126 479.603 499.568C483.864 497.464 489.108 494.431 491.255 492.827C494.801 490.173 496.165 490.043 506.11 491.438C531.749 495.032 538.467 493.082 544.272 480.376C555.58 455.611 556.697 454.908 575.702 460.623C589.291 464.705 589.217 464.705 613.262 461.802C618.862 461.128 625.103 461.598 632.452 463.248C651.47 467.523 659.171 468.464 662.714 466.956C666.919 465.164 671.198 467.665 671.198 471.923C671.198 473.595 673.122 479.316 675.473 484.645C677.828 489.969 680.29 495.565 680.944 497.067C681.602 498.576 683.397 504.24 684.927 509.648C689.966 527.457 706.963 545.027 722.199 548.174C724.962 548.746 727.039 550.152 727.447 551.734C727.823 553.169 731.054 556.542 734.638 559.229C738.217 561.911 745.881 569.599 751.668 576.318C757.459 583.03 764.979 590.798 768.382 593.587C771.79 596.371 777.108 601.956 780.205 606.004C783.302 610.046 788.592 615.404 791.967 617.904L798.097 622.457L798.018 631.534L797.939 640.606L793.405 640.759C790.479 640.861 787.433 642.346 784.818 644.943C778.559 651.157 767.965 659.548 759.1 665.314C754.672 668.189 749.655 671.709 747.954 673.138C730.577 687.703 682.006 697.143 663.029 689.648C650.529 684.71 631.395 688.344 623.772 697.104C621.399 699.831 619.428 700.403 612.464 700.403C604.513 700.403 592.662 705.948 590.205 710.813C589.885 711.442 585.369 713.937 580.172 716.363C568.618 721.755 563.615 727.431 560.536 738.617C556.632 752.791 559.771 755.325 571.344 747.337C578.716 742.251 585.698 741.452 592.472 744.91C598.291 747.881 598.523 749.128 594.424 755.206C590.349 761.256 588.128 770.798 589.635 775.793C590.933 780.079 592.12 779.994 600.512 775.033C611.171 768.728 624.839 768.224 630.931 773.905C635.957 778.593 644.372 780.289 651.391 778.032C654.09 777.165 657.525 777.193 660.521 778.117C664.197 779.245 666.65 779.024 671.04 777.153C674.624 775.628 680.522 774.755 686.781 774.834C692.289 774.902 697.881 774.245 699.202 773.383C700.737 772.379 708.34 772.107 720.14 772.646C730.331 773.105 741.454 773.406 744.861 773.309C748.265 773.219 756.063 774.182 762.192 775.452C830.765 789.694 847.145 782.199 851.207 734.716C852.25 722.498 853.682 711.187 854.383 709.583C855.087 707.972 855.662 705.302 855.662 703.646C855.662 701.985 857.892 694.995 860.614 688.106C863.34 681.223 865.566 674.487 865.566 673.144C865.566 671.8 868.106 667.066 871.204 662.627C879.841 650.255 883.101 639.37 883.082 623.002C883.064 612.309 874.542 595.804 864.022 586.092C860.785 583.11 858.138 579.799 858.138 578.739C858.138 577.678 856.191 574.021 853.808 570.62C851.425 567.212 849.473 563.504 849.473 562.37C849.473 561.236 848.082 557.806 846.38 554.745C844.674 551.677 843.283 547.816 843.283 546.155C843.283 544.494 841.855 538.291 840.107 532.367C835.781 517.699 836.699 516.656 844.229 527.678C847.748 532.832 853.687 540.094 857.424 543.814C861.166 547.539 866.762 554.626 869.868 559.564C872.975 564.497 878.154 571.113 881.376 574.26C884.598 577.412 888.919 582.214 890.978 584.936C893.041 587.663 895.183 589.891 895.739 589.891C896.3 589.891 900.39 593.956 904.822 598.928C916.367 611.861 923.02 614.661 939.799 613.664C952.79 612.887 955.934 613.522 973.274 620.382C999.711 630.848 1029.92 660.432 1018.76 664.923C1016.21 665.949 1014 668.347 1012.68 671.5C1010.44 676.88 998.014 702.666 993.818 710.626C992.395 713.336 990.299 715.915 989.163 716.363C988.032 716.817 986.557 719.096 985.89 721.432C985.222 723.768 982.111 729.216 978.977 733.531C975.843 737.851 973.274 742.104 973.274 742.982C973.274 747.518 963.621 756.663 954.13 761.114C948.659 763.682 942.511 766.659 940.467 767.736C936.438 769.856 925.89 772.754 915.087 774.71C901.679 777.136 895.484 778.939 890.593 781.831C885.952 784.569 885.057 784.626 877.143 782.619C854.424 776.858 849.436 776.019 847.066 777.567C845.759 778.429 843.533 779.126 842.129 779.126C840.719 779.126 838.322 780.651 836.801 782.517C834.441 785.403 832.295 786.021 822.252 786.69C800.382 788.158 782.801 803.647 786.005 818.627C786.622 821.501 787.363 821.785 792.705 821.155C799.107 820.401 801.031 822.924 796.381 825.969C790.215 830.006 784.952 851.794 789.125 856.029C790.641 857.571 792.343 856.659 798.843 850.807C809.938 840.818 815.428 840.279 827.811 847.967C838.299 854.476 838.883 855.564 836.426 864.075C832.332 878.271 838.215 890.614 844.595 881.208C851.063 871.683 865.454 870.05 878.102 877.409C893.917 886.611 924.416 886.158 936.554 876.536C941.793 872.386 952.392 872.159 967.084 875.884C980.641 879.32 1014.04 878.765 1019.7 875.006C1026.74 870.334 1043 848.829 1047.55 838.17C1048.44 836.089 1049.53 834.048 1049.97 833.628C1050.41 833.215 1052.27 829.694 1054.11 825.81C1055.94 821.926 1059.58 816.472 1062.19 813.7C1075.23 799.826 1084.39 775.685 1082.79 759.447C1080.15 732.76 1087.45 686.649 1097.16 668.778C1105.89 652.682 1108.99 628.909 1103.66 618.795C1097.77 607.591 1091.33 598.645 1080.42 586.483C1068.29 572.967 1057.46 558.957 1057.46 556.786C1057.46 554.212 1042.86 536.698 1035.8 530.808C1002.06 502.646 990.818 496.512 975.319 497.788C970.214 498.207 967.242 495.746 969.152 492.685C970.316 490.808 972.296 483.455 980.762 449.522C985.435 430.784 987.128 427.972 997.439 421.831C1002.16 419.014 1008.41 413.48 1012.59 408.406C1021.21 397.94 1029.1 391.351 1036.01 388.84C1040.58 387.19 1047.14 383.882 1062.19 368.239C1064.79 365.541 1068.8 362.904 1071.11 362.371C1073.42 361.844 1078.26 358.981 1081.87 356.01C1085.47 353.045 1090.1 349.575 1092.14 348.31C1094.18 347.04 1098.08 343.837 1100.8 341.189C1103.53 338.536 1109.1 334.102 1113.18 331.324C1117.27 328.552 1122.04 324.827 1123.79 323.041C1125.54 321.255 1130 318.012 1133.69 315.84C1160.87 299.869 1160.54 300.079 1183.44 284.51C1188.71 280.921 1193.32 277.4 1193.69 276.68C1194.34 275.393 1228.46 247.272 1233.27 244.063C1234.64 243.156 1247.17 234.05 1261.13 223.828C1275.08 213.606 1292.91 201.246 1300.75 196.353C1320.76 183.84 1341.16 169.898 1370.69 148.546C1403.97 124.485 1412.87 119.399 1442.5 107.481C1448.62 105.015 1459.49 100.553 1466.64 97.5594C1494.71 85.8232 1514.67 80.3917 1559.49 72.3068C1620.22 61.3474 1697.2 65.6223 1753.25 83.0565C1779.9 91.3512 1782.33 91.028 1782.33 79.2068C1782.33 65.2595 1765.24 46.663 1742.72 36.1062C1738.97 34.3543 1734.8 32.3019 1733.43 31.5478C1730 29.6485 1712.78 23.1964 1703.1 20.1858C1698.67 18.8081 1692.92 16.9938 1690.3 16.1547C1685.61 14.6523 1678.61 13.0534 1664.11 10.1846C1615.34 0.534867 1561.18 -2.43601 1515.54 2.03733ZM255.697 108.658C260.357 111.254 262.235 118.052 259.638 122.9C255.363 130.877 247.166 130.985 242.368 123.132C236.688 113.828 246.281 103.413 255.697 108.658Z" fill="#fff"/>
<path d="M174.655 955.695H111.118V1128.5H68.3805V955.695H5.69838V921.077H174.655V955.695ZM237.765 1056.27H157.56V1023.08H237.765V1056.27ZM350.308 1052.57H316.26V1128.5H273.522V921.077H350.593C375.096 921.077 393.995 926.538 407.292 937.46C420.588 948.382 427.236 963.815 427.236 983.759C427.236 997.91 424.149 1009.73 417.976 1019.23C411.898 1028.63 402.638 1036.14 390.196 1041.74L435.071 1126.5V1128.5H389.199L350.308 1052.57ZM316.26 1017.95H350.735C361.467 1017.95 369.777 1015.24 375.666 1009.83C381.554 1004.32 384.498 996.771 384.498 987.178C384.498 977.396 381.696 969.703 376.093 964.1C370.585 958.496 362.084 955.695 350.593 955.695H316.26V1017.95ZM584.654 1038.61H502.597V1094.17H598.9V1128.5H459.859V921.077H598.615V955.695H502.597V1005.13H584.654V1038.61ZM698.194 992.592L737.085 921.077H786.234L725.831 1023.93L787.801 1128.5H738.083L698.194 1055.84L658.305 1128.5H608.587L670.557 1023.93L610.154 921.077H659.302L698.194 992.592ZM1050.92 1128.5H1008.19V1039.6H924.847V1128.5H882.109V921.077H924.847V1005.13H1008.19V921.077H1050.92V1128.5ZM1208.06 1085.76H1133.12L1118.88 1128.5H1073.43L1150.65 921.077H1190.25L1267.89 1128.5H1222.44L1208.06 1085.76ZM1144.66 1051.14H1196.52L1170.45 973.502L1144.66 1051.14ZM1426.3 955.695H1362.77V1128.5H1320.03V955.695H1257.35V921.077H1426.3V955.695ZM1575.6 1038.61H1493.55V1094.17H1589.85V1128.5H1450.81V921.077H1589.56V955.695H1493.55V1005.13H1575.6V1038.61ZM1722.48 1074.08C1722.48 1066.01 1719.63 1059.83 1713.93 1055.56C1708.23 1051.19 1697.97 1046.63 1683.16 1041.88C1668.34 1037.04 1656.61 1032.29 1647.97 1027.64C1624.42 1014.91 1612.64 997.768 1612.64 976.209C1612.64 965.002 1615.78 955.03 1622.04 946.292C1628.41 937.46 1637.48 930.574 1649.25 925.636C1661.12 920.697 1674.42 918.228 1689.14 918.228C1703.96 918.228 1717.16 920.935 1728.75 926.348C1740.33 931.667 1749.31 939.217 1755.67 948.999C1762.13 958.781 1765.36 969.893 1765.36 982.335H1722.62C1722.62 972.837 1719.63 965.477 1713.64 960.253C1707.66 954.935 1699.26 952.276 1688.43 952.276C1677.98 952.276 1669.86 954.508 1664.07 958.971C1658.28 963.34 1655.38 969.133 1655.38 976.351C1655.38 983.094 1658.75 988.745 1665.49 993.304C1672.33 997.863 1682.35 1002.14 1695.55 1006.13C1719.87 1013.44 1737.58 1022.51 1748.69 1033.34C1759.8 1044.16 1765.36 1057.65 1765.36 1073.79C1765.36 1091.74 1758.57 1105.85 1744.99 1116.1C1731.4 1126.27 1713.12 1131.35 1690.14 1131.35C1674.18 1131.35 1659.65 1128.45 1646.55 1122.66C1633.44 1116.77 1623.42 1108.74 1616.49 1098.58C1609.65 1088.42 1606.23 1076.64 1606.23 1063.25H1649.11C1649.11 1086.14 1662.79 1097.58 1690.14 1097.58C1700.3 1097.58 1708.23 1095.54 1713.93 1091.46C1719.63 1087.28 1722.48 1081.49 1722.48 1074.08Z" fill="#fff"/>
<path d="M91.1741 1470.5V1263.08H163.828C188.996 1263.08 208.086 1267.92 221.097 1277.61C234.108 1287.2 240.614 1301.3 240.614 1319.92C240.614 1330.08 238.002 1339.06 232.779 1346.84C227.555 1354.54 220.29 1360.19 210.982 1363.8C221.619 1366.46 229.977 1371.82 236.055 1379.89C242.229 1387.97 245.315 1397.84 245.315 1409.53C245.315 1429.47 238.952 1444.57 226.226 1454.83C213.499 1465.08 195.359 1470.31 171.806 1470.5H91.1741ZM133.912 1380.18V1436.17H170.524C180.591 1436.17 188.426 1433.79 194.03 1429.04C199.728 1424.2 202.577 1417.55 202.577 1409.1C202.577 1390.1 192.748 1380.46 173.088 1380.18H133.912ZM133.912 1349.98H165.538C187.097 1349.6 197.876 1341 197.876 1324.19C197.876 1314.79 195.122 1308.05 189.614 1303.96C184.2 1299.78 175.605 1297.69 163.828 1297.69H133.912V1349.98ZM434.501 1263.08V1399.7C434.501 1422.39 427.378 1440.34 413.132 1453.55C398.982 1466.75 379.607 1473.35 355.009 1473.35C330.791 1473.35 311.559 1466.94 297.313 1454.12C283.067 1441.29 275.802 1423.68 275.517 1401.26V1263.08H318.254V1399.98C318.254 1413.56 321.484 1423.49 327.942 1429.75C334.495 1435.93 343.517 1439.01 355.009 1439.01C379.037 1439.01 391.241 1426.38 391.621 1401.12V1263.08H434.501ZM546.332 1394.57H512.284V1470.5H469.546V1263.08H546.617C571.12 1263.08 590.02 1268.54 603.316 1279.46C616.612 1290.38 623.26 1305.81 623.26 1325.76C623.26 1339.91 620.174 1351.73 614 1361.23C607.922 1370.63 598.662 1378.14 586.221 1383.74L631.095 1468.5V1470.5H585.223L546.332 1394.57ZM512.284 1359.95H546.759C557.491 1359.95 565.802 1357.24 571.69 1351.83C577.578 1346.32 580.522 1338.77 580.522 1329.18C580.522 1319.4 577.721 1311.7 572.117 1306.1C566.609 1300.5 558.109 1297.69 546.617 1297.69H512.284V1359.95ZM698.621 1397.42V1470.5H655.883V1263.08H736.8C752.376 1263.08 766.052 1265.93 777.829 1271.62C789.7 1277.32 798.818 1285.44 805.181 1295.99C811.544 1306.43 814.726 1318.35 814.726 1331.74C814.726 1352.07 807.745 1368.12 793.784 1379.89C779.918 1391.58 760.686 1397.42 736.088 1397.42H698.621ZM698.621 1362.8H736.8C748.102 1362.8 756.697 1360.14 762.586 1354.82C768.569 1349.5 771.56 1341.9 771.56 1332.03C771.56 1321.87 768.569 1313.65 762.586 1307.38C756.602 1301.11 748.34 1297.88 737.798 1297.69H698.621V1362.8ZM969.009 1380.61H886.953V1436.17H983.255V1470.5H844.215V1263.08H982.97V1297.69H886.953V1347.13H969.009V1380.61ZM1133.12 1380.61H1051.07V1436.17H1147.37V1470.5H1008.33V1263.08H1147.08V1297.69H1051.07V1347.13H1133.12V1380.61ZM1280 1416.08C1280 1408.01 1277.15 1401.83 1271.45 1397.56C1265.75 1393.19 1255.5 1388.63 1240.68 1383.88C1225.86 1379.04 1214.13 1374.29 1205.49 1369.64C1181.94 1356.91 1170.16 1339.77 1170.16 1318.21C1170.16 1307 1173.3 1297.03 1179.56 1288.29C1185.93 1279.46 1195 1272.57 1206.77 1267.64C1218.65 1262.7 1231.94 1260.23 1246.66 1260.23C1261.48 1260.23 1274.68 1262.93 1286.27 1268.35C1297.85 1273.67 1306.83 1281.22 1313.19 1291C1319.65 1300.78 1322.88 1311.89 1322.88 1324.33H1280.14C1280.14 1314.84 1277.15 1307.48 1271.17 1302.25C1265.18 1296.93 1256.78 1294.28 1245.95 1294.28C1235.5 1294.28 1227.38 1296.51 1221.59 1300.97C1215.8 1305.34 1212.9 1311.13 1212.9 1318.35C1212.9 1325.09 1216.27 1330.75 1223.01 1335.3C1229.85 1339.86 1239.87 1344.14 1253.07 1348.13C1277.39 1355.44 1295.1 1364.51 1306.21 1375.34C1317.32 1386.16 1322.88 1399.65 1322.88 1415.79C1322.88 1433.74 1316.09 1447.85 1302.51 1458.1C1288.93 1468.27 1270.64 1473.35 1247.66 1473.35C1231.7 1473.35 1217.17 1470.45 1204.07 1464.66C1190.96 1458.77 1180.94 1450.74 1174.01 1440.58C1167.17 1430.42 1163.75 1418.64 1163.75 1405.25H1206.63C1206.63 1428.14 1220.31 1439.58 1247.66 1439.58C1257.82 1439.58 1265.75 1437.54 1271.45 1433.46C1277.15 1429.28 1280 1423.49 1280 1416.08Z" fill="#ED1E1E"/>
</svg>
